<?xml version="1.0" encoding="UTF-8"?>
<svg xmlns="http://www.w3.org/2000/svg" width="300px" height="300px" viewBox="0 0 32 32">
  <g fill="none" fill-rule="evenodd">
    <rect width="32" height="32" fill="#FFF"></rect>
    <g fill="#231F20" transform="translate(6.03 11.2)">
      <path d="M11.5852737 6.4L10.4615385 6.4 10.4615385.268655039 11.5364623.268655039 11.5364623 1.14319024C11.9639644.499553662 12.6601975.123076923 13.4417164.123076923 14.3820066.123076923 15.1275875.560344523 15.5062782 1.32502957 15.9327075.560344523 16.6906254.123076923 17.6062416.123076923 18.3148117.123076923 18.8764111.341710723 19.3039132.790709893 19.7319517 1.22797749 19.9384615 1.81082321 19.9384615 2.52698222L19.9384615 6.4 18.8152627 6.4 18.8152627 2.69708998C18.8152627 1.73776753 18.2654639 1.14319024 17.3375107 1.14319024 16.3972205 1.14319024 15.7621358 1.88334564 15.7621358 2.89119413L15.7621358 6.4 14.6384006 6.4 14.6384006 2.69708998C14.6384006 1.73776753 14.0891381 1.14319024 13.1611849 1.14319024 12.2203584 1.14319024 11.5852737 1.88334564 11.5852737 2.89119413L11.5852737 6.4zM8.23961879 6.52307692C7.75602451 6.52307692 7.38461538 6.13305053 7.38461538 5.66789158 7.38461538 5.16516635 7.74404357 4.8 8.23961879 4.8 8.7357386 4.8 9.10769231 5.16516635 9.10769231 5.66789158 9.10769231 6.15846302 8.7357386 6.52307692 8.23961879 6.52307692"></path>
      <polygon points="0 9.477 6.383 9.474 6.382 8.378 0 8.381"></polygon>
      <path d="M1.17328,2.64666698 L5.25274667,2.64666698 C5.01061333,1.6148658 4.23301333,0.987798343 3.22554667,0.987798343 C2.21754667,0.987798343 1.42821333,1.65102201 1.17328,2.64666698 M5.11941333,4.4156232 L6.22501333,4.4156232 C5.79994667,5.70645396 4.65808,6.51700071 3.21274667,6.51700071 C2.30234667,6.51700071 1.53808,6.20994272 0.917813333,5.58287527 C0.31088,4.9568871 0.00741333333,4.18249657 0.00741333333,3.26078296 C0.00741333333,2.36443266 0.323146667,1.59004213 0.942346667,0.962974675 C1.56208,0.336446864 2.32688,0.0169770414 3.22554667,0.0169770414 C4.13648,0.0169770414 4.88901333,0.32403503 5.48368,0.926278817 C6.07941333,1.5285226 6.38288,2.2905013 6.38288,3.18739124 L6.38288,3.58025278 L1.11248,3.58025278 C1.17328,4.15821254 1.40421333,4.63687763 1.79248,5.00599479 C2.19354667,5.36216047 2.66661333,5.54617941 3.22554667,5.54617941 C4.06341333,5.54617941 4.78021333,5.11608237 5.11941333,4.4156232"></path>
    </g>
  </g>
</svg>
