<?xml version="1.0" encoding="UTF-8"?>
<svg xmlns="http://www.w3.org/2000/svg" width="300px" height="33px" viewBox="0 0 299 33">
  <g fill-rule="evenodd" transform="translate(0 -1)">
    <path d="M3.97445783 10.6136747L17.799759 10.6136747C16.9774699 7.15644578 14.3443373 5.05825301 10.9286747 5.05825301 7.51301205 5.05825301 4.83831325 7.28114458 3.97445783 10.6136747M17.3461446 16.5377711L21.0943373 16.5377711C19.6521687 20.8588554 15.7828916 23.5751205 10.8871084 23.5751205 7.80036145 23.5751205 5.21060241 22.5468072 3.10879518 20.4468072 1.05216867 18.3504217.0238554217 15.7570482.0238554217 12.6703012.0238554217 9.66668675 1.09373494 7.07512048 3.19192771 4.97512048 5.29192771 2.87692771 7.88349398 1.80704819 10.9286747 1.80704819 14.0154217 1.80704819 16.5654217 2.83536145 18.5822892 4.85222892 20.5991566 6.86909639 21.6274699 9.41909639 21.6274699 12.4245181L21.6274699 13.7401807 3.76843373 13.7401807C3.97445783 15.6739157 4.75698795 17.2787349 6.0726506 18.5148795 7.43168675 19.7076506 9.03650602 20.3239157 10.9286747 20.3239157 13.7678313 20.3239157 16.196747 18.8835542 17.3461446 16.5377711M39.2365663 14.1927108L39.2365663 2.30114458 43.0227108 2.30114458 43.0227108 23.0806627 39.4010241 23.0806627 39.4010241 20.1186145C37.9606627 22.2981325 35.6148795 23.5740361 32.981747 23.5740361 30.6359639 23.5740361 28.7437952 22.8348795 27.3016265 21.3529518 25.8630723 19.8294578 25.1636747 17.8559639 25.1636747 15.4288554L25.1636747 2.30114458 28.9498193 2.30114458 28.9498193 14.565C28.9498193 17.9788554 30.8022289 20.1186145 33.8871687 20.1186145 37.055241 20.1186145 39.2365663 17.6083735 39.2365663 14.1927108M51.4142169 12.1772892L51.4142169 23.0803012 47.6280723 23.0803012 47.6280723 2.30078313 51.249759 2.30078313 51.249759 6.17006024C52.6087952 3.49536145 54.9925301 2.01343373 57.9166265 2.01343373 58.2871084 2.01343373 58.6973494 2.05319277 58.9846988 2.09475904L58.9846988 5.67487952C58.4913253 5.63512048 58.1624096 5.59355422 57.833494 5.59355422 53.9244578 5.59355422 51.4142169 8.34957831 51.4142169 12.1772892"></path>
    <path d="M16.5455422,6.51975904 C15.146747,5.07939759 13.4190361,4.38 11.3606024,4.38 C9.30216867,4.38 7.57445783,5.07939759 6.13590361,6.51975904 C4.73710843,7.96012048 4.03590361,9.68783133 4.03590361,11.7462651 C4.03590361,13.8444578 4.73710843,15.5721687 6.13590361,17.0125301 C7.5346988,18.4528916 9.26421687,19.1522892 11.3606024,19.1522892 C13.4606024,19.1522892 15.1883133,18.4528916 16.5871084,17.0125301 C17.9859036,15.5721687 18.6871084,13.8444578 18.6871084,11.7462651 C18.6871084,9.68783133 17.9859036,7.96012048 16.5455422,6.51975904 M3.46120482,4.00951807 C5.55939759,1.9113253 8.19253012,0.881204819 11.3606024,0.881204819 C14.5304819,0.881204819 17.1636145,1.95289157 19.2618072,4.05108434 C21.36,6.14927711 22.4316867,8.70108434 22.4316867,11.7462651 C22.4316867,14.8312048 21.36,17.4245783 19.2618072,19.5227711 C17.1636145,21.6209639 14.5304819,22.6492771 11.3606024,22.6492771 C8.19253012,22.6492771 5.55939759,21.6209639 3.46120482,19.5227711 C1.36301205,17.4245783 0.29313253,14.8312048 0.29313253,11.7462651 C0.29313253,8.65951807 1.36301205,6.10771084 3.46120482,4.00951807" transform="translate(59.639 .925)"></path>
    <path d="M17.0839157,6.47819277 C15.6851205,5.03783133 13.9574096,4.33843373 11.8592169,4.33843373 C9.75921687,4.33843373 8.03150602,5.03783133 6.63271084,6.47819277 C5.27548193,7.91855422 4.57427711,9.64626506 4.57427711,11.7462651 C4.57427711,13.8444578 5.27548193,15.6137349 6.63271084,17.0540964 C8.03150602,18.4944578 9.75921687,19.1938554 11.8592169,19.1938554 C13.9574096,19.1938554 15.6851205,18.4944578 17.0839157,17.0540964 C18.4827108,15.6137349 19.1839157,13.8444578 19.1839157,11.7462651 C19.1839157,9.64626506 18.4827108,7.91855422 17.0839157,6.47819277 L17.0839157,6.47819277 Z M0.914638554,30.8812048 L0.914638554,1.37638554 L4.53451807,1.37638554 L4.53451807,4.95650602 C6.38692771,2.36313253 9.30740964,0.881204819 12.641747,0.881204819 C15.6453614,0.881204819 18.1122289,1.9113253 20.0875301,3.96795181 C22.1043976,6.02638554 23.0911446,8.61975904 23.0911446,11.7046988 C23.0911446,14.8312048 22.1043976,17.4245783 20.0875301,19.5227711 C18.0724699,21.6209639 15.5622289,22.6492771 12.5170482,22.6492771 C9.3489759,22.6492771 6.55138554,21.2920482 4.69716867,18.8233735 L4.69716867,30.8812048 L0.914638554,30.8812048 Z" transform="translate(84.94 .925)"></path>
    <path d="M122.596807 18.5546386C123.789578 17.2787349 124.366084 15.7986145 124.366084 14.0293373L124.366084 12.5058434 118.234157 13.9462048C115.640783 14.5642771 114.326928 15.7154819 114.326928 17.3618675 114.326928 19.2956024 115.767289 20.4468072 118.234157 20.4468072 119.963675 20.4468072 121.404036 19.8305422 122.596807 18.5546386L122.596807 18.5546386zM124.488976 23.0799398L124.488976 20.1178916C122.967289 22.2992169 120.375723 23.5751205 117.534759 23.5751205 115.517892 23.5751205 113.831747 23.0401807 112.514277 21.9305422 111.240181 20.8172892 110.582349 19.4203012 110.582349 17.6907831 110.582349 14.2751205 112.720301 12.0937952 117.287169 11.0654819L124.366084 9.41909639 124.366084 9.13174699C124.366084 6.66307229 122.473916 5.01668675 119.632952 5.01668675 116.999819 5.01668675 115.024518 6.54018072 114.69741 8.84439759L111.075723 8.84439759C111.27994 6.82753012 112.185361 5.14138554 113.790181 3.82391566 115.396807 2.46668675 117.368494 1.80704819 119.676325 1.80704819 124.94259 1.80704819 128.069096 4.81246988 128.069096 9.58536145L128.069096 23.0799398 124.488976 23.0799398zM134.897892 23.5749398C133.291265 23.5749398 132.058735 22.2990361 132.058735 20.7773494 132.058735 19.1327711 133.251506 17.9381928 134.897892 17.9381928 136.54247 17.9381928 137.776807 19.1327711 137.776807 20.7773494 137.776807 22.3821687 136.54247 23.5749398 134.897892 23.5749398M145.801265 23.0806627L142.01512 23.0806627 142.01512 2.30114458 145.636807 2.30114458 145.636807 5.26319277C147.077169 3.0836747 149.422952 1.80777108 152.056084 1.80777108 155.224157 1.80777108 157.736205 3.28789157 159.012108 5.88126506 160.450663 3.28789157 163.00247 1.80777108 166.089217 1.80777108 168.474759 1.80777108 170.366928 2.54873494 171.807289 4.07042169 173.249458 5.5523494 173.947048 7.5276506 173.947048 9.95475904L173.947048 23.0806627 170.160904 23.0806627 170.160904 10.5312651C170.160904 7.28006024 168.308494 5.26319277 165.181988 5.26319277 162.015723 5.26319277 159.874157 7.77343373 159.874157 11.1890964L159.874157 23.0806627 156.088012 23.0806627 156.088012 10.5312651C156.088012 7.28006024 154.23741 5.26319277 151.110904 5.26319277 147.941024 5.26319277 145.801265 7.77343373 145.801265 11.1890964L145.801265 23.0806627zM192.132651 14.1927108L192.132651 2.30114458 195.916988 2.30114458 195.916988 23.0806627 192.297108 23.0806627 192.297108 20.1186145C190.856747 22.2981325 188.510964 23.5740361 185.876024 23.5740361 183.530241 23.5740361 181.638072 22.8348795 180.197711 21.3529518 178.759157 19.8294578 178.057952 17.8559639 178.057952 15.4288554L178.057952 2.30114458 181.845904 2.30114458 181.845904 14.565C181.845904 17.9788554 183.696506 20.1186145 186.783253 20.1186145 189.949518 20.1186145 192.132651 17.6083735 192.132651 14.1927108"></path>
    <path d="M17.3062048,7.38361446 L13.4351205,7.38361446 C13.3971687,5.07939759 11.9568072,3.92638554 9.1989759,3.92638554 C6.77186747,3.92638554 5.12548193,4.99807229 5.12548193,6.60108434 C5.12548193,8.08301205 5.86644578,8.8239759 8.99295181,9.52337349 L11.5031928,10.0998795 C15.9887349,11.1281928 17.7164458,12.8974699 17.7164458,16.0257831 C17.7164458,20.1408434 14.4670482,22.6492771 9.52608434,22.6492771 C3.97246988,22.6492771 0.72126506,20.0992771 0.555,15.4908434 L4.50740964,15.4908434 C4.54716867,18.1655422 6.31825301,19.6040964 9.405,19.6040964 C12.2025904,19.6040964 13.8887349,18.4113253 13.8887349,16.3944578 C13.8887349,14.8727711 13.0266867,14.0089157 10.431506,13.3926506 L7.38813253,12.693253 C2.98391566,11.7046988 1.33753012,9.97698795 1.33753012,6.89024096 C1.33753012,3.26855422 4.59054217,0.881204819 9.23873494,0.881204819 C14.1363253,0.881204819 17.1001807,3.22698795 17.3062048,7.38361446" transform="translate(198.795 .925)"></path>
    <path d="M223.155542 10.6136747L236.980843 10.6136747C236.158554 7.15644578 233.525422 5.05825301 230.111566 5.05825301 226.695904 5.05825301 224.021205 7.28114458 223.155542 10.6136747M236.529036 16.5377711L240.275422 16.5377711C238.833253 20.8588554 234.965783 23.5751205 230.068193 23.5751205 226.983253 23.5751205 224.391687 22.5468072 222.291687 20.4468072 220.23506 18.3504217 219.20494 15.7570482 219.20494 12.6703012 219.20494 9.66668675 220.276627 7.07512048 222.373012 4.97512048 224.473012 2.87692771 227.064578 1.80704819 230.111566 1.80704819 233.196506 1.80704819 235.748313 2.83536145 237.763373 4.85222892 239.780241 6.86909639 240.810361 9.41909639 240.810361 12.4245181L240.810361 13.7401807 222.951325 13.7401807C223.155542 15.6739157 223.938072 17.2787349 225.255542 18.5148795 226.612771 19.7076506 228.21759 20.3239157 230.111566 20.3239157 232.950723 20.3239157 235.377831 18.8835542 236.529036 16.5377711M258.417651 14.1927108L258.417651 2.30114458 262.203795 2.30114458 262.203795 23.0806627 258.582108 23.0806627 258.582108 20.1186145C257.141747 22.2981325 254.795964 23.5740361 252.162831 23.5740361 249.817048 23.5740361 247.92488 22.8348795 246.482711 21.3529518 245.045964 19.8294578 244.344759 17.8559639 244.344759 15.4288554L244.344759 2.30114458 248.132711 2.30114458 248.132711 14.565C248.132711 17.9788554 249.983313 20.1186145 253.068253 20.1186145 256.236325 20.1186145 258.417651 17.6083735 258.417651 14.1927108M270.597108 23.0806627L266.810964 23.0806627 266.810964 2.30114458 270.432651 2.30114458 270.432651 5.26319277C271.873012 3.0836747 274.218795 1.80777108 276.851928 1.80777108 280.02 1.80777108 282.530241 3.28789157 283.806145 5.88126506 285.244699 3.28789157 287.798313 1.80777108 290.883253 1.80777108 293.270602 1.80777108 295.162771 2.54873494 296.603133 4.07042169 298.043494 5.5523494 298.741084 7.5276506 298.741084 9.95475904L298.741084 23.0806627 294.956747 23.0806627 294.956747 10.5312651C294.956747 7.28006024 293.104337 5.26319277 289.977831 5.26319277 286.809759 5.26319277 284.67 7.77343373 284.67 11.1890964L284.67 23.0806627 280.883855 23.0806627 280.883855 10.5312651C280.883855 7.28006024 279.033253 5.26319277 275.906747 5.26319277 272.736867 5.26319277 270.597108 7.77343373 270.597108 11.1890964L270.597108 23.0806627z"></path>
    <polygon points="0 3.614 89.622 3.578 89.622 .001 0 .037" transform="translate(0 29.84)"></polygon>
  </g>
</svg>
