<?xml version="1.0" standalone="no"?><!DOCTYPE svg PUBLIC "-//W3C//DTD SVG 1.1//EN" "http://www.w3.org/Graphics/SVG/1.1/DTD/svg11.dtd" ><svg version="1.1" xmlns="http://www.w3.org/2000/svg"><defs><font horiz-adv-x="0" id="font"><font-face ascent="750" bbox="-231 -250 1380 954" cap-height="703" descent="-250" font-family="Web use ONLY | Copyright (C) Emtype Foundry" font-stretch="normal" font-weight="300" units-per-em="1000" x-height="504" /><missing-glyph d="M588 214H542L426 328L312 215H265L402 352L268 487H314L426 376L539 489H587L450 352ZM779 352Q779 497 676 600Q573 703 429 703Q284 703 180.5 600Q77 497 77 352Q77 207 180.5 103.5Q284 0 429 0Q573 0 676 103.5Q779 207 779 352ZM95 352Q95 489 193.5 587Q292 685 429 685Q566 685 663.5 587Q761 489 761 352Q761 214 663.5 116Q566 18 429 18Q291 18 193 116Q95 214 95 352Z" horiz-adv-x="869" /><glyph d="M293 703H376L648 0H564L494 184H169L99 0H19ZM469 251 332 613 194 251ZM333 703ZM584 0Z" glyph-name="A" horiz-adv-x="668" unicode="A" /><glyph d="M875 0H448V184H177L63 0H-20L413 703H870V631H526V393H846V324H526V72H875ZM448 620 219 251H448Z" glyph-name="AE" horiz-adv-x="930" unicode="&#198;" /><glyph d="M293 703H376L648 0H564L494 184H169L99 0H19ZM469 251 332 613 194 251ZM333 703ZM584 0ZM370 766H298L378 910H451ZM333 697ZM333 703Z" glyph-name="Aacute" horiz-adv-x="668" unicode="&#193;" /><glyph d="M293 703H376L648 0H564L494 184H169L99 0H19ZM469 251 332 613 194 251ZM333 703ZM584 0ZM334 758Q274 758 235.5 797.5Q197 837 197 898H253Q253 856 275 831.5Q297 807 334 807Q372 807 394 831.5Q416 856 416 898H472Q472 837 433.5 797.5Q395 758 334 758ZM334 696ZM335 703Z" glyph-name="Abreve" horiz-adv-x="668" unicode="&#258;" /><glyph d="M293 703H376L648 0H564L494 184H169L99 0H19ZM469 251 332 613 194 251ZM333 703ZM584 0ZM188 766 300 910H367L480 766H412L334 866L255 766ZM334 697ZM334 703Z" glyph-name="Acircumflex" horiz-adv-x="668" unicode="&#194;" /><glyph d="M293 703H376L648 0H564L494 184H169L99 0H19ZM469 251 332 613 194 251ZM333 703ZM584 0ZM312 830Q312 810 299 796.5Q286 783 266 783Q246 783 232.5 796.5Q219 810 219 830Q219 849 232.5 862.5Q246 876 266 876Q286 876 299 863Q312 850 312 830ZM450 830Q450 810 436 796.5Q422 783 403 783Q383 783 369.5 796.5Q356 810 356 830Q356 850 369.5 863Q383 876 403 876Q422 876 436 862.5Q450 849 450 830ZM334 695ZM333 703Z" glyph-name="Adieresis" horiz-adv-x="668" unicode="&#196;" /><glyph d="M293 703H376L648 0H564L494 184H169L99 0H19ZM469 251 332 613 194 251ZM333 703ZM584 0ZM298 766H370L290 910H217ZM334 697ZM334 703Z" glyph-name="Agrave" horiz-adv-x="668" unicode="&#192;" /><glyph d="M293 703H376L648 0H564L494 184H169L99 0H19ZM469 251 332 613 194 251ZM333 703ZM584 0ZM466 796H203V849H466ZM334 695ZM333 703Z" glyph-name="Amacron" horiz-adv-x="668" unicode="&#256;" /><glyph d="M293 703H376L648 0H628Q578 -57 558 -89Q538 -121 538 -145Q538 -168 550.5 -179.5Q563 -191 586 -191Q597 -191 609 -188Q621 -185 632 -179V-232Q618 -241 603 -245.5Q588 -250 571 -250Q530 -250 502 -224.5Q474 -199 474 -161Q474 -127 491.5 -94.5Q509 -62 564 1L494 184H169L99 0H19ZM469 251 332 613 194 251Z" glyph-name="Aogonek" horiz-adv-x="668" unicode="&#260;" /><glyph d="M293 703H376L648 0H564L494 184H169L99 0H19ZM469 251 332 613 194 251ZM333 703ZM584 0ZM430 851Q430 812 402 785Q374 758 334 758Q294 758 266 785Q238 812 238 851Q238 889 266 916.5Q294 944 334 944Q373 944 401.5 916.5Q430 889 430 851ZM285 851Q285 831 299.5 816Q314 801 334 801Q354 801 369 816Q384 831 384 851Q384 871 369 886Q354 901 334 901Q314 901 299.5 886Q285 871 285 851ZM334 696ZM334 703Z" glyph-name="Aring" horiz-adv-x="668" unicode="&#197;" /><glyph d="M293 703H376L648 0H564L494 184H169L99 0H19ZM469 251 332 613 194 251ZM333 703ZM584 0ZM358 850Q373 835 381 830.5Q389 826 397 826Q412 826 420 839Q428 852 433 885H484Q479 827 458 799.5Q437 772 397 772Q377 772 361.5 779.5Q346 787 325 809Q309 825 300 830Q291 835 281 835Q261 835 250 819.5Q239 804 235 772H184Q188 830 213 859.5Q238 889 282 889Q301 889 317.5 881.5Q334 874 358 850ZM334 692ZM333 703Z" glyph-name="Atilde" horiz-adv-x="668" unicode="&#195;" /><glyph d="M381 0H97V703H346Q451 703 515 656Q579 609 579 528Q579 471 548 428.5Q517 386 459 364Q533 347 574.5 301Q616 255 616 190Q616 103 550.5 51.5Q485 0 381 0ZM499 517Q499 573 455.5 605.5Q412 638 339 638H175V388H343Q413 388 456 423Q499 458 499 517ZM535 198Q535 256 490 290.5Q445 325 372 325H175V65H372Q445 65 490 101Q535 137 535 198Z" glyph-name="B" horiz-adv-x="664" unicode="B" /><glyph d="M682 271H763Q736 146 638 67Q540 -12 410 -12Q257 -12 152.5 94Q48 200 48 352Q48 504 152.5 609.5Q257 715 410 715Q538 715 634.5 639Q731 563 761 442H677Q648 532 575 586Q502 640 409 640Q292 640 211 556Q130 472 130 352Q130 231 211 147Q292 63 409 63Q506 63 581 120.5Q656 178 682 271ZM410 703ZM410 10Z" glyph-name="C" horiz-adv-x="802" unicode="C" /><glyph glyph-name="CR" horiz-adv-x="259" unicode="" /><glyph d="M682 271H763Q736 146 638 67Q540 -12 410 -12Q257 -12 152.5 94Q48 200 48 352Q48 504 152.5 609.5Q257 715 410 715Q538 715 634.5 639Q731 563 761 442H677Q648 532 575 586Q502 640 409 640Q292 640 211 556Q130 472 130 352Q130 231 211 147Q292 63 409 63Q506 63 581 120.5Q656 178 682 271ZM410 703ZM410 10ZM447 766H375L455 910H528ZM410 697ZM410 703Z" glyph-name="Cacute" horiz-adv-x="802" unicode="&#262;" /><glyph d="M682 271H763Q736 146 638 67Q540 -12 410 -12Q257 -12 152.5 94Q48 200 48 352Q48 504 152.5 609.5Q257 715 410 715Q538 715 634.5 639Q731 563 761 442H677Q648 532 575 586Q502 640 409 640Q292 640 211 556Q130 472 130 352Q130 231 211 147Q292 63 409 63Q506 63 581 120.5Q656 178 682 271ZM410 703ZM410 10ZM263 910 375 766H442L555 910H487L409 810L330 910ZM409 979ZM409 697ZM411 703Z" glyph-name="Ccaron" horiz-adv-x="802" unicode="&#268;" /><glyph d="M682 271H763Q737 152 646.5 74Q556 -4 433 -11L406 -56Q408 -55 410 -55Q412 -55 417 -55Q462 -55 490.5 -82.5Q519 -110 519 -152Q519 -194 488.5 -222Q458 -250 413 -250Q368 -250 338.5 -224.5Q309 -199 307 -157H364Q365 -176 379 -188Q393 -200 413 -200Q433 -200 447 -186Q461 -172 461 -152Q461 -131 447.5 -117.5Q434 -104 413 -104Q399 -104 388.5 -108.5Q378 -113 367 -125L322 -100L377 -11Q236 2 142 105.5Q48 209 48 352Q48 504 152.5 609.5Q257 715 410 715Q538 715 634.5 639Q731 563 761 442H677Q648 532 575 586Q502 640 409 640Q292 640 211 556Q130 472 130 352Q130 231 211 147Q292 63 409 63Q506 63 581 120.5Q656 178 682 271Z" glyph-name="Ccedilla" horiz-adv-x="802" unicode="&#199;" /><glyph d="M682 271H763Q736 146 638 67Q540 -12 410 -12Q257 -12 152.5 94Q48 200 48 352Q48 504 152.5 609.5Q257 715 410 715Q538 715 634.5 639Q731 563 761 442H677Q648 532 575 586Q502 640 409 640Q292 640 211 556Q130 472 130 352Q130 231 211 147Q292 63 409 63Q506 63 581 120.5Q656 178 682 271ZM410 703ZM410 10ZM264 766 376 910H443L556 766H488L410 866L331 766ZM410 697ZM410 703Z" glyph-name="Ccircumflex" horiz-adv-x="802" unicode="&#264;" /><glyph d="M463 833Q463 812 447.5 797Q432 782 411 782Q389 782 374 797Q359 812 359 833Q359 855 374 870.5Q389 886 411 886Q432 886 447.5 870.5Q463 855 463 833ZM411 695ZM411 703ZM682 271H763Q736 146 638 67Q540 -12 410 -12Q257 -12 152.5 94Q48 200 48 352Q48 504 152.5 609.5Q257 715 410 715Q538 715 634.5 639Q731 563 761 442H677Q648 532 575 586Q502 640 409 640Q292 640 211 556Q130 472 130 352Q130 231 211 147Q292 63 409 63Q506 63 581 120.5Q656 178 682 271ZM410 703ZM410 10Z" glyph-name="Cdotaccent" horiz-adv-x="802" unicode="&#266;" /><glyph d="M335 0H97V703H335Q501 703 606.5 608Q712 513 712 354Q712 193 606.5 96.5Q501 0 335 0ZM175 629V74H333Q466 74 548 149.5Q630 225 630 354Q630 481 548 555Q466 629 333 629ZM359 703Z" glyph-name="D" horiz-adv-x="763" unicode="D" /><glyph d="M335 0H97V703H335Q501 703 606.5 608Q712 513 712 354Q712 193 606.5 96.5Q501 0 335 0ZM175 629V74H333Q466 74 548 149.5Q630 225 630 354Q630 481 548 555Q466 629 333 629ZM359 703ZM212 910 324 766H391L504 910H436L358 810L279 910ZM358 979ZM358 697ZM360 703Z" glyph-name="Dcaron" horiz-adv-x="763" unicode="&#270;" /><glyph d="M344 0H106V319H28V385H106V703H344Q510 703 615.5 608Q721 513 721 354Q721 193 615.5 96.5Q510 0 344 0ZM184 319V74H342Q475 74 557 149.5Q639 225 639 354Q639 481 557 555Q475 629 342 629H184V385H393V319Z" glyph-name="Dcroat" horiz-adv-x="772" unicode="&#272;" /><glyph d="M284 703H367L619 58V0H31V58ZM323 613 117 71H530Z" glyph-name="Delta" horiz-adv-x="649" unicode="&#8710;" /><glyph d="M524 0H97V703H519V631H175V393H495V324H175V72H524ZM308 703ZM483 0Z" glyph-name="E" horiz-adv-x="579" unicode="E" /><glyph d="M524 0H97V703H519V631H175V393H495V324H175V72H524ZM308 703ZM483 0ZM346 766H274L354 910H427ZM309 697ZM309 703Z" glyph-name="Eacute" horiz-adv-x="579" unicode="&#201;" /><glyph d="M524 0H97V703H519V631H175V393H495V324H175V72H524ZM308 703ZM483 0ZM308 758Q248 758 209.5 797.5Q171 837 171 898H227Q227 856 249 831.5Q271 807 308 807Q346 807 368 831.5Q390 856 390 898H446Q446 837 407.5 797.5Q369 758 308 758ZM308 696ZM309 703Z" glyph-name="Ebreve" horiz-adv-x="579" unicode="&#276;" /><glyph d="M524 0H97V703H519V631H175V393H495V324H175V72H524ZM308 703ZM483 0ZM161 910 273 766H340L453 910H385L307 810L228 910ZM307 979ZM307 697ZM309 703Z" glyph-name="Ecaron" horiz-adv-x="579" unicode="&#282;" /><glyph d="M162 766 274 910H341L454 766H386L308 866L229 766ZM308 697ZM308 703ZM524 0H97V703H519V631H175V393H495V324H175V72H524ZM308 703ZM483 0Z" glyph-name="Ecircumflex" horiz-adv-x="579" unicode="&#202;" /><glyph d="M524 0H97V703H519V631H175V393H495V324H175V72H524ZM308 703ZM483 0ZM288 830Q288 810 275 796.5Q262 783 242 783Q222 783 208.5 796.5Q195 810 195 830Q195 849 208.5 862.5Q222 876 242 876Q262 876 275 863Q288 850 288 830ZM426 830Q426 810 412 796.5Q398 783 379 783Q359 783 345.5 796.5Q332 810 332 830Q332 850 345.5 863Q359 876 379 876Q398 876 412 862.5Q426 849 426 830ZM310 695ZM309 703Z" glyph-name="Edieresis" horiz-adv-x="579" unicode="&#203;" /><glyph d="M362 833Q362 812 346.5 797Q331 782 310 782Q288 782 273 797Q258 812 258 833Q258 855 273 870.5Q288 886 310 886Q331 886 346.5 870.5Q362 855 362 833ZM310 695ZM310 703ZM524 0H97V703H519V631H175V393H495V324H175V72H524ZM308 703ZM483 0Z" glyph-name="Edotaccent" horiz-adv-x="579" unicode="&#278;" /><glyph d="M273 766H345L265 910H192ZM309 697ZM309 703ZM524 0H97V703H519V631H175V393H495V324H175V72H524ZM308 703ZM483 0Z" glyph-name="Egrave" horiz-adv-x="579" unicode="&#200;" /><glyph d="M524 0H97V703H519V631H175V393H495V324H175V72H524ZM308 703ZM483 0ZM441 796H178V849H441ZM309 695ZM308 703Z" glyph-name="Emacron" horiz-adv-x="579" unicode="&#274;" /><glyph d="M433 0H97V703H519V631H175V393H495V324H175V72H524V0H498Q448 -57 428 -89Q408 -121 408 -145Q408 -168 420.5 -179.5Q433 -191 456 -191Q467 -191 479 -188Q491 -185 502 -179V-232Q488 -241 473 -245.5Q458 -250 441 -250Q400 -250 372 -224.5Q344 -199 344 -161Q344 -127 361 -94.5Q378 -62 433 0Z" glyph-name="Eogonek" horiz-adv-x="579" unicode="&#280;" /><glyph d="M344 0H106V319H28V385H106V703H344Q510 703 615.5 608Q721 513 721 354Q721 193 615.5 96.5Q510 0 344 0ZM184 319V74H342Q475 74 557 149.5Q639 225 639 354Q639 481 557 555Q475 629 342 629H184V385H393V319Z" glyph-name="Eth" horiz-adv-x="772" unicode="&#208;" /><glyph d="M198 258V244Q198 158 243.5 110.5Q289 63 366 63Q442 63 487 109.5Q532 156 532 239H611Q611 120 543.5 54Q476 -12 365 -12Q255 -12 187.5 55Q120 122 120 243V258H47V320H120V382H47V444H120V460Q120 581 187.5 648Q255 715 365 715Q476 715 543.5 649Q611 583 611 464H532Q532 547 487 593.5Q442 640 366 640Q289 640 243.5 592.5Q198 545 198 459V444H397V382H198V320H397V258Z" glyph-name="Euro" horiz-adv-x="664" unicode="&#8364;" /><glyph d="M175 0H97V703H519V631H175V382H495V311H175Z" glyph-name="F" horiz-adv-x="554" unicode="F" /><glyph d="M745 348V0H679V147Q640 70 567.5 29Q495 -12 399 -12Q250 -12 149.5 93.5Q49 199 49 352Q49 504 153 609.5Q257 715 408 715Q526 715 618 648Q710 581 746 472H660Q628 549 560 594.5Q492 640 408 640Q291 640 211 556.5Q131 473 131 352Q131 229 210.5 145Q290 61 408 61Q518 61 588.5 118.5Q659 176 674 283H402V348ZM408 703ZM401 0Z" glyph-name="G" horiz-adv-x="810" unicode="G" /><glyph d="M661 286H401V348H748V336Q748 177 652 82.5Q556 -12 403 -12Q253 -12 151 93.5Q49 199 49 352Q49 504 152.5 609.5Q256 715 408 715Q526 715 619 648Q712 581 747 472H662Q629 549 561 594.5Q493 640 408 640Q291 640 211 556Q131 472 131 352Q131 230 209.5 146.5Q288 63 403 63Q510 63 579 121.5Q648 180 661 286ZM408 703ZM401 0Z" glyph-name="G.alt" horiz-adv-x="798" /><glyph d="M745 348V0H679V147Q640 70 567.5 29Q495 -12 399 -12Q250 -12 149.5 93.5Q49 199 49 352Q49 504 153 609.5Q257 715 408 715Q526 715 618 648Q710 581 746 472H660Q628 549 560 594.5Q492 640 408 640Q291 640 211 556.5Q131 473 131 352Q131 229 210.5 145Q290 61 408 61Q518 61 588.5 118.5Q659 176 674 283H402V348ZM408 703ZM401 0ZM407 758Q347 758 308.5 797.5Q270 837 270 898H326Q326 856 348 831.5Q370 807 407 807Q445 807 467 831.5Q489 856 489 898H545Q545 837 506.5 797.5Q468 758 407 758ZM407 696ZM408 703Z" glyph-name="Gbreve" horiz-adv-x="810" unicode="&#286;" /><glyph d="M661 286H401V348H748V336Q748 177 652 82.5Q556 -12 403 -12Q253 -12 151 93.5Q49 199 49 352Q49 504 152.5 609.5Q256 715 408 715Q526 715 619 648Q712 581 747 472H662Q629 549 561 594.5Q493 640 408 640Q291 640 211 556Q131 472 131 352Q131 230 209.5 146.5Q288 63 403 63Q510 63 579 121.5Q648 180 661 286ZM408 703ZM401 0ZM402 758Q342 758 303.5 797.5Q265 837 265 898H321Q321 856 343 831.5Q365 807 402 807Q440 807 462 831.5Q484 856 484 898H540Q540 837 501.5 797.5Q463 758 402 758ZM402 696ZM403 703Z" glyph-name="Gbreve.alt" horiz-adv-x="798" /><glyph d="M262 766 374 910H441L554 766H486L408 866L329 766ZM408 697ZM408 703ZM745 348V0H679V147Q640 70 567.5 29Q495 -12 399 -12Q250 -12 149.5 93.5Q49 199 49 352Q49 504 153 609.5Q257 715 408 715Q526 715 618 648Q710 581 746 472H660Q628 549 560 594.5Q492 640 408 640Q291 640 211 556.5Q131 473 131 352Q131 229 210.5 145Q290 61 408 61Q518 61 588.5 118.5Q659 176 674 283H402V348ZM408 703ZM401 0Z" glyph-name="Gcircumflex" horiz-adv-x="810" unicode="&#284;" /><glyph d="M256 766 368 910H435L548 766H480L402 866L323 766ZM402 697ZM402 703ZM661 286H401V348H748V336Q748 177 652 82.5Q556 -12 403 -12Q253 -12 151 93.5Q49 199 49 352Q49 504 152.5 609.5Q256 715 408 715Q526 715 619 648Q712 581 747 472H662Q629 549 561 594.5Q493 640 408 640Q291 640 211 556Q131 472 131 352Q131 230 209.5 146.5Q288 63 403 63Q510 63 579 121.5Q648 180 661 286ZM408 703ZM401 0Z" glyph-name="Gcircumflex.alt" horiz-adv-x="798" /><glyph d="M461 833Q461 812 445.5 797Q430 782 409 782Q387 782 372 797Q357 812 357 833Q357 855 372 870.5Q387 886 409 886Q430 886 445.5 870.5Q461 855 461 833ZM409 695ZM409 703ZM745 348V0H679V147Q640 70 567.5 29Q495 -12 399 -12Q250 -12 149.5 93.5Q49 199 49 352Q49 504 153 609.5Q257 715 408 715Q526 715 618 648Q710 581 746 472H660Q628 549 560 594.5Q492 640 408 640Q291 640 211 556.5Q131 473 131 352Q131 229 210.5 145Q290 61 408 61Q518 61 588.5 118.5Q659 176 674 283H402V348ZM408 703ZM401 0Z" glyph-name="Gdotaccent" horiz-adv-x="810" unicode="&#288;" /><glyph d="M453 833Q453 812 437.5 797Q422 782 401 782Q379 782 364 797Q349 812 349 833Q349 855 364 870.5Q379 886 401 886Q422 886 437.5 870.5Q453 855 453 833ZM401 695ZM401 703ZM661 286H401V348H748V336Q748 177 652 82.5Q556 -12 403 -12Q253 -12 151 93.5Q49 199 49 352Q49 504 152.5 609.5Q256 715 408 715Q526 715 619 648Q712 581 747 472H662Q629 549 561 594.5Q493 640 408 640Q291 640 211 556Q131 472 131 352Q131 230 209.5 146.5Q288 63 403 63Q510 63 579 121.5Q648 180 661 286ZM408 703ZM401 0Z" glyph-name="Gdotaccent.alt" horiz-adv-x="798" /><glyph d="M175 0H97V703H175V399H534V703H612V0H534V324H175ZM355 703Z" glyph-name="H" horiz-adv-x="709" unicode="H" /><glyph d="M183 0H105V509H28V573H105V703H183V573H542V703H620V573H697V509H620V0H542V324H183ZM183 509V399H542V509Z" glyph-name="Hbar" horiz-adv-x="725" unicode="&#294;" /><glyph d="M175 0H97V703H175V399H534V703H612V0H534V324H175ZM355 703ZM209 766 321 910H388L501 766H433L355 866L276 766ZM355 697ZM355 703Z" glyph-name="Hcircumflex" horiz-adv-x="709" unicode="&#292;" /><glyph d="M175 0H97V703H175ZM136 703ZM116 0Z" glyph-name="I" horiz-adv-x="272" unicode="I" /><glyph d="M175 0H97V703H175ZM136 703ZM116 0ZM678 703H756V216Q756 115 691 51.5Q626 -12 525 -12Q425 -12 360.5 52Q296 116 296 217H375Q375 147 416.5 104.5Q458 62 525 62Q593 62 635.5 105Q678 148 678 218ZM717 703Z" glyph-name="IJ" horiz-adv-x="846" unicode="&#306;" /><glyph d="M175 0H97V703H175ZM136 703ZM116 0ZM173 766H101L181 910H254ZM136 697ZM136 703Z" glyph-name="Iacute" horiz-adv-x="272" unicode="&#205;" /><glyph d="M175 0H97V703H175ZM136 703ZM116 0ZM-10 766 102 910H169L282 766H214L136 866L57 766ZM136 697ZM136 703Z" glyph-name="Icircumflex" horiz-adv-x="272" unicode="&#206;" /><glyph d="M175 0H97V703H175ZM136 703ZM116 0ZM115 830Q115 810 102 796.5Q89 783 69 783Q49 783 35.5 796.5Q22 810 22 830Q22 849 35.5 862.5Q49 876 69 876Q89 876 102 863Q115 850 115 830ZM253 830Q253 810 239 796.5Q225 783 206 783Q186 783 172.5 796.5Q159 810 159 830Q159 850 172.5 863Q186 876 206 876Q225 876 239 862.5Q253 849 253 830ZM137 695ZM136 703Z" glyph-name="Idieresis" horiz-adv-x="272" unicode="&#207;" /><glyph d="M175 0H97V703H175ZM136 703ZM116 0ZM189 833Q189 812 173.5 797Q158 782 137 782Q115 782 100 797Q85 812 85 833Q85 855 100 870.5Q115 886 137 886Q158 886 173.5 870.5Q189 855 189 833ZM137 695ZM137 703Z" glyph-name="Idotaccent" horiz-adv-x="272" unicode="&#304;" /><glyph d="M175 0H97V703H175ZM136 703ZM116 0ZM100 766H172L92 910H19ZM136 697ZM136 703Z" glyph-name="Igrave" horiz-adv-x="272" unicode="&#204;" /><glyph d="M175 0H97V703H175ZM136 703ZM116 0ZM269 796H6V849H269ZM137 695ZM136 703Z" glyph-name="Imacron" horiz-adv-x="272" unicode="&#298;" /><glyph d="M165 -179V-232Q151 -241 136 -245.5Q121 -250 104 -250Q63 -250 35 -224.5Q7 -199 7 -161Q7 -127 24.5 -94.5Q42 -62 97 1V703H175V0H161Q111 -57 91 -89Q71 -121 71 -145Q71 -168 83.5 -179.5Q96 -191 119 -191Q130 -191 142 -188Q154 -185 165 -179Z" glyph-name="Iogonek" horiz-adv-x="272" unicode="&#302;" /><glyph d="M175 0H97V703H175ZM136 703ZM116 0ZM161 850Q176 835 184 830.5Q192 826 200 826Q215 826 223 839Q231 852 236 885H287Q282 827 261 799.5Q240 772 200 772Q180 772 164.5 779.5Q149 787 128 809Q112 825 103 830Q94 835 84 835Q64 835 53 819.5Q42 804 38 772H-13Q-9 830 16 859.5Q41 889 85 889Q104 889 120.5 881.5Q137 874 161 850ZM137 692ZM136 703Z" glyph-name="Itilde" horiz-adv-x="272" unicode="&#296;" /><glyph d="M406 703H484V216Q484 115 419 51.5Q354 -12 253 -12Q153 -12 88.5 52Q24 116 24 217H103Q103 147 144.5 104.5Q186 62 253 62Q321 62 363.5 105Q406 148 406 218ZM445 703Z" glyph-name="J" horiz-adv-x="574" unicode="J" /><glyph d="M406 703H484V216Q484 115 419 51.5Q354 -12 253 -12Q153 -12 88.5 52Q24 116 24 217H103Q103 147 144.5 104.5Q186 62 253 62Q321 62 363.5 105Q406 148 406 218ZM445 703ZM299 766 411 910H478L591 766H523L445 866L366 766ZM445 697ZM445 703Z" glyph-name="Jcircumflex" horiz-adv-x="574" unicode="&#308;" /><glyph d="M97 703H175V372L480 703H575L259 360L579 0H476L175 339V0H97ZM327 0Z" glyph-name="K" horiz-adv-x="583" unicode="K" /><glyph d="M505 0H97V703H175V72H505ZM136 703ZM263 703ZM338 364ZM301 0Z" glyph-name="L" horiz-adv-x="523" unicode="L" /><glyph d="M173 766H101L181 910H254ZM136 697ZM136 703ZM505 0H97V703H175V72H505ZM136 703ZM263 703ZM338 364ZM301 0Z" glyph-name="Lacute" horiz-adv-x="523" unicode="&#313;" /><glyph d="M358 662 315 540H266L307 651Q288 653 276 667.5Q264 682 264 701Q264 723 279 738Q294 753 316 753Q338 753 353 738Q368 723 368 701Q368 694 366 686Q364 678 358 662ZM264 703ZM505 0H97V703H175V72H505ZM136 703ZM263 703ZM338 364ZM301 0Z" glyph-name="Lcaron" horiz-adv-x="525" unicode="&#317;" /><glyph d="M505 0H97V703H175V72H505ZM136 703ZM263 703ZM338 364ZM301 0ZM459 363Q459 338 441.5 320.5Q424 303 398 303Q373 303 355.5 320.5Q338 338 338 363Q338 389 355 406Q372 423 398 423Q424 423 441.5 406Q459 389 459 363ZM338 364Z" glyph-name="Ldot" horiz-adv-x="529" unicode="&#319;" /><glyph d="M505 0H97V703H175V72H505ZM136 703ZM263 703ZM338 364ZM301 0ZM459 363Q459 338 441.5 320.5Q424 303 398 303Q373 303 355.5 320.5Q338 338 338 363Q338 389 355 406Q372 423 398 423Q424 423 441.5 406Q459 389 459 363ZM338 364ZM1029 0H621V703H699V72H1029ZM660 703ZM787 703ZM862 364ZM825 0Z" glyph-name="Lgeminada" horiz-adv-x="1047" /><glyph d="M527 0H119V257L41 212V288L119 333V703H197V378L354 469V393L197 302V72H527Z" glyph-name="Lslash" horiz-adv-x="546" unicode="&#321;" /><glyph d="M173 0H97V703H191L459 129L727 703H818V0H742V568L474 -1H441L173 571Z" glyph-name="M" horiz-adv-x="915" unicode="M" /><glyph d="M171 0H97V703H173L538 130V703H612V0H536L171 573ZM355 703ZM353 0Z" glyph-name="N" horiz-adv-x="709" unicode="N" /><glyph glyph-name="NULL" horiz-adv-x="0" /><glyph d="M392 766H320L400 910H473ZM355 697ZM355 703ZM171 0H97V703H173L538 130V703H612V0H536L171 573ZM355 703ZM353 0Z" glyph-name="Nacute" horiz-adv-x="709" unicode="&#323;" /><glyph d="M171 0H97V703H173L538 130V703H612V0H536L171 573ZM355 703ZM353 0ZM208 910 320 766H387L500 910H432L354 810L275 910ZM354 979ZM354 697ZM356 703Z" glyph-name="Ncaron" horiz-adv-x="709" unicode="&#327;" /><glyph d="M380 850Q395 835 403 830.5Q411 826 419 826Q434 826 442 839Q450 852 455 885H506Q501 827 480 799.5Q459 772 419 772Q399 772 383.5 779.5Q368 787 347 809Q331 825 322 830Q313 835 303 835Q283 835 272 819.5Q261 804 257 772H206Q210 830 235 859.5Q260 889 304 889Q323 889 339.5 881.5Q356 874 380 850ZM356 692ZM355 703ZM171 0H97V703H173L538 130V703H612V0H536L171 573ZM355 703ZM353 0Z" glyph-name="Ntilde" horiz-adv-x="709" unicode="&#209;" /><glyph d="M701 352Q701 472 618 556Q535 640 415 640Q295 640 212.5 556.5Q130 473 130 352Q130 230 212 146.5Q294 63 415 63Q536 63 618.5 146.5Q701 230 701 352ZM48 352Q48 504 154 609.5Q260 715 415 715Q571 715 677 609.5Q783 504 783 352Q783 199 677 93.5Q571 -12 415 -12Q259 -12 153.5 93.5Q48 199 48 352ZM416 703Z" glyph-name="O" horiz-adv-x="831" unicode="O" /><glyph d="M1128 0H701V140Q651 68 574 28Q497 -12 407 -12Q259 -12 153.5 95Q48 202 48 352Q48 502 153.5 608.5Q259 715 407 715Q497 715 574 675Q651 635 701 563V703H1123V631H779V393H1099V324H779V72H1128ZM701 352Q701 472 618 556Q535 640 415 640Q295 640 212.5 556.5Q130 473 130 352Q130 230 212 146.5Q294 63 415 63Q536 63 618.5 146.5Q701 230 701 352Z" glyph-name="OE" horiz-adv-x="1183" unicode="&#338;" /><glyph d="M453 766H381L461 910H534ZM416 697ZM416 703ZM701 352Q701 472 618 556Q535 640 415 640Q295 640 212.5 556.5Q130 473 130 352Q130 230 212 146.5Q294 63 415 63Q536 63 618.5 146.5Q701 230 701 352ZM48 352Q48 504 154 609.5Q260 715 415 715Q571 715 677 609.5Q783 504 783 352Q783 199 677 93.5Q571 -12 415 -12Q259 -12 153.5 93.5Q48 199 48 352ZM416 703Z" glyph-name="Oacute" horiz-adv-x="831" unicode="&#211;" /><glyph d="M701 352Q701 472 618 556Q535 640 415 640Q295 640 212.5 556.5Q130 473 130 352Q130 230 212 146.5Q294 63 415 63Q536 63 618.5 146.5Q701 230 701 352ZM48 352Q48 504 154 609.5Q260 715 415 715Q571 715 677 609.5Q783 504 783 352Q783 199 677 93.5Q571 -12 415 -12Q259 -12 153.5 93.5Q48 199 48 352ZM416 703ZM415 758Q355 758 316.5 797.5Q278 837 278 898H334Q334 856 356 831.5Q378 807 415 807Q453 807 475 831.5Q497 856 497 898H553Q553 837 514.5 797.5Q476 758 415 758ZM415 696ZM416 703Z" glyph-name="Obreve" horiz-adv-x="831" unicode="&#334;" /><glyph d="M270 766 382 910H449L562 766H494L416 866L337 766ZM416 697ZM416 703ZM701 352Q701 472 618 556Q535 640 415 640Q295 640 212.5 556.5Q130 473 130 352Q130 230 212 146.5Q294 63 415 63Q536 63 618.5 146.5Q701 230 701 352ZM48 352Q48 504 154 609.5Q260 715 415 715Q571 715 677 609.5Q783 504 783 352Q783 199 677 93.5Q571 -12 415 -12Q259 -12 153.5 93.5Q48 199 48 352ZM416 703Z" glyph-name="Ocircumflex" horiz-adv-x="831" unicode="&#212;" /><glyph d="M701 352Q701 472 618 556Q535 640 415 640Q295 640 212.5 556.5Q130 473 130 352Q130 230 212 146.5Q294 63 415 63Q536 63 618.5 146.5Q701 230 701 352ZM48 352Q48 504 154 609.5Q260 715 415 715Q571 715 677 609.5Q783 504 783 352Q783 199 677 93.5Q571 -12 415 -12Q259 -12 153.5 93.5Q48 199 48 352ZM416 703ZM394 830Q394 810 381 796.5Q368 783 348 783Q328 783 314.5 796.5Q301 810 301 830Q301 849 314.5 862.5Q328 876 348 876Q368 876 381 863Q394 850 394 830ZM532 830Q532 810 518 796.5Q504 783 485 783Q465 783 451.5 796.5Q438 810 438 830Q438 850 451.5 863Q465 876 485 876Q504 876 518 862.5Q532 849 532 830ZM416 695ZM415 703Z" glyph-name="Odieresis" horiz-adv-x="831" unicode="&#214;" /><glyph d="M379 766H451L371 910H298ZM415 697ZM415 703ZM701 352Q701 472 618 556Q535 640 415 640Q295 640 212.5 556.5Q130 473 130 352Q130 230 212 146.5Q294 63 415 63Q536 63 618.5 146.5Q701 230 701 352ZM48 352Q48 504 154 609.5Q260 715 415 715Q571 715 677 609.5Q783 504 783 352Q783 199 677 93.5Q571 -12 415 -12Q259 -12 153.5 93.5Q48 199 48 352ZM416 703Z" glyph-name="Ograve" horiz-adv-x="831" unicode="&#210;" /><glyph d="M399 910 327 766H395L468 910ZM509 910 436 766H505L578 910ZM416 697ZM415 703ZM701 352Q701 472 618 556Q535 640 415 640Q295 640 212.5 556.5Q130 473 130 352Q130 230 212 146.5Q294 63 415 63Q536 63 618.5 146.5Q701 230 701 352ZM48 352Q48 504 154 609.5Q260 715 415 715Q571 715 677 609.5Q783 504 783 352Q783 199 677 93.5Q571 -12 415 -12Q259 -12 153.5 93.5Q48 199 48 352ZM416 703Z" glyph-name="Ohungarumlaut" horiz-adv-x="831" unicode="&#336;" /><glyph d="M701 352Q701 472 618 556Q535 640 415 640Q295 640 212.5 556.5Q130 473 130 352Q130 230 212 146.5Q294 63 415 63Q536 63 618.5 146.5Q701 230 701 352ZM48 352Q48 504 154 609.5Q260 715 415 715Q571 715 677 609.5Q783 504 783 352Q783 199 677 93.5Q571 -12 415 -12Q259 -12 153.5 93.5Q48 199 48 352ZM416 703ZM548 796H285V849H548ZM416 695ZM415 703Z" glyph-name="Omacron" horiz-adv-x="831" unicode="&#332;" /><glyph d="M347 0H64V71H251Q154 130 105 207Q56 284 56 377Q56 519 158.5 617Q261 715 410 715Q561 715 663.5 617Q766 519 766 377Q766 283 716.5 206Q667 129 571 71H758V0H475V89Q578 137 632 209.5Q686 282 686 374Q686 485 606 562.5Q526 640 410 640Q295 640 215.5 562Q136 484 136 374Q136 281 189.5 208.5Q243 136 347 89Z" glyph-name="Omega" horiz-adv-x="822" unicode="&#8486;" /><glyph d="M207 51 136 -32H51L156 93Q105 144 77.5 211Q50 278 50 352Q50 504 156 609.5Q262 715 417 715Q474 715 528 698.5Q582 682 628 651L699 735H784L679 609Q730 558 757.5 491.5Q785 425 785 352Q785 199 679 93.5Q573 -12 417 -12Q359 -12 305.5 4Q252 20 207 51ZM417 640Q297 640 214.5 556.5Q132 473 132 352Q132 296 151.5 244.5Q171 193 208 152L580 590Q543 615 502 627.5Q461 640 417 640ZM417 63Q538 63 620.5 146.5Q703 230 703 352Q703 407 683.5 458.5Q664 510 627 550L256 112Q291 88 332 75.5Q373 63 417 63Z" glyph-name="Oslash" horiz-adv-x="834" unicode="&#216;" /><glyph d="M701 352Q701 472 618 556Q535 640 415 640Q295 640 212.5 556.5Q130 473 130 352Q130 230 212 146.5Q294 63 415 63Q536 63 618.5 146.5Q701 230 701 352ZM48 352Q48 504 154 609.5Q260 715 415 715Q571 715 677 609.5Q783 504 783 352Q783 199 677 93.5Q571 -12 415 -12Q259 -12 153.5 93.5Q48 199 48 352ZM416 703ZM440 850Q455 835 463 830.5Q471 826 479 826Q494 826 502 839Q510 852 515 885H566Q561 827 540 799.5Q519 772 479 772Q459 772 443.5 779.5Q428 787 407 809Q391 825 382 830Q373 835 363 835Q343 835 332 819.5Q321 804 317 772H266Q270 830 295 859.5Q320 889 364 889Q383 889 399.5 881.5Q416 874 440 850ZM416 692ZM415 703Z" glyph-name="Otilde" horiz-adv-x="831" unicode="&#213;" /><glyph d="M175 0H97V703H339Q457 703 531 644Q605 585 605 485Q605 382 531 321Q457 260 339 260H175ZM336 633H175V329H336Q419 329 471 371.5Q523 414 523 485Q523 553 471 593Q419 633 336 633Z" glyph-name="P" horiz-adv-x="636" unicode="P" /><glyph d="M48 352Q48 504 154 609.5Q260 715 415 715Q571 715 677 609.5Q783 504 783 352Q783 270 749 197Q715 124 654 73L775 -80H688L597 34Q556 11 509.5 -0.5Q463 -12 415 -12Q259 -12 153.5 93.5Q48 199 48 352ZM550 94 346 351H432L606 133Q652 174 676.5 231Q701 288 701 352Q701 472 618 556Q535 640 415 640Q295 640 212.5 556.5Q130 473 130 352Q130 230 212 146Q294 62 415 62Q450 62 484 70Q518 78 550 94Z" glyph-name="Q" horiz-adv-x="832" unicode="Q" /><glyph d="M175 0H97V703H340Q455 703 527 647Q599 591 599 497Q599 406 536 348.5Q473 291 370 283L632 0H530L272 282H175ZM337 634H175V347H337Q417 347 467.5 387Q518 427 518 495Q518 559 467.5 596.5Q417 634 337 634ZM333 703ZM353 0Z" glyph-name="R" horiz-adv-x="659" unicode="R" /><glyph d="M175 0H97V703H340Q455 703 527 647Q599 591 599 497Q599 406 536 348.5Q473 291 370 283L632 0H530L272 282H175ZM337 634H175V347H337Q417 347 467.5 387Q518 427 518 495Q518 559 467.5 596.5Q417 634 337 634ZM333 703ZM353 0ZM370 766H298L378 910H451ZM333 697ZM333 703Z" glyph-name="Racute" horiz-adv-x="659" unicode="&#340;" /><glyph d="M175 0H97V703H340Q455 703 527 647Q599 591 599 497Q599 406 536 348.5Q473 291 370 283L632 0H530L272 282H175ZM337 634H175V347H337Q417 347 467.5 387Q518 427 518 495Q518 559 467.5 596.5Q417 634 337 634ZM333 703ZM353 0ZM186 910 298 766H365L478 910H410L332 810L253 910ZM332 979ZM332 697ZM334 703Z" glyph-name="Rcaron" horiz-adv-x="659" unicode="&#344;" /><glyph d="M295 715Q404 715 468 658Q532 601 539 496H459Q453 569 410.5 607Q368 645 294 645Q228 645 187 614Q146 583 146 532Q146 487 172 459.5Q198 432 273 411L362 386Q469 356 511 312Q553 268 553 197Q553 100 487.5 44Q422 -12 312 -12Q190 -12 120.5 50Q51 112 47 227H126Q130 145 177.5 101.5Q225 58 310 58Q387 58 430 93Q473 128 473 192Q473 237 444 265Q415 293 328 318L254 339Q147 369 107 413Q67 457 67 528Q67 611 131.5 663Q196 715 295 715ZM295 703ZM311 10ZM311 0Z" glyph-name="S" horiz-adv-x="604" unicode="S" /><glyph d="M295 715Q404 715 468 658Q532 601 539 496H459Q453 569 410.5 607Q368 645 294 645Q228 645 187 614Q146 583 146 532Q146 487 172 459.5Q198 432 273 411L362 386Q469 356 511 312Q553 268 553 197Q553 100 487.5 44Q422 -12 312 -12Q190 -12 120.5 50Q51 112 47 227H126Q130 145 177.5 101.5Q225 58 310 58Q387 58 430 93Q473 128 473 192Q473 237 444 265Q415 293 328 318L254 339Q147 369 107 413Q67 457 67 528Q67 611 131.5 663Q196 715 295 715ZM295 703ZM311 10ZM311 0ZM332 766H260L340 910H413ZM295 697ZM295 703Z" glyph-name="Sacute" horiz-adv-x="604" unicode="&#346;" /><glyph d="M295 715Q404 715 468 658Q532 601 539 496H459Q453 569 410.5 607Q368 645 294 645Q228 645 187 614Q146 583 146 532Q146 487 172 459.5Q198 432 273 411L362 386Q469 356 511 312Q553 268 553 197Q553 100 487.5 44Q422 -12 312 -12Q190 -12 120.5 50Q51 112 47 227H126Q130 145 177.5 101.5Q225 58 310 58Q387 58 430 93Q473 128 473 192Q473 237 444 265Q415 293 328 318L254 339Q147 369 107 413Q67 457 67 528Q67 611 131.5 663Q196 715 295 715ZM295 703ZM311 10ZM311 0ZM148 910 260 766H327L440 910H372L294 810L215 910ZM294 979ZM294 697ZM296 703Z" glyph-name="Scaron" horiz-adv-x="604" unicode="&#352;" /><glyph d="M295 715Q404 715 468 658Q532 601 539 496H459Q453 569 410.5 607Q368 645 294 645Q228 645 187 614Q146 583 146 532Q146 486 172 459Q198 432 273 411L362 386Q468 357 510.5 312.5Q553 268 553 197Q553 105 494.5 50Q436 -5 335 -11L308 -56Q310 -55 312 -55Q314 -55 319 -55Q364 -55 392.5 -82.5Q421 -110 421 -152Q421 -194 390.5 -222Q360 -250 315 -250Q270 -250 240.5 -224.5Q211 -199 209 -157H266Q267 -176 281 -188Q295 -200 315 -200Q335 -200 349 -186Q363 -172 363 -152Q363 -131 349.5 -117.5Q336 -104 315 -104Q301 -104 290.5 -108.5Q280 -113 269 -125L224 -100L279 -11Q171 -2 111 59Q51 120 47 227H126Q130 145 177.5 101.5Q225 58 310 58Q387 58 430 93Q473 128 473 192Q473 237 444 265Q415 293 328 318L254 339Q148 369 107.5 412.5Q67 456 67 528Q67 611 131.5 663Q196 715 295 715Z" glyph-name="Scedilla" horiz-adv-x="604" unicode="&#350;" /><glyph d="M295 715Q404 715 468 658Q532 601 539 496H459Q453 569 410.5 607Q368 645 294 645Q228 645 187 614Q146 583 146 532Q146 487 172 459.5Q198 432 273 411L362 386Q469 356 511 312Q553 268 553 197Q553 100 487.5 44Q422 -12 312 -12Q190 -12 120.5 50Q51 112 47 227H126Q130 145 177.5 101.5Q225 58 310 58Q387 58 430 93Q473 128 473 192Q473 237 444 265Q415 293 328 318L254 339Q147 369 107 413Q67 457 67 528Q67 611 131.5 663Q196 715 295 715ZM295 703ZM311 10ZM311 0ZM150 766 262 910H329L442 766H374L296 866L217 766ZM296 697ZM296 703Z" glyph-name="Scircumflex" horiz-adv-x="604" unicode="&#348;" /><glyph d="M306 0H228V631H17V703H518V631H306ZM267 703ZM267 10ZM267 0Z" glyph-name="T" horiz-adv-x="535" unicode="T" /><glyph d="M322 0H244V339H85V405H244V631H33V703H534V631H322V405H479V339H322Z" glyph-name="Tbar" horiz-adv-x="566" unicode="&#358;" /><glyph d="M306 0H228V631H17V703H518V631H306ZM267 703ZM267 10ZM267 0ZM119 910 231 766H298L411 910H343L265 810L186 910ZM265 979ZM265 697ZM267 703Z" glyph-name="Tcaron" horiz-adv-x="535" unicode="&#356;" /><glyph d="M97 703H175V574H339Q457 574 531 515Q605 456 605 357Q605 253 531 191.5Q457 130 339 130H175V0H97ZM336 504H175V200H336Q419 200 471 242Q523 284 523 356Q523 424 471 464Q419 504 336 504Z" glyph-name="Thorn" horiz-adv-x="648" unicode="&#222;" /><glyph d="M517 703H595V229Q595 123 523.5 55.5Q452 -12 342 -12Q232 -12 161 55.5Q90 123 90 229V703H168V231Q168 157 216 110Q264 63 340 63Q419 63 468 109.5Q517 156 517 231ZM343 703ZM396 0Z" glyph-name="U" horiz-adv-x="685" unicode="U" /><glyph d="M517 703H595V229Q595 123 523.5 55.5Q452 -12 342 -12Q232 -12 161 55.5Q90 123 90 229V703H168V231Q168 157 216 110Q264 63 340 63Q419 63 468 109.5Q517 156 517 231ZM343 703ZM396 0ZM380 766H308L388 910H461ZM343 697ZM343 703Z" glyph-name="Uacute" horiz-adv-x="685" unicode="&#218;" /><glyph d="M517 703H595V229Q595 123 523.5 55.5Q452 -12 342 -12Q232 -12 161 55.5Q90 123 90 229V703H168V231Q168 157 216 110Q264 63 340 63Q419 63 468 109.5Q517 156 517 231ZM343 703ZM396 0ZM342 758Q282 758 243.5 797.5Q205 837 205 898H261Q261 856 283 831.5Q305 807 342 807Q380 807 402 831.5Q424 856 424 898H480Q480 837 441.5 797.5Q403 758 342 758ZM342 696ZM343 703Z" glyph-name="Ubreve" horiz-adv-x="685" unicode="&#364;" /><glyph d="M196 766 308 910H375L488 766H420L342 866L263 766ZM342 697ZM342 703ZM517 703H595V229Q595 123 523.5 55.5Q452 -12 342 -12Q232 -12 161 55.5Q90 123 90 229V703H168V231Q168 157 216 110Q264 63 340 63Q419 63 468 109.5Q517 156 517 231ZM343 703ZM396 0Z" glyph-name="Ucircumflex" horiz-adv-x="685" unicode="&#219;" /><glyph d="M517 703H595V229Q595 123 523.5 55.5Q452 -12 342 -12Q232 -12 161 55.5Q90 123 90 229V703H168V231Q168 157 216 110Q264 63 340 63Q419 63 468 109.5Q517 156 517 231ZM343 703ZM396 0ZM322 830Q322 810 309 796.5Q296 783 276 783Q256 783 242.5 796.5Q229 810 229 830Q229 849 242.5 862.5Q256 876 276 876Q296 876 309 863Q322 850 322 830ZM460 830Q460 810 446 796.5Q432 783 413 783Q393 783 379.5 796.5Q366 810 366 830Q366 850 379.5 863Q393 876 413 876Q432 876 446 862.5Q460 849 460 830ZM344 695ZM343 703Z" glyph-name="Udieresis" horiz-adv-x="685" unicode="&#220;" /><glyph d="M307 766H379L299 910H226ZM343 697ZM343 703ZM517 703H595V229Q595 123 523.5 55.5Q452 -12 342 -12Q232 -12 161 55.5Q90 123 90 229V703H168V231Q168 157 216 110Q264 63 340 63Q419 63 468 109.5Q517 156 517 231ZM343 703ZM396 0Z" glyph-name="Ugrave" horiz-adv-x="685" unicode="&#217;" /><glyph d="M326 910 254 766H322L395 910ZM436 910 363 766H432L505 910ZM343 697ZM342 703ZM517 703H595V229Q595 123 523.5 55.5Q452 -12 342 -12Q232 -12 161 55.5Q90 123 90 229V703H168V231Q168 157 216 110Q264 63 340 63Q419 63 468 109.5Q517 156 517 231ZM343 703ZM396 0Z" glyph-name="Uhungarumlaut" horiz-adv-x="685" unicode="&#368;" /><glyph d="M517 703H595V229Q595 123 523.5 55.5Q452 -12 342 -12Q232 -12 161 55.5Q90 123 90 229V703H168V231Q168 157 216 110Q264 63 340 63Q419 63 468 109.5Q517 156 517 231ZM343 703ZM396 0ZM474 796H211V849H474ZM342 695ZM341 703Z" glyph-name="Umacron" horiz-adv-x="685" unicode="&#362;" /><glyph d="M517 703H595V229Q595 178 577.5 135Q560 92 525 57Q463 -5 432.5 -54.5Q402 -104 402 -143Q402 -167 414 -179Q426 -191 450 -191Q461 -191 473.5 -188Q486 -185 496 -179V-232Q482 -241 467 -245.5Q452 -250 435 -250Q394 -250 366 -224.5Q338 -199 338 -159Q338 -121 354 -85.5Q370 -50 409 -3Q390 -8 373.5 -10Q357 -12 342 -12Q232 -12 161 55.5Q90 123 90 229V703H168V231Q168 157 216 110Q264 63 340 63Q419 63 468 109.5Q517 156 517 231Z" glyph-name="Uogonek" horiz-adv-x="685" unicode="&#370;" /><glyph d="M438 851Q438 812 410 785Q382 758 342 758Q302 758 274 785Q246 812 246 851Q246 889 274 916.5Q302 944 342 944Q381 944 409.5 916.5Q438 889 438 851ZM293 851Q293 831 307.5 816Q322 801 342 801Q362 801 377 816Q392 831 392 851Q392 871 377 886Q362 901 342 901Q322 901 307.5 886Q293 871 293 851ZM342 696ZM342 703ZM517 703H595V229Q595 123 523.5 55.5Q452 -12 342 -12Q232 -12 161 55.5Q90 123 90 229V703H168V231Q168 157 216 110Q264 63 340 63Q419 63 468 109.5Q517 156 517 231ZM343 703ZM396 0Z" glyph-name="Uring" horiz-adv-x="685" unicode="&#366;" /><glyph d="M517 703H595V229Q595 123 523.5 55.5Q452 -12 342 -12Q232 -12 161 55.5Q90 123 90 229V703H168V231Q168 157 216 110Q264 63 340 63Q419 63 468 109.5Q517 156 517 231ZM343 703ZM396 0ZM367 850Q382 835 390 830.5Q398 826 406 826Q421 826 429 839Q437 852 442 885H493Q488 827 467 799.5Q446 772 406 772Q386 772 370.5 779.5Q355 787 334 809Q318 825 309 830Q300 835 290 835Q270 835 259 819.5Q248 804 244 772H193Q197 830 222 859.5Q247 889 291 889Q310 889 326.5 881.5Q343 874 367 850ZM343 692ZM342 703Z" glyph-name="Utilde" horiz-adv-x="685" unicode="&#360;" /><glyph d="M361 0H278L24 703H111L321 105L532 703H615Z" glyph-name="V" horiz-adv-x="639" unicode="V" /><glyph d="M318 0H234L27 703H111L280 111L456 703H529L702 116L872 703H953L744 0H661L490 566ZM492 703Z" glyph-name="W" horiz-adv-x="978" unicode="W" /><glyph d="M529 766H457L537 910H610ZM492 697ZM492 703ZM318 0H234L27 703H111L280 111L456 703H529L702 116L872 703H953L744 0H661L490 566ZM492 703Z" glyph-name="Wacute" horiz-adv-x="978" unicode="&#7810;" /><glyph d="M345 766 457 910H524L637 766H569L491 866L412 766ZM491 697ZM491 703ZM318 0H234L27 703H111L280 111L456 703H529L702 116L872 703H953L744 0H661L490 566ZM492 703Z" glyph-name="Wcircumflex" horiz-adv-x="978" unicode="&#372;" /><glyph d="M318 0H234L27 703H111L280 111L456 703H529L702 116L872 703H953L744 0H661L490 566ZM492 703ZM471 830Q471 810 458 796.5Q445 783 425 783Q405 783 391.5 796.5Q378 810 378 830Q378 849 391.5 862.5Q405 876 425 876Q445 876 458 863Q471 850 471 830ZM609 830Q609 810 595 796.5Q581 783 562 783Q542 783 528.5 796.5Q515 810 515 830Q515 850 528.5 863Q542 876 562 876Q581 876 595 862.5Q609 849 609 830ZM493 695ZM492 703Z" glyph-name="Wdieresis" horiz-adv-x="978" unicode="&#7812;" /><glyph d="M456 766H528L448 910H375ZM492 697ZM492 703ZM318 0H234L27 703H111L280 111L456 703H529L702 116L872 703H953L744 0H661L490 566ZM492 703Z" glyph-name="Wgrave" horiz-adv-x="978" unicode="&#7808;" /><glyph d="M100 0H10L273 355L17 703H109L321 414L536 703H624L368 357L635 0H541L320 296Z" glyph-name="X" horiz-adv-x="643" unicode="X" /><glyph d="M350 0H272V262L26 703H114L312 342L512 703H595L350 266ZM316 703Z" glyph-name="Y" horiz-adv-x="621" unicode="Y" /><glyph d="M350 0H272V262L26 703H114L312 342L512 703H595L350 266ZM316 703ZM353 766H281L361 910H434ZM316 697ZM316 703Z" glyph-name="Yacute" horiz-adv-x="621" unicode="&#221;" /><glyph d="M350 0H272V262L26 703H114L312 342L512 703H595L350 266ZM316 703ZM170 766 282 910H349L462 766H394L316 866L237 766ZM316 697ZM316 703Z" glyph-name="Ycircumflex" horiz-adv-x="621" unicode="&#374;" /><glyph d="M350 0H272V262L26 703H114L312 342L512 703H595L350 266ZM316 703ZM295 830Q295 810 282 796.5Q269 783 249 783Q229 783 215.5 796.5Q202 810 202 830Q202 849 215.5 862.5Q229 876 249 876Q269 876 282 863Q295 850 295 830ZM433 830Q433 810 419 796.5Q405 783 386 783Q366 783 352.5 796.5Q339 810 339 830Q339 850 352.5 863Q366 876 386 876Q405 876 419 862.5Q433 849 433 830ZM317 695ZM316 703Z" glyph-name="Ydieresis" horiz-adv-x="621" unicode="&#376;" /><glyph d="M350 0H272V262L26 703H114L312 342L512 703H595L350 266ZM316 703ZM281 766H353L273 910H200ZM317 697ZM317 703Z" glyph-name="Ygrave" horiz-adv-x="621" unicode="&#7922;" /><glyph d="M526 0H39V64L427 631H43V703H522V636L134 72H526ZM282 703Z" glyph-name="Z" horiz-adv-x="564" unicode="Z" /><glyph d="M526 0H39V64L427 631H43V703H522V636L134 72H526ZM282 703ZM320 766H248L328 910H401ZM283 697ZM283 703Z" glyph-name="Zacute" horiz-adv-x="564" unicode="&#377;" /><glyph d="M526 0H39V64L427 631H43V703H522V636L134 72H526ZM282 703ZM135 910 247 766H314L427 910H359L281 810L202 910ZM281 979ZM281 697ZM283 703Z" glyph-name="Zcaron" horiz-adv-x="564" unicode="&#381;" /><glyph d="M336 833Q336 812 320.5 797Q305 782 284 782Q262 782 247 797Q232 812 232 833Q232 855 247 870.5Q262 886 284 886Q305 886 320.5 870.5Q336 855 336 833ZM284 695ZM284 703ZM526 0H39V64L427 631H43V703H522V636L134 72H526ZM282 703Z" glyph-name="Zdotaccent" horiz-adv-x="564" unicode="&#379;" /><glyph d="M398 0V87Q370 40 323 14Q276 -12 220 -12Q147 -12 100 28Q53 68 53 130Q53 190 91.5 228Q130 266 210 286L396 331V339Q396 390 361 420.5Q326 451 268 451Q215 451 179 422Q143 393 137 347H64Q72 420 129 468Q186 516 269 516Q362 516 415.5 466Q469 416 469 330V0ZM234 51Q302 51 349 101.5Q396 152 396 221V268L229 228Q178 216 152.5 193Q127 170 127 136Q127 96 155.5 73.5Q184 51 234 51ZM268 504ZM417 0Z" glyph-name="a" horiz-adv-x="548" unicode="a" /><glyph d="M299 -12Q190 -12 117 63.5Q44 139 44 251Q44 364 117.5 440Q191 516 301 516Q366 516 420 485.5Q474 455 507 401V504H579V0H507V104Q474 49 419 18.5Q364 -12 299 -12ZM121 252Q121 170 176.5 113.5Q232 57 314 57Q395 57 450.5 113.5Q506 170 506 252Q506 334 450.5 390.5Q395 447 314 447Q232 447 176.5 390.5Q121 334 121 252ZM322 504ZM527 0Z" glyph-name="a.alt" horiz-adv-x="663" /><glyph d="M398 0V87Q370 40 323 14Q276 -12 220 -12Q147 -12 100 28Q53 68 53 130Q53 190 91.5 228Q130 266 210 286L396 331V339Q396 390 361 420.5Q326 451 268 451Q215 451 179 422Q143 393 137 347H64Q72 420 129 468Q186 516 269 516Q362 516 415.5 466Q469 416 469 330V0ZM234 51Q302 51 349 101.5Q396 152 396 221V268L229 228Q178 216 152.5 193Q127 170 127 136Q127 96 155.5 73.5Q184 51 234 51ZM268 504ZM417 0ZM304 573H232L312 717H385ZM267 504Z" glyph-name="aacute" horiz-adv-x="547" unicode="&#225;" /><glyph d="M359 573H287L367 717H440ZM322 504ZM299 -12Q190 -12 117 63.5Q44 139 44 251Q44 364 117.5 440Q191 516 301 516Q366 516 420 485.5Q474 455 507 401V504H579V0H507V104Q474 49 419 18.5Q364 -12 299 -12ZM121 252Q121 170 176.5 113.5Q232 57 314 57Q395 57 450.5 113.5Q506 170 506 252Q506 334 450.5 390.5Q395 447 314 447Q232 447 176.5 390.5Q121 334 121 252ZM322 504ZM527 0Z" glyph-name="aacute.alt" horiz-adv-x="663" /><glyph d="M398 0V87Q370 40 323 14Q276 -12 220 -12Q147 -12 100 28Q53 68 53 130Q53 190 91.5 228Q130 266 210 286L396 331V339Q396 390 361 420.5Q326 451 268 451Q215 451 179 422Q143 393 137 347H64Q72 420 129 468Q186 516 269 516Q362 516 415.5 466Q469 416 469 330V0ZM234 51Q302 51 349 101.5Q396 152 396 221V268L229 228Q178 216 152.5 193Q127 170 127 136Q127 96 155.5 73.5Q184 51 234 51ZM268 504ZM417 0ZM267 566Q207 566 168.5 605.5Q130 645 130 706H186Q186 664 208 639.5Q230 615 267 615Q305 615 327 639.5Q349 664 349 706H405Q405 645 366.5 605.5Q328 566 267 566ZM267 504Z" glyph-name="abreve" horiz-adv-x="547" unicode="&#259;" /><glyph d="M299 -12Q190 -12 117 63.5Q44 139 44 251Q44 364 117.5 440Q191 516 301 516Q366 516 420 485.5Q474 455 507 401V504H579V0H507V104Q474 49 419 18.5Q364 -12 299 -12ZM121 252Q121 170 176.5 113.5Q232 57 314 57Q395 57 450.5 113.5Q506 170 506 252Q506 334 450.5 390.5Q395 447 314 447Q232 447 176.5 390.5Q121 334 121 252ZM322 504ZM527 0ZM322 566Q262 566 223.5 605.5Q185 645 185 706H241Q241 664 263 639.5Q285 615 322 615Q360 615 382 639.5Q404 664 404 706H460Q460 645 421.5 605.5Q383 566 322 566ZM322 504Z" glyph-name="abreve.alt" horiz-adv-x="663" /><glyph d="M398 0V87Q370 40 323 14Q276 -12 220 -12Q147 -12 100 28Q53 68 53 130Q53 190 91.5 228Q130 266 210 286L396 331V339Q396 390 361 420.5Q326 451 268 451Q215 451 179 422Q143 393 137 347H64Q72 420 129 468Q186 516 269 516Q362 516 415.5 466Q469 416 469 330V0ZM234 51Q302 51 349 101.5Q396 152 396 221V268L229 228Q178 216 152.5 193Q127 170 127 136Q127 96 155.5 73.5Q184 51 234 51ZM268 504ZM417 0ZM121 573 233 717H300L413 573H345L267 673L188 573ZM267 504Z" glyph-name="acircumflex" horiz-adv-x="547" unicode="&#226;" /><glyph d="M176 573 288 717H355L468 573H400L322 673L243 573ZM322 504ZM299 -12Q190 -12 117 63.5Q44 139 44 251Q44 364 117.5 440Q191 516 301 516Q366 516 420 485.5Q474 455 507 401V504H579V0H507V104Q474 49 419 18.5Q364 -12 299 -12ZM121 252Q121 170 176.5 113.5Q232 57 314 57Q395 57 450.5 113.5Q506 170 506 252Q506 334 450.5 390.5Q395 447 314 447Q232 447 176.5 390.5Q121 334 121 252ZM322 504ZM527 0Z" glyph-name="acircumflex.alt" horiz-adv-x="663" /><glyph d="M121 573H49L129 717H202ZM84 504Z" glyph-name="acute" horiz-adv-x="247" unicode="&#180;" /><glyph d="M128 766H56L136 910H209ZM91 697ZM91 703Z" glyph-name="acute.case" horiz-adv-x="283" /><glyph d="M398 0V87Q370 40 323 14Q276 -12 220 -12Q147 -12 100 28Q53 68 53 130Q53 190 91.5 228Q130 266 210 286L396 331V339Q396 390 361 420.5Q326 451 268 451Q215 451 179 422Q143 393 137 347H64Q72 420 129 468Q186 516 269 516Q362 516 415.5 466Q469 416 469 330V0ZM234 51Q302 51 349 101.5Q396 152 396 221V268L229 228Q178 216 152.5 193Q127 170 127 136Q127 96 155.5 73.5Q184 51 234 51ZM268 504ZM417 0ZM245 639Q245 619 232 605.5Q219 592 199 592Q179 592 165.5 605.5Q152 619 152 639Q152 658 165.5 671.5Q179 685 199 685Q219 685 232 672Q245 659 245 639ZM383 639Q383 619 369 605.5Q355 592 336 592Q316 592 302.5 605.5Q289 619 289 639Q289 659 302.5 672Q316 685 336 685Q355 685 369 671.5Q383 658 383 639ZM267 504Z" glyph-name="adieresis" horiz-adv-x="547" unicode="&#228;" /><glyph d="M300 639Q300 619 287 605.5Q274 592 254 592Q234 592 220.5 605.5Q207 619 207 639Q207 658 220.5 671.5Q234 685 254 685Q274 685 287 672Q300 659 300 639ZM438 639Q438 619 424 605.5Q410 592 391 592Q371 592 357.5 605.5Q344 619 344 639Q344 659 357.5 672Q371 685 391 685Q410 685 424 671.5Q438 658 438 639ZM322 504ZM299 -12Q190 -12 117 63.5Q44 139 44 251Q44 364 117.5 440Q191 516 301 516Q366 516 420 485.5Q474 455 507 401V504H579V0H507V104Q474 49 419 18.5Q364 -12 299 -12ZM121 252Q121 170 176.5 113.5Q232 57 314 57Q395 57 450.5 113.5Q506 170 506 252Q506 334 450.5 390.5Q395 447 314 447Q232 447 176.5 390.5Q121 334 121 252ZM322 504ZM527 0Z" glyph-name="adieresis.alt" horiz-adv-x="663" /><glyph d="M829 159H904Q877 80 811 34Q745 -12 658 -12Q586 -12 526 25.5Q466 63 434 128Q413 63 357.5 25.5Q302 -12 229 -12Q148 -12 100.5 27Q53 66 53 130Q53 190 91.5 228Q130 266 210 286L396 331V339Q396 390 361 420.5Q326 451 268 451Q215 451 179 422Q143 393 137 347H64Q72 420 129 468Q186 516 269 516Q338 516 385 485.5Q432 455 448 399Q483 454 538.5 485Q594 516 659 516Q769 516 843 442Q917 368 917 259V233H470Q476 155 529 104.5Q582 54 659 54Q716 54 761.5 82Q807 110 829 159ZM659 451Q590 451 539 408Q488 365 474 297L840 296Q827 366 777.5 408.5Q728 451 659 451ZM236 51Q304 51 350 98Q396 145 396 210V268L229 228Q178 216 152.5 193Q127 170 127 136Q127 96 156 73.5Q185 51 236 51Z" glyph-name="ae" horiz-adv-x="960" unicode="&#230;" /><glyph d="M398 0V87Q370 40 323 14Q276 -12 220 -12Q147 -12 100 28Q53 68 53 130Q53 190 91.5 228Q130 266 210 286L396 331V339Q396 390 361 420.5Q326 451 268 451Q215 451 179 422Q143 393 137 347H64Q72 420 129 468Q186 516 269 516Q362 516 415.5 466Q469 416 469 330V0ZM234 51Q302 51 349 101.5Q396 152 396 221V268L229 228Q178 216 152.5 193Q127 170 127 136Q127 96 155.5 73.5Q184 51 234 51ZM268 504ZM417 0ZM231 573H303L223 717H150ZM267 504Z" glyph-name="agrave" horiz-adv-x="547" unicode="&#224;" /><glyph d="M299 -12Q190 -12 117 63.5Q44 139 44 251Q44 364 117.5 440Q191 516 301 516Q366 516 420 485.5Q474 455 507 401V504H579V0H507V104Q474 49 419 18.5Q364 -12 299 -12ZM121 252Q121 170 176.5 113.5Q232 57 314 57Q395 57 450.5 113.5Q506 170 506 252Q506 334 450.5 390.5Q395 447 314 447Q232 447 176.5 390.5Q121 334 121 252ZM322 504ZM527 0ZM285 573H357L277 717H204ZM321 504Z" glyph-name="agrave.alt" horiz-adv-x="663" /><glyph d="M398 0V87Q370 40 323 14Q276 -12 220 -12Q147 -12 100 28Q53 68 53 130Q53 190 91.5 228Q130 266 210 286L396 331V339Q396 390 361 420.5Q326 451 268 451Q215 451 179 422Q143 393 137 347H64Q72 420 129 468Q186 516 269 516Q362 516 415.5 466Q469 416 469 330V0ZM234 51Q302 51 349 101.5Q396 152 396 221V268L229 228Q178 216 152.5 193Q127 170 127 136Q127 96 155.5 73.5Q184 51 234 51ZM268 504ZM417 0ZM399 605H136V658H399ZM267 504Z" glyph-name="amacron" horiz-adv-x="547" unicode="&#257;" /><glyph d="M299 -12Q190 -12 117 63.5Q44 139 44 251Q44 364 117.5 440Q191 516 301 516Q366 516 420 485.5Q474 455 507 401V504H579V0H507V104Q474 49 419 18.5Q364 -12 299 -12ZM121 252Q121 170 176.5 113.5Q232 57 314 57Q395 57 450.5 113.5Q506 170 506 252Q506 334 450.5 390.5Q395 447 314 447Q232 447 176.5 390.5Q121 334 121 252ZM322 504ZM527 0ZM454 605H191V658H454ZM322 504Z" glyph-name="amacron.alt" horiz-adv-x="663" /><glyph d="M558 392H641L511 169L667 0H571L473 106Q433 46 379.5 17Q326 -12 257 -12Q167 -12 105.5 42Q44 96 44 176Q44 246 85.5 298.5Q127 351 213 388Q168 439 149.5 477.5Q131 516 131 556Q131 623 182 669Q233 715 308 715Q381 715 428 673.5Q475 632 475 568Q475 509 435.5 463Q396 417 314 381L461 222ZM308 651Q263 651 234 622.5Q205 594 205 551Q205 523 219 496.5Q233 470 276 423Q352 460 379 491Q406 522 406 561Q406 601 379 626Q352 651 308 651ZM121 182Q121 128 162 91Q203 54 265 54Q316 54 355.5 79.5Q395 105 425 158L253 345Q182 311 151.5 272.5Q121 234 121 182Z" glyph-name="ampersand" horiz-adv-x="677" unicode="&amp;" /><glyph d="M398 2V87Q370 40 323 14Q276 -12 220 -12Q147 -12 100 28Q53 68 53 130Q53 190 91.5 228Q130 266 210 286L396 331V339Q396 390 361 420.5Q326 451 268 451Q215 451 179 422Q143 393 137 347H64Q72 420 129 468Q186 516 269 516Q362 516 415.5 466Q469 416 469 330V0H461Q411 -57 391 -89Q371 -121 371 -145Q371 -168 383.5 -179.5Q396 -191 419 -191Q430 -191 442 -188Q454 -185 465 -179V-232Q451 -241 436 -245.5Q421 -250 404 -250Q363 -250 335 -224.5Q307 -199 307 -161Q307 -127 324.5 -94.5Q342 -62 398 2ZM234 51Q302 51 349 101.5Q396 152 396 221V268L229 228Q178 216 152.5 193Q127 170 127 136Q127 96 155.5 73.5Q184 51 234 51Z" glyph-name="aogonek" horiz-adv-x="547" unicode="&#261;" /><glyph d="M299 -12Q190 -12 117 63.5Q44 139 44 251Q44 364 117.5 440Q191 516 301 516Q366 516 420 485.5Q474 455 507 401V504H579V0H571Q521 -57 501 -89Q481 -121 481 -145Q481 -168 493.5 -179.5Q506 -191 529 -191Q540 -191 552 -188Q564 -185 575 -179V-232Q561 -241 546 -245.5Q531 -250 514 -250Q473 -250 445 -224.5Q417 -199 417 -161Q417 -127 434.5 -94.5Q452 -62 507 1V104Q474 49 419 18.5Q364 -12 299 -12ZM121 252Q121 170 176.5 113.5Q232 57 314 57Q395 57 450.5 113.5Q506 170 506 252Q506 334 450.5 390.5Q395 447 314 447Q232 447 176.5 390.5Q121 334 121 252Z" glyph-name="aogonek.alt" horiz-adv-x="663" /><glyph d="M302.5 289.1Q264.7 308 242.2 313.85Q219.7 319.7 196.3 319.7Q159.4 319.7 127 300.8Q94.6 281.9 79.3 254V186.5Q100.9 219.8 130.15 237.8Q159.4 255.8 193.6 255.8Q214.3 255.8 233.2 250.4Q252.1 245 285.4 227.9Q319.6 209.9 339.85 204.5Q360.1 199.1 382.6 199.1Q418.6 199.1 446.5 214.85Q474.4 230.6 493.3 261.2V330.5Q465.4 290 442 276.5Q418.6 263 388 263Q370.9 263 353.35 267.95Q335.8 272.9 302.5 289.1ZM302.5 468.1Q264.7 487 242.2 492.85Q219.7 498.7 196.3 498.7Q159.4 498.7 127 479.8Q94.6 460.9 79.3 433V365.5Q100.9 398.8 130.15 416.8Q159.4 434.8 193.6 434.8Q214.3 434.8 233.2 429.4Q252.1 424 285.4 406.9Q319.6 388.9 339.85 383.5Q360.1 378.1 382.6 378.1Q418.6 378.1 446.5 393.85Q474.4 409.6 493.3 440.2V509.5Q465.4 469 442 455.5Q418.6 442 388 442Q370.9 442 353.35 446.95Q335.8 451.9 302.5 468.1Z" glyph-name="approxequal" horiz-adv-x="570" unicode="&#8776;" /><glyph d="M398 0V87Q370 40 323 14Q276 -12 220 -12Q147 -12 100 28Q53 68 53 130Q53 190 91.5 228Q130 266 210 286L396 331V339Q396 390 361 420.5Q326 451 268 451Q215 451 179 422Q143 393 137 347H64Q72 420 129 468Q186 516 269 516Q362 516 415.5 466Q469 416 469 330V0ZM234 51Q302 51 349 101.5Q396 152 396 221V268L229 228Q178 216 152.5 193Q127 170 127 136Q127 96 155.5 73.5Q184 51 234 51ZM268 504ZM417 0ZM363 659Q363 620 335 593Q307 566 267 566Q227 566 199 593Q171 620 171 659Q171 697 199 724.5Q227 752 267 752Q306 752 334.5 724.5Q363 697 363 659ZM218 659Q218 639 232.5 624Q247 609 267 609Q287 609 302 624Q317 639 317 659Q317 679 302 694Q287 709 267 709Q247 709 232.5 694Q218 679 218 659ZM267 504Z" glyph-name="aring" horiz-adv-x="547" unicode="&#229;" /><glyph d="M418 659Q418 620 390 593Q362 566 322 566Q282 566 254 593Q226 620 226 659Q226 697 254 724.5Q282 752 322 752Q361 752 389.5 724.5Q418 697 418 659ZM273 659Q273 639 287.5 624Q302 609 322 609Q342 609 357 624Q372 639 372 659Q372 679 357 694Q342 709 322 709Q302 709 287.5 694Q273 679 273 659ZM322 504ZM299 -12Q190 -12 117 63.5Q44 139 44 251Q44 364 117.5 440Q191 516 301 516Q366 516 420 485.5Q474 455 507 401V504H579V0H507V104Q474 49 419 18.5Q364 -12 299 -12ZM121 252Q121 170 176.5 113.5Q232 57 314 57Q395 57 450.5 113.5Q506 170 506 252Q506 334 450.5 390.5Q395 447 314 447Q232 447 176.5 390.5Q121 334 121 252ZM322 504ZM527 0Z" glyph-name="aring.alt" horiz-adv-x="663" /><glyph d="M249 703H322L500 284H421L285 609L149 284H70Z" glyph-name="asciicircum" horiz-adv-x="570" unicode="^" /><glyph d="M305 409Q263 430 238 436.5Q213 443 187 443Q146 443 110 422Q74 401 57 370V295Q81 332 113.5 352Q146 372 184 372Q207 372 228 366Q249 360 286 341Q324 321 346.5 315Q369 309 394 309Q434 309 465 326.5Q496 344 517 378V455Q486 410 460 395Q434 380 400 380Q381 380 361.5 385.5Q342 391 305 409Z" glyph-name="asciitilde" horiz-adv-x="570" unicode="~" /><glyph d="M149 352 91 391 184 507 44 548 69 613 202 560 194 703H268L260 560L393 613L417 547L275 507L368 391L312 350L230 479Z" glyph-name="asterisk" horiz-adv-x="461" unicode="*" /><glyph d="M403 82Q337 82 294.5 126Q252 170 252 241Q252 329 307 388.5Q362 448 441 448Q487 448 521 427.5Q555 407 571 370L588 440H658L607 226Q595 174 613.5 146Q632 118 677 118Q732 118 765.5 169.5Q799 221 799 304Q799 440 701.5 528.5Q604 617 458 617Q310 617 210 520.5Q110 424 110 270Q110 195 135.5 133Q161 71 210 26Q257 -18 322.5 -42Q388 -66 458 -66Q498 -66 533 -60.5Q568 -55 594 -44V-102Q566 -112 530.5 -118Q495 -124 458 -124Q375 -124 298.5 -95.5Q222 -67 166 -16Q107 38 76.5 110.5Q46 183 46 270Q46 358 76 432Q106 506 164 561Q221 616 297.5 645.5Q374 675 458 675Q629 675 746 569.5Q863 464 863 305Q863 194 810 127.5Q757 61 665 61Q617 61 581.5 85Q546 109 539 153Q514 118 479.5 100Q445 82 403 82ZM327 245Q327 195 351.5 166.5Q376 138 419 138Q476 138 512 184Q548 230 548 297Q548 337 521 363.5Q494 390 449 390Q398 390 362.5 348Q327 306 327 245Z" glyph-name="at" horiz-adv-x="914" unicode="@" /><glyph d="M398 0V87Q370 40 323 14Q276 -12 220 -12Q147 -12 100 28Q53 68 53 130Q53 190 91.5 228Q130 266 210 286L396 331V339Q396 390 361 420.5Q326 451 268 451Q215 451 179 422Q143 393 137 347H64Q72 420 129 468Q186 516 269 516Q362 516 415.5 466Q469 416 469 330V0ZM234 51Q302 51 349 101.5Q396 152 396 221V268L229 228Q178 216 152.5 193Q127 170 127 136Q127 96 155.5 73.5Q184 51 234 51ZM268 504ZM417 0ZM292 662Q307 647 315 642.5Q323 638 331 638Q346 638 354 651Q362 664 367 697H418Q413 639 392 611.5Q371 584 331 584Q311 584 295.5 591.5Q280 599 259 621Q243 637 234 642Q225 647 215 647Q195 647 184 631.5Q173 616 169 584H118Q122 642 147 671.5Q172 701 216 701Q235 701 251.5 693.5Q268 686 292 662ZM268 504Z" glyph-name="atilde" horiz-adv-x="547" unicode="&#227;" /><glyph d="M299 -12Q190 -12 117 63.5Q44 139 44 251Q44 364 117.5 440Q191 516 301 516Q366 516 420 485.5Q474 455 507 401V504H579V0H507V104Q474 49 419 18.5Q364 -12 299 -12ZM121 252Q121 170 176.5 113.5Q232 57 314 57Q395 57 450.5 113.5Q506 170 506 252Q506 334 450.5 390.5Q395 447 314 447Q232 447 176.5 390.5Q121 334 121 252ZM322 504ZM527 0ZM347 662Q362 647 370 642.5Q378 638 386 638Q401 638 409 651Q417 664 422 697H473Q468 639 447 611.5Q426 584 386 584Q366 584 350.5 591.5Q335 599 314 621Q298 637 289 642Q280 647 270 647Q250 647 239 631.5Q228 616 224 584H173Q177 642 202 671.5Q227 701 271 701Q290 701 306.5 693.5Q323 686 347 662ZM323 504Z" glyph-name="atilde.alt" horiz-adv-x="663" /><glyph d="M157 0H85V741H160V406Q194 458 247.5 487Q301 516 365 516Q474 516 547 440.5Q620 365 620 253Q620 140 546 64Q472 -12 362 -12Q298 -12 244.5 18.5Q191 49 157 103ZM542 253Q542 334 486.5 390.5Q431 447 349 447Q268 447 213 391Q158 335 158 253Q158 171 213 114Q268 57 349 57Q431 57 486.5 114Q542 171 542 253Z" glyph-name="b" horiz-adv-x="664" unicode="b" /><glyph d="M112 810H37L274 -140H349Z" glyph-name="backslash" horiz-adv-x="386" unicode="\" /><glyph d="M95 810H171V-140H95Z" glyph-name="bar" horiz-adv-x="266" unicode="|" /><glyph d="M133 361Q164 349 178.5 320Q193 291 193 240V40Q193 -20 214 -50Q235 -80 277 -80Q284 -80 292 -79.5Q300 -79 309 -78V-148Q298 -149 290 -149.5Q282 -150 274 -150Q197 -150 157 -104Q117 -58 117 32V236Q117 285 100.5 307Q84 329 47 329H31V392H47Q84 392 100.5 414Q117 436 117 485V638Q117 728 157 774Q197 820 274 820Q282 820 290 819.5Q298 819 309 818V748Q300 749 292 749.5Q284 750 277 750Q235 750 214 720Q193 690 193 630V481Q193 430 178.5 401Q164 372 133 361Z" glyph-name="braceleft" horiz-adv-x="334" unicode="{" /><glyph d="M201 361Q170 349 155.5 320Q141 291 141 240V40Q141 -20 120 -50Q99 -80 57 -80Q50 -80 42 -79.5Q34 -79 25 -78V-148Q36 -149 44 -149.5Q52 -150 60 -150Q137 -150 177 -104Q217 -58 217 32V236Q217 285 233.5 307Q250 329 287 329H303V392H287Q250 392 233.5 414Q217 436 217 485V638Q217 728 177 774Q137 820 60 820Q52 820 44 819.5Q36 819 25 818V748Q34 749 42 749.5Q50 750 57 750Q99 750 120 720Q141 690 141 630V481Q141 430 155.5 401Q170 372 201 361Z" glyph-name="braceright" horiz-adv-x="334" unicode="}" /><glyph d="M316 810V740H171V-70H316V-140H95V810Z" glyph-name="bracketleft" horiz-adv-x="339" unicode="[" /><glyph d="M23 810V740H168V-70H23V-140H244V810Z" glyph-name="bracketright" horiz-adv-x="339" unicode="]" /><glyph d="M172 566Q112 566 73.5 605.5Q35 645 35 706H91Q91 664 113 639.5Q135 615 172 615Q210 615 232 639.5Q254 664 254 706H310Q310 645 271.5 605.5Q233 566 172 566ZM172 504Z" glyph-name="breve" horiz-adv-x="343" unicode="&#728;" /><glyph d="M186 758Q126 758 87.5 797.5Q49 837 49 898H105Q105 856 127 831.5Q149 807 186 807Q224 807 246 831.5Q268 856 268 898H324Q324 837 285.5 797.5Q247 758 186 758ZM186 696ZM187 703Z" glyph-name="breve.case" horiz-adv-x="365" /><glyph d="M98 810H174V410H98ZM98 -140V260H174V-140Z" glyph-name="brokenbar" horiz-adv-x="272" unicode="&#166;" /><glyph d="M289.9692 366.5839Q289.9692 323.5715 259.8604 293.4627Q229.7517 263.354 185.0188 263.354Q142.0063 263.354 111.8976 293.4627Q81.7889 323.5715 81.7889 366.5839Q81.7889 411.3169 111.0374 440.5653Q140.2858 469.8138 185.0188 469.8138Q229.7517 469.8138 259.8604 440.5653Q289.9692 411.3169 289.9692 366.5839ZM81.7889 368.3044Z" glyph-name="bullet" horiz-adv-x="370" unicode="&#8226;" /><glyph d="M310 516Q404 516 474.5 459.5Q545 403 565 313H489Q471 373 422.5 409.5Q374 446 310 446Q229 446 173.5 390Q118 334 118 253Q118 171 173.5 114.5Q229 58 310 58Q374 58 424 96.5Q474 135 492 196H566Q546 104 475 46Q404 -12 310 -12Q197 -12 120 64.5Q43 141 43 253Q43 363 120 439.5Q197 516 310 516ZM310 504ZM310 10Z" glyph-name="c" horiz-adv-x="605" unicode="c" /><glyph d="M346 573H274L354 717H427ZM309 504ZM310 516Q404 516 474.5 459.5Q545 403 565 313H489Q471 373 422.5 409.5Q374 446 310 446Q229 446 173.5 390Q118 334 118 253Q118 171 173.5 114.5Q229 58 310 58Q374 58 424 96.5Q474 135 492 196H566Q546 104 475 46Q404 -12 310 -12Q197 -12 120 64.5Q43 141 43 253Q43 363 120 439.5Q197 516 310 516ZM310 504ZM310 10Z" glyph-name="cacute" horiz-adv-x="605" unicode="&#263;" /><glyph d="M26 717 138 573H205L318 717H250L172 617L93 717ZM172 786ZM172 504Z" glyph-name="caron" horiz-adv-x="363" unicode="&#711;" /><glyph d="M34 910 146 766H213L326 910H258L180 810L101 910ZM180 979ZM180 697ZM182 703Z" glyph-name="caron.case" horiz-adv-x="335" /><glyph d="M140 662 97 540H48L89 651Q70 653 58 667.5Q46 682 46 701Q46 723 61 738Q76 753 98 753Q120 753 135 738Q150 723 150 701Q150 694 148 686Q146 678 140 662ZM46 703Z" glyph-name="caron.salt" horiz-adv-x="188" /><glyph d="M163 717 275 573H342L455 717H387L309 617L230 717ZM309 786ZM309 504ZM310 516Q404 516 474.5 459.5Q545 403 565 313H489Q471 373 422.5 409.5Q374 446 310 446Q229 446 173.5 390Q118 334 118 253Q118 171 173.5 114.5Q229 58 310 58Q374 58 424 96.5Q474 135 492 196H566Q546 104 475 46Q404 -12 310 -12Q197 -12 120 64.5Q43 141 43 253Q43 363 120 439.5Q197 516 310 516ZM310 504ZM310 10Z" glyph-name="ccaron" horiz-adv-x="605" unicode="&#269;" /><glyph d="M310 516Q404 516 474.5 459.5Q545 403 565 313H489Q471 373 422.5 409.5Q374 446 310 446Q229 446 173.5 390Q118 334 118 253Q118 171 173.5 114.5Q229 58 310 58Q374 58 424 96.5Q474 135 492 196H566Q547 110 483.5 53Q420 -4 333 -11L306 -56Q308 -55 310 -55Q312 -55 317 -55Q362 -55 390.5 -82.5Q419 -110 419 -152Q419 -194 388.5 -222Q358 -250 313 -250Q268 -250 238.5 -224.5Q209 -199 207 -157H264Q265 -176 279 -188Q293 -200 313 -200Q333 -200 347 -186Q361 -172 361 -152Q361 -131 347.5 -117.5Q334 -104 313 -104Q299 -104 288.5 -108.5Q278 -113 267 -125L222 -100L277 -10Q175 1 109 76Q43 151 43 253Q43 363 120 439.5Q197 516 310 516Z" glyph-name="ccedilla" horiz-adv-x="605" unicode="&#231;" /><glyph d="M164 573 276 717H343L456 573H388L310 673L231 573ZM310 504ZM310 516Q404 516 474.5 459.5Q545 403 565 313H489Q471 373 422.5 409.5Q374 446 310 446Q229 446 173.5 390Q118 334 118 253Q118 171 173.5 114.5Q229 58 310 58Q374 58 424 96.5Q474 135 492 196H566Q546 104 475 46Q404 -12 310 -12Q197 -12 120 64.5Q43 141 43 253Q43 363 120 439.5Q197 516 310 516ZM310 504ZM310 10Z" glyph-name="ccircumflex" horiz-adv-x="605" unicode="&#265;" /><glyph d="M310 516Q404 516 474.5 459.5Q545 403 565 313H489Q471 373 422.5 409.5Q374 446 310 446Q229 446 173.5 390Q118 334 118 253Q118 171 173.5 114.5Q229 58 310 58Q374 58 424 96.5Q474 135 492 196H566Q546 104 475 46Q404 -12 310 -12Q197 -12 120 64.5Q43 141 43 253Q43 363 120 439.5Q197 516 310 516ZM310 504ZM310 10ZM362 642Q362 621 346.5 606Q331 591 310 591Q288 591 273 606Q258 621 258 642Q258 664 273 679.5Q288 695 310 695Q331 695 346.5 679.5Q362 664 362 642ZM310 504Z" glyph-name="cdotaccent" horiz-adv-x="605" unicode="&#267;" /><glyph d="M62 -100 133 16H190L146 -56Q148 -55 150 -55Q152 -55 157 -55Q202 -55 230.5 -82.5Q259 -110 259 -152Q259 -194 228.5 -222Q198 -250 153 -250Q108 -250 78.5 -224.5Q49 -199 47 -157H104Q105 -176 119 -188Q133 -200 153 -200Q173 -200 187 -186Q201 -172 201 -152Q201 -131 187.5 -117.5Q174 -104 153 -104Q139 -104 128.5 -108.5Q118 -113 107 -125ZM150 10Z" glyph-name="cedilla" horiz-adv-x="440" unicode="&#184;" /><glyph d="M347 -7 272 -25V100Q174 114 110.5 188Q47 262 47 362Q47 461 110.5 534.5Q174 608 272 622V733L347 750V623Q430 613 490.5 558.5Q551 504 569 422H493Q475 482 426.5 518.5Q378 555 314 555Q233 555 177.5 499Q122 443 122 362Q122 280 177.5 223.5Q233 167 314 167Q378 167 428 205.5Q478 244 496 305H570Q551 222 490.5 165.5Q430 109 347 99Z" glyph-name="cent" horiz-adv-x="605" unicode="&#162;" /><glyph d="M29 573 141 717H208L321 573H253L175 673L96 573ZM175 504Z" glyph-name="circumflex" horiz-adv-x="351" unicode="&#710;" /><glyph d="M36 766 148 910H215L328 766H260L182 866L103 766ZM182 697ZM182 703Z" glyph-name="circumflex.case" horiz-adv-x="335" /><glyph d="M190 48Q190 23 172.5 5.5Q155 -12 129 -12Q104 -12 86.5 5.5Q69 23 69 48Q69 74 86 91Q103 108 129 108Q155 108 172.5 91Q190 74 190 48ZM69 49ZM190 456Q190 431 172.5 413.5Q155 396 129 396Q104 396 86.5 413.5Q69 431 69 456Q69 482 86 499Q103 516 129 516Q155 516 172.5 499Q190 482 190 456ZM69 457Z" glyph-name="colon" horiz-adv-x="258" unicode=":" /><glyph d="M100 -155H42L103 -11Q82 -6 69 11Q56 28 56 48Q56 74 73 91Q90 108 116 108Q142 108 160 91Q178 74 178 49Q178 43 176 35.5Q174 28 168 13Z" glyph-name="comma" horiz-adv-x="234" unicode="," /><glyph d="M121 -132 78 -241H34L70 -153Q52 -150 40.5 -136Q29 -122 29 -106Q29 -85 43 -71Q57 -57 78 -57Q99 -57 113 -71Q127 -85 127 -106Q127 -111 125.5 -117Q124 -123 121 -132ZM79 6ZM78 -241Z" glyph-name="commaaccent" horiz-adv-x="155" unicode="&#63171;" /><glyph d="M42 664 86 774H131L94 685Q112 682 123 669Q134 656 134 639Q134 619 120 605Q106 591 85 591Q64 591 50 605Q36 619 36 639Q36 645 37.5 651Q39 657 42 664ZM85 504Z" glyph-name="commaaccent.salt" horiz-adv-x="198" /><glyph d="M773 351Q773 501 667 608Q561 715 411 715Q261 715 154.5 608.5Q48 502 48 351Q48 201 154.5 94.5Q261 -12 411 -12Q560 -12 666.5 95Q773 202 773 351ZM100 351Q100 480 191.5 572Q283 664 411 664Q539 664 630.5 572Q722 480 722 351Q722 223 630.5 131Q539 39 411 39Q283 39 191.5 131Q100 223 100 351ZM411 549Q484 549 537.5 506Q591 463 606 393H529Q516 432 484.5 455.5Q453 479 411 479Q358 479 322 442Q286 405 286 351Q286 297 322 260Q358 223 411 223Q454 223 486 247Q518 271 529 311H606Q592 240 538 196Q484 152 411 152Q325 152 267.5 209.5Q210 267 210 351Q210 435 267.5 492Q325 549 411 549Z" glyph-name="copyright" horiz-adv-x="822" unicode="&#169;" /><glyph d="M138 83H56L165 229Q145 255 134.5 284.5Q124 314 124 346Q124 378 135 408Q146 438 166 464L56 612H138L215 509Q238 523 263.5 530.5Q289 538 316 538Q342 538 367.5 530.5Q393 523 416 509L492 612H574L464 464Q484 440 494.5 409.5Q505 379 505 346Q505 314 495 284.5Q485 255 465 229L574 83H492L417 185Q395 170 369 162.5Q343 155 316 155Q289 155 262.5 162.5Q236 170 214 185ZM316 219Q369 219 405 255.5Q441 292 441 346Q441 400 405 436.5Q369 473 316 473Q263 473 226 436Q189 399 189 346Q189 292 225.5 255.5Q262 219 316 219Z" glyph-name="currency" horiz-adv-x="630" unicode="&#164;" /><glyph d="M299 -12Q190 -12 117 63.5Q44 139 44 251Q44 364 117.5 440Q191 516 301 516Q364 516 417 487.5Q470 459 503 407V741H578V0H507V104Q474 49 419 18.5Q364 -12 299 -12ZM121 252Q121 170 176.5 113.5Q232 57 314 57Q395 57 450.5 113.5Q506 170 506 252Q506 334 450.5 390.5Q395 447 314 447Q232 447 176.5 390.5Q121 334 121 252ZM667 703Z" glyph-name="d" horiz-adv-x="663" unicode="d" /><glyph d="M33 436V499H200V693L275 710V499H442V436H275V11L200 -7V436Z" glyph-name="dagger" horiz-adv-x="475" unicode="&#8224;" /><glyph d="M49 206V269H217V436H49V499H217V693L292 710V499H458V436H292V269H458V206H292V11L217 -7V206Z" glyph-name="daggerdbl" horiz-adv-x="508" unicode="&#8225;" /><glyph d="M761 662 718 540H669L710 651Q691 653 679 667.5Q667 682 667 701Q667 723 682 738Q697 753 719 753Q741 753 756 738Q771 723 771 701Q771 694 769 686Q767 678 761 662ZM667 703ZM299 -12Q190 -12 117 63.5Q44 139 44 251Q44 364 117.5 440Q191 516 301 516Q364 516 417 487.5Q470 459 503 407V741H578V0H507V104Q474 49 419 18.5Q364 -12 299 -12ZM121 252Q121 170 176.5 113.5Q232 57 314 57Q395 57 450.5 113.5Q506 170 506 252Q506 334 450.5 390.5Q395 447 314 447Q232 447 176.5 390.5Q121 334 121 252ZM667 703Z" glyph-name="dcaron" horiz-adv-x="687" unicode="&#271;" /><glyph d="M299 -12Q190 -12 117 63.5Q44 139 44 251Q44 364 117.5 440Q191 516 301 516Q364 516 417 487.5Q470 459 503 407V590H300V652H503V741H578V652H650V590H578V0H507V104Q474 49 419 18.5Q364 -12 299 -12ZM121 252Q121 170 176.5 113.5Q232 57 314 57Q395 57 450.5 113.5Q506 170 506 252Q506 334 450.5 390.5Q395 447 314 447Q232 447 176.5 390.5Q121 334 121 252Z" glyph-name="dcroat" horiz-adv-x="663" unicode="&#273;" /><glyph d="M332 573Q332 514 290.5 472.5Q249 431 190 431Q131 431 89 472.5Q47 514 47 573Q47 632 89 673.5Q131 715 190 715Q249 715 290.5 673.5Q332 632 332 573ZM99 573Q99 536 126 509.5Q153 483 190 483Q227 483 253 509Q279 535 279 573Q279 611 253 637Q227 663 190 663Q153 663 126 636.5Q99 610 99 573Z" glyph-name="degree" horiz-adv-x="378" unicode="&#176;" /><glyph d="M138 639Q138 619 125 605.5Q112 592 92 592Q72 592 58.5 605.5Q45 619 45 639Q45 658 58.5 671.5Q72 685 92 685Q112 685 125 672Q138 659 138 639ZM276 639Q276 619 262 605.5Q248 592 229 592Q209 592 195.5 605.5Q182 619 182 639Q182 659 195.5 672Q209 685 229 685Q248 685 262 671.5Q276 658 276 639ZM160 504Z" glyph-name="dieresis" horiz-adv-x="320" unicode="&#168;" /><glyph d="M145 830Q145 810 132 796.5Q119 783 99 783Q79 783 65.5 796.5Q52 810 52 830Q52 849 65.5 862.5Q79 876 99 876Q119 876 132 863Q145 850 145 830ZM283 830Q283 810 269 796.5Q255 783 236 783Q216 783 202.5 796.5Q189 810 189 830Q189 850 202.5 863Q216 876 236 876Q255 876 269 862.5Q283 849 283 830ZM167 695ZM166 703Z" glyph-name="dieresis.case" horiz-adv-x="319" /><glyph d="M62 320V380H508V320ZM340 167Q340 145 324 129Q308 113 285 113Q262 113 246.5 129Q231 145 231 167Q231 190 246.5 205.5Q262 221 285 221Q309 221 324.5 205.5Q340 190 340 167ZM340 533Q340 511 324 495Q308 479 285 479Q262 479 246.5 495Q231 511 231 533Q231 556 246.5 571.5Q262 587 285 587Q309 587 324.5 571.5Q340 556 340 533Z" glyph-name="divide" horiz-adv-x="570" unicode="&#247;" /><glyph d="M309 -121 234 -138V-9Q142 4 90.5 64.5Q39 125 35 227H115Q119 144 162 101Q205 58 283 58Q351 58 390 93.5Q429 129 429 192Q429 235 405.5 261.5Q382 288 303 316L231 341Q178 359 151.5 372.5Q125 386 107 402Q81 425 68.5 456Q56 487 56 528Q56 603 105 653Q154 703 234 713V821L309 838V712Q392 701 440 645Q488 589 494 496H414Q408 569 370.5 607Q333 645 267 645Q208 645 171 614.5Q134 584 134 532Q134 505 142.5 485Q151 465 168 451Q179 442 195.5 434Q212 426 250 413L336 384Q437 350 472.5 307.5Q508 265 508 197Q508 106 455 51Q402 -4 309 -11Z" glyph-name="dollar" horiz-adv-x="547" unicode="$" /><glyph d="M149 642Q149 621 133.5 606Q118 591 97 591Q75 591 60 606Q45 621 45 642Q45 664 60 679.5Q75 695 97 695Q118 695 133.5 679.5Q149 664 149 642ZM97 504Z" glyph-name="dotaccent" horiz-adv-x="194" unicode="&#729;" /><glyph d="M156 833Q156 812 140.5 797Q125 782 104 782Q82 782 67 797Q52 812 52 833Q52 855 67 870.5Q82 886 104 886Q125 886 140.5 870.5Q156 855 156 833ZM104 695ZM104 703Z" glyph-name="dotaccent.case" horiz-adv-x="256" /><glyph d="M163 0H87V504H163ZM125 504Z" glyph-name="dotlessi" horiz-adv-x="250" unicode="&#305;" /><glyph d="M306 54Q363 54 408.5 82Q454 110 477 159H552Q525 80 459 34Q393 -12 306 -12Q195 -12 119 65Q43 142 43 253Q43 362 119.5 439Q196 516 306 516Q417 516 491 442Q565 368 565 259V233H118Q124 155 177 104.5Q230 54 306 54ZM306 451Q238 451 187 408Q136 365 121 296H489Q476 366 425.5 408.5Q375 451 306 451ZM306 504ZM358 0Z" glyph-name="e" horiz-adv-x="608" unicode="e" /><glyph d="M343 573H271L351 717H424ZM306 504ZM306 54Q363 54 408.5 82Q454 110 477 159H552Q525 80 459 34Q393 -12 306 -12Q195 -12 119 65Q43 142 43 253Q43 362 119.5 439Q196 516 306 516Q417 516 491 442Q565 368 565 259V233H118Q124 155 177 104.5Q230 54 306 54ZM306 451Q238 451 187 408Q136 365 121 296H489Q476 366 425.5 408.5Q375 451 306 451ZM306 504ZM358 0Z" glyph-name="eacute" horiz-adv-x="608" unicode="&#233;" /><glyph d="M306 54Q363 54 408.5 82Q454 110 477 159H552Q525 80 459 34Q393 -12 306 -12Q195 -12 119 65Q43 142 43 253Q43 362 119.5 439Q196 516 306 516Q417 516 491 442Q565 368 565 259V233H118Q124 155 177 104.5Q230 54 306 54ZM306 451Q238 451 187 408Q136 365 121 296H489Q476 366 425.5 408.5Q375 451 306 451ZM306 504ZM358 0ZM306 566Q246 566 207.5 605.5Q169 645 169 706H225Q225 664 247 639.5Q269 615 306 615Q344 615 366 639.5Q388 664 388 706H444Q444 645 405.5 605.5Q367 566 306 566ZM306 504Z" glyph-name="ebreve" horiz-adv-x="608" unicode="&#277;" /><glyph d="M159 717 271 573H338L451 717H383L305 617L226 717ZM305 786ZM305 504ZM306 54Q363 54 408.5 82Q454 110 477 159H552Q525 80 459 34Q393 -12 306 -12Q195 -12 119 65Q43 142 43 253Q43 362 119.5 439Q196 516 306 516Q417 516 491 442Q565 368 565 259V233H118Q124 155 177 104.5Q230 54 306 54ZM306 451Q238 451 187 408Q136 365 121 296H489Q476 366 425.5 408.5Q375 451 306 451ZM306 504ZM358 0Z" glyph-name="ecaron" horiz-adv-x="608" unicode="&#283;" /><glyph d="M160 573 272 717H339L452 573H384L306 673L227 573ZM306 504ZM306 54Q363 54 408.5 82Q454 110 477 159H552Q525 80 459 34Q393 -12 306 -12Q195 -12 119 65Q43 142 43 253Q43 362 119.5 439Q196 516 306 516Q417 516 491 442Q565 368 565 259V233H118Q124 155 177 104.5Q230 54 306 54ZM306 451Q238 451 187 408Q136 365 121 296H489Q476 366 425.5 408.5Q375 451 306 451ZM306 504ZM358 0Z" glyph-name="ecircumflex" horiz-adv-x="608" unicode="&#234;" /><glyph d="M284 639Q284 619 271 605.5Q258 592 238 592Q218 592 204.5 605.5Q191 619 191 639Q191 658 204.5 671.5Q218 685 238 685Q258 685 271 672Q284 659 284 639ZM422 639Q422 619 408 605.5Q394 592 375 592Q355 592 341.5 605.5Q328 619 328 639Q328 659 341.5 672Q355 685 375 685Q394 685 408 671.5Q422 658 422 639ZM306 504ZM306 54Q363 54 408.5 82Q454 110 477 159H552Q525 80 459 34Q393 -12 306 -12Q195 -12 119 65Q43 142 43 253Q43 362 119.5 439Q196 516 306 516Q417 516 491 442Q565 368 565 259V233H118Q124 155 177 104.5Q230 54 306 54ZM306 451Q238 451 187 408Q136 365 121 296H489Q476 366 425.5 408.5Q375 451 306 451ZM306 504ZM358 0Z" glyph-name="edieresis" horiz-adv-x="608" unicode="&#235;" /><glyph d="M306 54Q363 54 408.5 82Q454 110 477 159H552Q525 80 459 34Q393 -12 306 -12Q195 -12 119 65Q43 142 43 253Q43 362 119.5 439Q196 516 306 516Q417 516 491 442Q565 368 565 259V233H118Q124 155 177 104.5Q230 54 306 54ZM306 451Q238 451 187 408Q136 365 121 296H489Q476 366 425.5 408.5Q375 451 306 451ZM306 504ZM358 0ZM358 642Q358 621 342.5 606Q327 591 306 591Q284 591 269 606Q254 621 254 642Q254 664 269 679.5Q284 695 306 695Q327 695 342.5 679.5Q358 664 358 642ZM306 504Z" glyph-name="edotaccent" horiz-adv-x="608" unicode="&#279;" /><glyph d="M306 54Q363 54 408.5 82Q454 110 477 159H552Q525 80 459 34Q393 -12 306 -12Q195 -12 119 65Q43 142 43 253Q43 362 119.5 439Q196 516 306 516Q417 516 491 442Q565 368 565 259V233H118Q124 155 177 104.5Q230 54 306 54ZM306 451Q238 451 187 408Q136 365 121 296H489Q476 366 425.5 408.5Q375 451 306 451ZM306 504ZM358 0ZM269 573H341L261 717H188ZM305 504Z" glyph-name="egrave" horiz-adv-x="608" unicode="&#232;" /><glyph d="M533 196Q533 107 466 47.5Q399 -12 293 -12Q187 -12 119.5 47.5Q52 107 52 196Q52 255 85 304Q118 353 175 379Q131 403 106.5 444Q82 485 82 533Q82 611 141.5 663Q201 715 295 715Q388 715 447 662.5Q506 610 506 533Q506 485 481 444Q456 403 412 378Q469 352 501 303.5Q533 255 533 196ZM155 528Q155 476 193.5 441.5Q232 407 295 407Q356 407 394.5 442Q433 477 433 528Q433 580 395 614Q357 648 295 648Q232 648 193.5 614Q155 580 155 528ZM130 200Q130 139 175.5 98Q221 57 293 57Q365 57 410.5 98Q456 139 456 200Q456 262 411 302.5Q366 343 293 343Q220 343 175 302.5Q130 262 130 200Z" glyph-name="eight" horiz-adv-x="586" unicode="8" /><glyph d="M287 100Q287 54 251.5 24Q216 -6 160 -6Q104 -6 68.5 24.5Q33 55 33 100Q33 129 48.5 152.5Q64 176 91 189Q70 203 59 223Q48 243 48 267Q48 305 79.5 331.5Q111 358 160 358Q209 358 240.5 332Q272 306 272 267Q272 243 260.5 223Q249 203 228 189Q256 176 271.5 152.5Q287 129 287 100ZM106 259Q106 239 121.5 225Q137 211 161 212Q186 213 201 227Q216 241 216 261Q216 282 200 295.5Q184 309 159 309Q136 309 121 294.5Q106 280 106 259ZM93 102Q93 78 111.5 61.5Q130 45 160 45Q190 45 208.5 61.5Q227 78 227 102Q227 128 208.5 145.5Q190 163 160 163Q130 163 111.5 145.5Q93 128 93 102Z" glyph-name="eight.denominator" horiz-adv-x="321" unicode="&#63069;" /><glyph d="M287 -41Q287 -87 251.5 -117Q216 -147 160 -147Q104 -147 68.5 -116.5Q33 -86 33 -41Q33 -12 48.5 11.5Q64 35 91 48Q70 62 59 82Q48 102 48 126Q48 164 79.5 190.5Q111 217 160 217Q209 217 240.5 191Q272 165 272 126Q272 102 260.5 82Q249 62 228 48Q256 35 271.5 11.5Q287 -12 287 -41ZM106 118Q106 98 121.5 84Q137 70 161 71Q186 72 201 86Q216 100 216 120Q216 141 200 154.5Q184 168 159 168Q136 168 121 153.5Q106 139 106 118ZM93 -39Q93 -63 111.5 -79.5Q130 -96 160 -96Q190 -96 208.5 -79.5Q227 -63 227 -39Q227 -13 208.5 4.5Q190 22 160 22Q130 22 111.5 4.5Q93 -13 93 -39Z" glyph-name="eight.inferior" horiz-adv-x="321" unicode="&#8328;" /><glyph d="M287 451Q287 405 251.5 375Q216 345 160 345Q104 345 68.5 375.5Q33 406 33 451Q33 480 48.5 503.5Q64 527 91 540Q70 554 59 574Q48 594 48 618Q48 656 79.5 682.5Q111 709 160 709Q209 709 240.5 683Q272 657 272 618Q272 594 260.5 574Q249 554 228 540Q256 527 271.5 503.5Q287 480 287 451ZM106 610Q106 590 121.5 576Q137 562 161 563Q186 564 201 578Q216 592 216 612Q216 633 200 646.5Q184 660 159 660Q136 660 121 645.5Q106 631 106 610ZM93 453Q93 429 111.5 412.5Q130 396 160 396Q190 396 208.5 412.5Q227 429 227 453Q227 479 208.5 496.5Q190 514 160 514Q130 514 111.5 496.5Q93 479 93 453Z" glyph-name="eight.numerator" horiz-adv-x="321" unicode="&#63081;" /><glyph d="M287 592Q287 546 251.5 516Q216 486 160 486Q104 486 68.5 516.5Q33 547 33 592Q33 621 48.5 644.5Q64 668 91 681Q70 695 59 715Q48 735 48 759Q48 797 79.5 823.5Q111 850 160 850Q209 850 240.5 824Q272 798 272 759Q272 735 260.5 715Q249 695 228 681Q256 668 271.5 644.5Q287 621 287 592ZM106 751Q106 731 121.5 717Q137 703 161 704Q186 705 201 719Q216 733 216 753Q216 774 200 787.5Q184 801 159 801Q136 801 121 786.5Q106 772 106 751ZM93 594Q93 570 111.5 553.5Q130 537 160 537Q190 537 208.5 553.5Q227 570 227 594Q227 620 208.5 637.5Q190 655 160 655Q130 655 111.5 637.5Q93 620 93 594Z" glyph-name="eight.superior" horiz-adv-x="321" unicode="&#8312;" /><glyph d="M540 196Q540 107 473 47.5Q406 -12 300 -12Q194 -12 126.5 47.5Q59 107 59 196Q59 255 92 304Q125 353 182 379Q138 403 113.5 444Q89 485 89 533Q89 611 148.5 663Q208 715 302 715Q395 715 454 662.5Q513 610 513 533Q513 485 488 444Q463 403 419 378Q476 352 508 303.5Q540 255 540 196ZM162 528Q162 476 200.5 441.5Q239 407 302 407Q363 407 401.5 442Q440 477 440 528Q440 580 402 614Q364 648 302 648Q239 648 200.5 614Q162 580 162 528ZM137 200Q137 139 182.5 98Q228 57 300 57Q372 57 417.5 98Q463 139 463 200Q463 262 418 302.5Q373 343 300 343Q227 343 182 302.5Q137 262 137 200Z" glyph-name="eight.tab" horiz-adv-x="600" unicode="&#65304;" /><glyph d="M179 48Q179 23 161.5 5.5Q144 -12 118 -12Q93 -12 75.5 5.5Q58 23 58 48Q58 74 75 91Q92 108 118 108Q144 108 161.5 91Q179 74 179 48ZM58 49ZM368 48Q368 23 350.5 5.5Q333 -12 307 -12Q282 -12 264.5 5.5Q247 23 247 48Q247 74 264 91Q281 108 307 108Q333 108 350.5 91Q368 74 368 48ZM247 49ZM558 48Q558 23 540.5 5.5Q523 -12 497 -12Q472 -12 454.5 5.5Q437 23 437 48Q437 74 454 91Q471 108 497 108Q523 108 540.5 91Q558 74 558 48ZM437 49Z" glyph-name="ellipsis" horiz-adv-x="616" unicode="&#8230;" /><glyph d="M306 54Q363 54 408.5 82Q454 110 477 159H552Q525 80 459 34Q393 -12 306 -12Q195 -12 119 65Q43 142 43 253Q43 362 119.5 439Q196 516 306 516Q417 516 491 442Q565 368 565 259V233H118Q124 155 177 104.5Q230 54 306 54ZM306 451Q238 451 187 408Q136 365 121 296H489Q476 366 425.5 408.5Q375 451 306 451ZM306 504ZM358 0ZM437 605H174V658H437ZM305 504Z" glyph-name="emacron" horiz-adv-x="608" unicode="&#275;" /><glyph d="M70 296H987V231H70Z" glyph-name="emdash" horiz-adv-x="1057" unicode="&#8212;" /><glyph d="M70 296H512V231H70Z" glyph-name="endash" horiz-adv-x="582" unicode="&#8211;" /><glyph d="M373 -1Q358 -6 341 -9Q324 -12 306 -12Q195 -12 119 65Q43 142 43 253Q43 362 119.5 439Q196 516 306 516Q417 516 491 442Q565 368 565 259V233H118Q124 155 177 104.5Q230 54 306 54Q363 54 408.5 82Q454 110 477 159H552Q544 134 529.5 111Q515 88 494 65Q422 -16 393 -63Q364 -110 364 -144Q364 -167 376.5 -179Q389 -191 412 -191Q424 -191 436 -188Q448 -185 458 -179V-232Q445 -241 429.5 -245.5Q414 -250 397 -250Q357 -250 328.5 -224.5Q300 -199 300 -160Q300 -124 316 -88.5Q332 -53 373 -1ZM306 451Q238 451 187 408Q136 365 121 296H488Q475 366 425 408.5Q375 451 306 451Z" glyph-name="eogonek" horiz-adv-x="608" unicode="&#281;" /><glyph d="M62 218V278H508V218ZM62 422V482H508V422Z" glyph-name="equal" horiz-adv-x="570" unicode="=" /><glyph d="M413 33Q506 33 583.5 85Q661 137 698 223H754Q707 114 615 51Q523 -12 412 -12Q262 -12 155.5 94.5Q49 201 49 351Q49 501 156 608Q263 715 413 715Q568 715 669 610Q770 505 770 334H195V123Q239 80 295.5 56.5Q352 33 413 33ZM413 669Q352 669 295 646Q238 623 195 580V381H625V585Q583 625 528 647Q473 669 413 669Z" glyph-name="estimated" horiz-adv-x="809" unicode="&#8494;" /><glyph d="M43 251Q43 358 117.5 432.5Q192 507 299 507Q359 507 409.5 481.5Q460 456 492 408Q481 466 450.5 522.5Q420 579 371 633L263 582V628L339 665Q317 686 292.5 705Q268 724 242 741H324Q341 730 358 717.5Q375 705 393 689L494 740V695L424 659Q499 582 538 481Q577 380 577 270Q577 151 499.5 69.5Q422 -12 311 -12Q199 -12 121 64.5Q43 141 43 251ZM504 250Q504 330 448.5 386Q393 442 311 442Q230 442 174 386.5Q118 331 118 251Q118 170 173.5 114Q229 58 311 58Q392 58 448 114Q504 170 504 250Z" glyph-name="eth" horiz-adv-x="632" unicode="&#240;" /><glyph d="M158 214H108L94 451V703H173V451ZM194 48Q194 23 176.5 5.5Q159 -12 133 -12Q108 -12 90.5 5.5Q73 23 73 48Q73 74 90 91Q107 108 133 108Q159 108 176.5 91Q194 74 194 48Z" glyph-name="exclam" horiz-adv-x="266" unicode="!" /><glyph d="M149 290H99L85 53V-199H164V53ZM185 456Q185 481 167.5 498.5Q150 516 124 516Q99 516 81.5 498.5Q64 481 64 456Q64 430 81 413Q98 396 124 396Q150 396 167.5 413Q185 430 185 456Z" glyph-name="exclamdown" horiz-adv-x="248" unicode="&#161;" /><glyph d="M192 0H117V437H28V504H117V563Q117 656 162 704.5Q207 753 294 753Q310 753 326 751Q342 749 356 746V679Q340 683 329 684Q318 685 306 685Q248 685 220 655.5Q192 626 192 562V504H334V437H192Z" glyph-name="f" horiz-adv-x="347" unicode="f" /><glyph d="M192 0H117V437H28V504H117V563Q117 656 162 704.5Q207 753 294 753Q310 753 326 751Q342 749 356 746V679Q340 683 329 684Q318 685 306 685Q248 685 220 655.5Q192 626 192 562V504H452V563Q452 656 497 704.5Q542 753 629 753Q645 753 661 751Q677 749 691 746V679Q675 683 664 684Q653 685 641 685Q582 685 554.5 655.5Q527 626 527 562V504H669V437H527V0H452V437H192Z" glyph-name="f_f" horiz-adv-x="682" unicode="&#64256;" /><glyph d="M192 0H117V437H28V504H117V563Q117 656 162 704.5Q207 753 294 753Q310 753 326 751Q342 749 356 746V679Q340 683 329 684Q318 685 306 685Q248 685 220 655.5Q192 626 192 562V504H452V563Q452 656 497 704.5Q542 753 629 753Q645 753 659.5 751.5Q674 750 686 747V680Q675 683 664 684Q653 685 641 685Q582 685 554.5 655.5Q527 626 527 562V504H669V437H527V0H452V437H192ZM845 0H769V504H845ZM751 669Q751 692 766.5 708Q782 724 807 724Q831 724 847.5 708Q864 692 864 669Q864 646 847.5 630Q831 614 807 614Q782 614 766.5 630Q751 646 751 669Z" glyph-name="f_f_i" horiz-adv-x="932" unicode="&#64259;" /><glyph d="M192 0H117V437H28V504H117V563Q117 656 162 704.5Q207 753 294 753Q310 753 326 751Q342 749 356 746V679Q340 683 329 684Q318 685 306 685Q248 685 220 655.5Q192 626 192 562V504H452V563Q452 656 497 704.5Q542 753 629 753Q645 753 659.5 751.5Q674 750 686 747V680Q675 683 664 684Q653 685 641 685Q582 685 554.5 655.5Q527 626 527 562V504H669V437H527V0H452V437H192ZM769 741V0H845V741Z" glyph-name="f_f_l" horiz-adv-x="932" unicode="&#64260;" /><glyph d="M192 0H117V437H28V504H117V563Q117 656 162 704.5Q207 753 294 753Q310 753 324.5 751.5Q339 750 351 747V680Q340 683 329 684Q318 685 306 685Q248 685 220 655.5Q192 626 192 562V504H334V437H192ZM510 0H434V504H510ZM416 669Q416 692 431.5 708Q447 724 472 724Q496 724 512.5 708Q529 692 529 669Q529 646 512.5 630Q496 614 472 614Q447 614 431.5 630Q416 646 416 669Z" glyph-name="fi" horiz-adv-x="597" unicode="&#64257;" /><glyph d="M120 703H482V631H185L164 412Q191 429 224 438Q257 447 292 447Q397 447 460 385Q523 323 523 220Q523 122 454 55Q385 -12 283 -12Q182 -12 111 51Q40 114 36 209H116Q120 146 166.5 103.5Q213 61 280 61Q349 61 397 107.5Q445 154 445 220Q445 290 400 334Q355 378 282 378Q237 378 203.5 362Q170 346 149 315L85 323Z" glyph-name="five" horiz-adv-x="567" unicode="5" /><glyph d="M67 352H255V297H117L109 214Q120 218 132.5 220.5Q145 223 157 223Q211 223 243.5 192Q276 161 276 111Q276 61 240.5 27.5Q205 -6 152 -6Q101 -6 65 25Q29 56 25 104H87Q89 81 106.5 66Q124 51 150 51Q178 51 197 68.5Q216 86 216 111Q216 137 197 155.5Q178 174 150 174Q134 174 121 168Q108 162 99 151L49 158Z" glyph-name="five.denominator" horiz-adv-x="305" unicode="&#63066;" /><glyph d="M66 211H254V156H116L108 73Q119 77 131.5 79.5Q144 82 156 82Q210 82 242.5 51Q275 20 275 -30Q275 -80 239.5 -113.5Q204 -147 151 -147Q100 -147 64 -116Q28 -85 24 -37H86Q88 -60 105.5 -75Q123 -90 149 -90Q177 -90 196 -72.5Q215 -55 215 -30Q215 -4 196 14.5Q177 33 149 33Q133 33 120 27Q107 21 98 10L48 17Z" glyph-name="five.inferior" horiz-adv-x="304" unicode="&#8325;" /><glyph d="M66 703H254V648H116L108 565Q119 569 131.5 571.5Q144 574 156 574Q210 574 242.5 543Q275 512 275 462Q275 412 239.5 378.5Q204 345 151 345Q100 345 64 376Q28 407 24 455H86Q88 432 105.5 417Q123 402 149 402Q177 402 196 419.5Q215 437 215 462Q215 488 196 506.5Q177 525 149 525Q133 525 120 519Q107 513 98 502L48 509Z" glyph-name="five.numerator" horiz-adv-x="304" unicode="&#63078;" /><glyph d="M66 844H254V789H116L108 706Q119 710 131.5 712.5Q144 715 156 715Q210 715 242.5 684Q275 653 275 603Q275 553 239.5 519.5Q204 486 151 486Q100 486 64 517Q28 548 24 596H86Q88 573 105.5 558Q123 543 149 543Q177 543 196 560.5Q215 578 215 603Q215 629 196 647.5Q177 666 149 666Q133 666 120 660Q107 654 98 643L48 650Z" glyph-name="five.superior" horiz-adv-x="304" unicode="&#8309;" /><glyph d="M136 703H498V631H201L180 412Q207 429 240 438Q273 447 308 447Q413 447 476 385Q539 323 539 220Q539 122 470 55Q401 -12 299 -12Q198 -12 127 51Q56 114 52 209H132Q136 146 182.5 103.5Q229 61 296 61Q365 61 413 107.5Q461 154 461 220Q461 290 416 334Q371 378 298 378Q253 378 219.5 362Q186 346 165 315L101 323Z" glyph-name="five.tab" horiz-adv-x="600" unicode="&#65301;" /><glyph d="M192 0H117V437H28V504H117V563Q117 656 162 704.5Q207 753 294 753Q310 753 324.5 751.5Q339 750 351 747V680Q340 683 329 684Q318 685 306 685Q248 685 220 655.5Q192 626 192 562V504H334V437H192ZM434 741V0H510V741Z" glyph-name="fl" horiz-adv-x="597" unicode="&#64258;" /><glyph d="M332 376 265 -39Q248 -146 205.5 -186Q163 -226 81 -226Q69 -226 55 -224.5Q41 -223 26 -220V-153Q39 -156 49 -157.5Q59 -159 69 -159Q125 -159 152 -133.5Q179 -108 190 -39L257 376H139V444H268L288 566Q305 670 347.5 711.5Q390 753 471 753Q485 753 499.5 751Q514 749 527 746V680Q516 683 506 684Q496 685 484 685Q428 685 401 660Q374 635 363 565L344 444H462V376Z" glyph-name="florin" horiz-adv-x="556" unicode="&#402;" /><glyph d="M24 221 321 703H412L119 232H393V399L469 417V232H546V161H469V0H393V161H24Z" glyph-name="four" horiz-adv-x="575" unicode="4" /><glyph d="M23 120 164 352H234L93 127H201V195L261 209V127H291V71H261V0H201V71H23Z" glyph-name="four.denominator" horiz-adv-x="317" unicode="&#63065;" /><glyph d="M24 -21 165 211H235L94 -14H202V54L262 68V-14H292V-70H262V-141H202V-70H24Z" glyph-name="four.inferior" horiz-adv-x="318" unicode="&#8324;" /><glyph d="M23 471 164 703H234L93 478H201V546L261 560V478H291V422H261V351H201V422H23Z" glyph-name="four.numerator" horiz-adv-x="317" unicode="&#63077;" /><glyph d="M23 612 164 844H234L93 619H201V687L261 701V619H291V563H261V492H201V563H23Z" glyph-name="four.superior" horiz-adv-x="317" unicode="&#8308;" /><glyph d="M37 221 334 703H425L132 232H406V399L482 417V232H559V161H482V0H406V161H37Z" glyph-name="four.tab" horiz-adv-x="600" unicode="&#65300;" /><glyph d="M306 703H375L-161 0H-231Z" glyph-name="fraction" horiz-adv-x="145" unicode="&#8260;" /><glyph d="M182 0H104V703H496V631H182V383H472V311H182ZM798 439Q725 439 680.5 389.5Q636 340 636 263V0H561V504H633V399Q659 453 702.5 482Q746 511 800 511Q806 511 811.5 510.5Q817 510 825 509V438Q821 439 815.5 439Q810 439 798 439Z" glyph-name="franc" horiz-adv-x="858" unicode="&#8355;" /><glyph d="M50 -24H124Q126 -86 174.5 -124Q223 -162 299 -162Q376 -162 424 -118Q472 -74 472 -3V124Q442 77 393 50.5Q344 24 285 24Q183 24 114.5 94.5Q46 165 46 270Q46 374 115 445Q184 516 287 516Q347 516 396.5 489Q446 462 476 412V504H547V4Q547 -99 479 -162.5Q411 -226 299 -226Q193 -226 122.5 -169Q52 -112 50 -24ZM123 270Q123 194 173 142.5Q223 91 298 91Q372 91 423.5 143.5Q475 196 475 270Q475 344 423.5 396Q372 448 298 448Q223 448 173 397Q123 346 123 270ZM296 504Z" glyph-name="g" horiz-adv-x="631" unicode="g" /><glyph d="M50 -24H124Q126 -86 174.5 -124Q223 -162 299 -162Q376 -162 424 -118Q472 -74 472 -3V124Q442 77 393 50.5Q344 24 285 24Q183 24 114.5 94.5Q46 165 46 270Q46 374 115 445Q184 516 287 516Q347 516 396.5 489Q446 462 476 412V504H547V4Q547 -99 479 -162.5Q411 -226 299 -226Q193 -226 122.5 -169Q52 -112 50 -24ZM123 270Q123 194 173 142.5Q223 91 298 91Q372 91 423.5 143.5Q475 196 475 270Q475 344 423.5 396Q372 448 298 448Q223 448 173 397Q123 346 123 270ZM296 504ZM295 566Q235 566 196.5 605.5Q158 645 158 706H214Q214 664 236 639.5Q258 615 295 615Q333 615 355 639.5Q377 664 377 706H433Q433 645 394.5 605.5Q356 566 295 566ZM295 504Z" glyph-name="gbreve" horiz-adv-x="631" unicode="&#287;" /><glyph d="M148 573 260 717H327L440 573H372L294 673L215 573ZM294 504ZM50 -24H124Q126 -86 174.5 -124Q223 -162 299 -162Q376 -162 424 -118Q472 -74 472 -3V124Q442 77 393 50.5Q344 24 285 24Q183 24 114.5 94.5Q46 165 46 270Q46 374 115 445Q184 516 287 516Q347 516 396.5 489Q446 462 476 412V504H547V4Q547 -99 479 -162.5Q411 -226 299 -226Q193 -226 122.5 -169Q52 -112 50 -24ZM123 270Q123 194 173 142.5Q223 91 298 91Q372 91 423.5 143.5Q475 196 475 270Q475 344 423.5 396Q372 448 298 448Q223 448 173 397Q123 346 123 270ZM296 504Z" glyph-name="gcircumflex" horiz-adv-x="631" unicode="&#285;" /><glyph d="M50 -24H124Q126 -86 174.5 -124Q223 -162 299 -162Q376 -162 424 -118Q472 -74 472 -3V124Q442 77 393 50.5Q344 24 285 24Q183 24 114.5 94.5Q46 165 46 270Q46 374 115 445Q184 516 287 516Q347 516 396.5 489Q446 462 476 412V504H547V4Q547 -99 479 -162.5Q411 -226 299 -226Q193 -226 122.5 -169Q52 -112 50 -24ZM123 270Q123 194 173 142.5Q223 91 298 91Q372 91 423.5 143.5Q475 196 475 270Q475 344 423.5 396Q372 448 298 448Q223 448 173 397Q123 346 123 270ZM296 504ZM346 642Q346 621 330.5 606Q315 591 294 591Q272 591 257 606Q242 621 242 642Q242 664 257 679.5Q272 695 294 695Q315 695 330.5 679.5Q346 664 346 642ZM294 504Z" glyph-name="gdotaccent" horiz-adv-x="631" unicode="&#289;" /><glyph d="M353 57Q420 57 459 98.5Q498 140 498 210Q498 274 454 316Q410 358 345 358H258V417H321Q382 417 422.5 454.5Q463 492 463 549Q463 606 420.5 644.5Q378 683 316 683Q246 683 203 637.5Q160 592 160 516V0H85V507Q85 621 148 687Q211 753 316 753Q409 753 472.5 699.5Q536 646 536 562Q536 505 509 461Q482 417 432 395Q496 376 534 324Q572 272 572 204Q572 112 512.5 50Q453 -12 365 -12Q329 -12 303 -5.5Q277 1 258 15V82Q275 69 298 63Q321 57 353 57Z" glyph-name="germandbls" horiz-adv-x="616" unicode="&#223;" /><glyph d="M126 573H198L118 717H45ZM162 504Z" glyph-name="grave" horiz-adv-x="247" unicode="`" /><glyph d="M133 766H205L125 910H52ZM169 697ZM169 703Z" glyph-name="grave.case" horiz-adv-x="283" /><glyph d="M490 386V324L101 127V200L409 354L101 510V583Z" glyph-name="greater" horiz-adv-x="570" unicode="&gt;" /><glyph d="M94 153 483 343V405L94 594V521L396 374L94 227ZM483 6V67H94V6Z" glyph-name="greaterequal" horiz-adv-x="570" unicode="&#8805;" /><glyph d="M157 35 48 254 157 474H232L123 254L232 35ZM307 35 198 254 307 474H382L273 254L382 35Z" glyph-name="guillemotleft" horiz-adv-x="434" unicode="&#171;" /><glyph d="M277 35 386 254 277 474H202L311 254L202 35ZM128 35 237 254 128 474H53L162 254L53 35Z" glyph-name="guillemotright" horiz-adv-x="435" unicode="&#187;" /><glyph d="M157 35 48 254 157 474H232L123 254L232 35Z" glyph-name="guilsinglleft" horiz-adv-x="285" unicode="&#8249;" /><glyph d="M128 474 237 255 128 35H53L162 255L53 474Z" glyph-name="guilsinglright" horiz-adv-x="285" unicode="&#8250;" /><glyph d="M160 0H85V741H160V425Q187 468 230 492Q273 516 324 516Q412 516 465 461.5Q518 407 518 318V0H443V306Q443 371 407 409Q371 447 307 447Q242 447 201 402Q160 357 160 290ZM122 741Z" glyph-name="h" horiz-adv-x="597" unicode="h" /><glyph d="M160 0H85V590H14V652H85V741H160V652H364V590H160V425Q187 468 230 492Q273 516 324 516Q412 516 465 461.5Q518 407 518 318V0H443V306Q443 371 407 409Q371 447 307 447Q242 447 201 402Q160 357 160 290Z" glyph-name="hbar" horiz-adv-x="597" unicode="&#295;" /><glyph d="M-23 810 89 954H156L269 810H201L123 910L44 810ZM123 741ZM160 0H85V741H160V425Q187 468 230 492Q273 516 324 516Q412 516 465 461.5Q518 407 518 318V0H443V306Q443 371 407 409Q371 447 307 447Q242 447 201 402Q160 357 160 290ZM122 741Z" glyph-name="hcircumflex" horiz-adv-x="597" unicode="&#293;" /><glyph d="M121 717 49 573H117L190 717ZM231 717 158 573H227L300 717ZM138 504Z" glyph-name="hungarumlaut" horiz-adv-x="346" unicode="&#733;" /><glyph d="M128 910 56 766H124L197 910ZM238 910 165 766H234L307 910ZM145 697ZM144 703Z" glyph-name="hungarumlaut.case" horiz-adv-x="321" /><glyph d="M68 301H306V229H68Z" glyph-name="hyphen" horiz-adv-x="375" unicode="-" /><glyph d="M163 0H87V504H163ZM69 669Q69 692 84.5 708Q100 724 125 724Q149 724 165.5 708Q182 692 182 669Q182 646 165.5 630Q149 614 125 614Q100 614 84.5 630Q69 646 69 669ZM107 0Z" glyph-name="i" horiz-adv-x="250" unicode="i" /><glyph d="M161 573H89L169 717H242ZM124 504ZM163 0H87V504H163ZM125 504Z" glyph-name="iacute" horiz-adv-x="250" unicode="&#237;" /><glyph d="M-21 573 91 717H158L271 573H203L125 673L46 573ZM125 504ZM163 0H87V504H163ZM125 504Z" glyph-name="icircumflex" horiz-adv-x="250" unicode="&#238;" /><glyph d="M103 639Q103 619 90 605.5Q77 592 57 592Q37 592 23.5 605.5Q10 619 10 639Q10 658 23.5 671.5Q37 685 57 685Q77 685 90 672Q103 659 103 639ZM241 639Q241 619 227 605.5Q213 592 194 592Q174 592 160.5 605.5Q147 619 147 639Q147 659 160.5 672Q174 685 194 685Q213 685 227 671.5Q241 658 241 639ZM125 504ZM163 0H87V504H163ZM125 504Z" glyph-name="idieresis" horiz-adv-x="250" unicode="&#239;" /><glyph d="M163 0H87V504H163ZM125 504ZM89 573H161L81 717H8ZM125 504Z" glyph-name="igrave" horiz-adv-x="250" unicode="&#236;" /><glyph d="M163 0H87V504H163ZM69 669Q69 692 84.5 708Q100 724 125 724Q149 724 165.5 708Q182 692 182 669Q182 646 165.5 630Q149 614 125 614Q100 614 84.5 630Q69 646 69 669ZM107 0ZM342 504H417V-39Q417 -133 372 -179.5Q327 -226 237 -226Q230 -226 223 -225.5Q216 -225 208 -224V-158Q214 -159 217.5 -159Q221 -159 225 -159Q285 -159 313.5 -130Q342 -101 342 -39ZM323 669Q323 692 339 708Q355 724 379 724Q403 724 419.5 708Q436 692 436 669Q436 646 419.5 630Q403 614 379 614Q355 614 339 630Q323 646 323 669Z" glyph-name="ij" horiz-adv-x="505" unicode="&#307;" /><glyph d="M163 0H87V504H163ZM125 504ZM257 605H-6V658H257ZM125 504Z" glyph-name="imacron" horiz-adv-x="250" unicode="&#299;" /><glyph d="M221 366Q177 366 146.5 336Q116 306 116 260Q116 214 146.5 184Q177 154 221 154Q262 154 294.5 180.5Q327 207 354 263Q331 312 296 339Q261 366 221 366ZM219 427Q273 427 319.5 396Q366 365 398 307Q430 366 475.5 397Q521 428 574 428Q642 428 690.5 380Q739 332 739 261Q739 189 691 141.5Q643 94 574 94Q521 94 476 126Q431 158 395 222Q360 157 316 125Q272 93 219 93Q150 93 102 140.5Q54 188 54 260Q54 332 102 379.5Q150 427 219 427ZM574 154Q618 154 648 184Q678 214 678 260Q678 306 648 336Q618 366 574 366Q533 366 499 340.5Q465 315 440 265Q466 210 500 182Q534 154 574 154Z" glyph-name="infinity" horiz-adv-x="794" unicode="&#8734;" /><glyph d="M233 565V-39Q233 -135 188.5 -180.5Q144 -226 53 -226Q40 -226 25 -224.5Q10 -223 -6 -220V-153Q6 -156 17.5 -157.5Q29 -159 41 -159Q101 -159 129.5 -130Q158 -101 158 -39V566Q158 662 202 707.5Q246 753 337 753Q352 753 368 751Q384 749 397 746V680Q377 683 367.5 684Q358 685 349 685Q290 685 261.5 656Q233 627 233 565Z" glyph-name="integral" horiz-adv-x="392" unicode="&#8747;" /><glyph d="M69 669Q69 692 84.5 708Q100 724 125 724Q149 724 165.5 708Q182 692 182 669Q182 646 165.5 630Q149 614 125 614Q100 614 84.5 630Q69 646 69 669ZM155 -179V-232Q141 -241 126 -245.5Q111 -250 94 -250Q53 -250 25 -224.5Q-3 -199 -3 -161Q-3 -127 14.5 -94.5Q32 -62 87 1V504H163V0H151Q101 -57 81 -89Q61 -121 61 -145Q61 -168 73.5 -179.5Q86 -191 109 -191Q120 -191 132 -188Q144 -185 155 -179Z" glyph-name="iogonek" horiz-adv-x="250" unicode="&#303;" /><glyph d="M163 0H87V504H163ZM125 504ZM149 662Q164 647 172 642.5Q180 638 188 638Q203 638 211 651Q219 664 224 697H275Q270 639 249 611.5Q228 584 188 584Q168 584 152.5 591.5Q137 599 116 621Q100 637 91 642Q82 647 72 647Q52 647 41 631.5Q30 616 26 584H-25Q-21 642 4 671.5Q29 701 73 701Q92 701 108.5 693.5Q125 686 149 662ZM125 504Z" glyph-name="itilde" horiz-adv-x="250" unicode="&#297;" /><glyph d="M93 504H168V-39Q168 -133 123 -179.5Q78 -226 -12 -226Q-19 -226 -26 -225.5Q-33 -225 -41 -224V-158Q-35 -159 -31.5 -159Q-28 -159 -24 -159Q36 -159 64.5 -130Q93 -101 93 -39ZM74 669Q74 692 90 708Q106 724 130 724Q154 724 170.5 708Q187 692 187 669Q187 646 170.5 630Q154 614 130 614Q106 614 90 630Q74 646 74 669Z" glyph-name="j" horiz-adv-x="255" unicode="j" /><glyph d="M-15 573 97 717H164L277 573H209L131 673L52 573ZM131 504ZM93 504H168V-39Q168 -135 123.5 -180.5Q79 -226 -12 -226Q-19 -226 -26 -225.5Q-33 -225 -41 -224V-158Q-38 -158 -32.5 -158.5Q-27 -159 -24 -159Q36 -159 64.5 -130Q93 -101 93 -39ZM130 504Z" glyph-name="jcircumflex" horiz-adv-x="255" unicode="&#309;" /><glyph d="M160 0H85V741H160V286L379 504H472L241 277L508 0H409L160 259ZM288 0Z" glyph-name="k" horiz-adv-x="503" unicode="k" /><glyph d="M160 0H85V504H160V286L379 504H472L241 277L508 0H409L160 259Z" glyph-name="kgreenlandic" horiz-adv-x="503" unicode="&#312;" /><glyph d="M87 741V0H163V741ZM125 741ZM252 703ZM233 364ZM125 0Z" glyph-name="l" horiz-adv-x="250" unicode="l" /><glyph d="M162 810H90L170 954H243ZM125 741ZM87 741V0H163V741ZM125 741ZM252 703ZM233 364ZM125 0Z" glyph-name="lacute" horiz-adv-x="250" unicode="&#314;" /><glyph d="M345 662 302 540H253L294 651Q275 653 263 667.5Q251 682 251 701Q251 723 266 738Q281 753 303 753Q325 753 340 738Q355 723 355 701Q355 694 353 686Q351 678 345 662ZM251 703ZM87 741V0H163V741ZM125 741ZM252 703ZM233 364ZM125 0Z" glyph-name="lcaron" horiz-adv-x="271" unicode="&#318;" /><glyph d="M87 741V0H163V741ZM125 741ZM252 703ZM233 364ZM125 0ZM354 363Q354 338 336.5 320.5Q319 303 293 303Q268 303 250.5 320.5Q233 338 233 363Q233 389 250 406Q267 423 293 423Q319 423 336.5 406Q354 389 354 363ZM233 364Z" glyph-name="ldot" horiz-adv-x="337" unicode="&#320;" /><glyph d="M80 322V384L469 581V508L161 354L469 198V125Z" glyph-name="less" horiz-adv-x="570" unicode="&lt;" /><glyph d="M476 153 87 343V405L476 594V521L174 374L476 227ZM87 6V67H476V6Z" glyph-name="lessequal" horiz-adv-x="570" unicode="&#8804;" /><glyph d="M87 741V0H163V741ZM125 741ZM252 703ZM233 364ZM125 0ZM354 363Q354 338 336.5 320.5Q319 303 293 303Q268 303 250.5 320.5Q233 338 233 363Q233 389 250 406Q267 423 293 423Q319 423 336.5 406Q354 389 354 363ZM233 364ZM423 741V0H499V741ZM461 741ZM588 703ZM569 364ZM461 0Z" glyph-name="lgeminada" horiz-adv-x="586" /><glyph d="M57 326V386H504V127H444V326Z" glyph-name="logicalnot" horiz-adv-x="570" unicode="&#172;" /><glyph d="M160 0H85V566Q85 662 129.5 707.5Q174 753 265 753Q280 753 295.5 751Q311 749 324 746V680Q299 684 291.5 684.5Q284 685 277 685Q217 685 188.5 656Q160 627 160 565Z" glyph-name="longs" horiz-adv-x="265" unicode="&#383;" /><glyph d="M160 0H85V566Q85 662 129.5 707.5Q174 753 265 753Q280 753 295.5 751Q311 749 324 746V680Q299 684 291.5 684.5Q284 685 277 685Q217 685 188.5 656Q160 627 160 565ZM377 504V665L452 683V504H594V437H452V166Q452 104 472.5 79.5Q493 55 540 55Q560 55 578 61.5Q596 68 616 82V14Q595 0 573.5 -6Q552 -12 525 -12Q450 -12 413.5 30Q377 72 377 161V437H290V504ZM541 746ZM498 10ZM442 0Z" glyph-name="longs_t" horiz-adv-x="638" unicode="&#64261;" /><glyph d="M277 -12 35 365 278 715H325L569 365L327 -12ZM302 632 115 365 302 74 489 365Z" glyph-name="lozenge" horiz-adv-x="604" unicode="&#9674;" /><glyph d="M215 0H139V322L33 260V332L139 394V741H215V438L323 501V429L215 366Z" glyph-name="lslash" horiz-adv-x="343" unicode="&#322;" /><glyph d="M160 0H85V504H157V421Q182 466 225 491Q268 516 319 516Q380 516 425 488Q470 460 492 409Q518 460 564 488Q610 516 668 516Q754 516 806 461.5Q858 407 858 318V0H783V306Q783 371 748 409Q713 447 651 447Q589 447 549 402Q509 357 509 290V0H434V306Q434 371 399 409Q364 447 302 447Q240 447 200 402Q160 357 160 290Z" glyph-name="m" horiz-adv-x="937" unicode="m" /><glyph d="M308 605H45V658H308ZM176 504Z" glyph-name="macron" horiz-adv-x="352" unicode="&#175;" /><glyph d="M315 796H52V849H315ZM183 695ZM182 703Z" glyph-name="macron.case" horiz-adv-x="373" /><glyph d="M62 321V381H508V321Z" glyph-name="minus" horiz-adv-x="570" unicode="&#8722;" /><glyph d="M296 57Q359 57 399 102Q439 147 439 214V504H514V0H442V84Q416 39 373 13.5Q330 -12 279 -12Q244 -12 215 -1.5Q186 9 165 30V-212H90V504H165V203Q165 136 200 96.5Q235 57 296 57Z" glyph-name="mu" horiz-adv-x="604" unicode="&#181;" /><glyph d="M125 148 82 191 242 351 85 509 128 552 286 394 443 552 486 509 329 352 489 191 445 148 285 308Z" glyph-name="multiply" horiz-adv-x="570" unicode="&#215;" /><glyph d="M160 0H85V504H157V421Q183 466 227 491Q271 516 324 516Q412 516 465 461.5Q518 407 518 318V0H443V301Q443 370 407.5 408.5Q372 447 307 447Q242 447 201 402Q160 357 160 290ZM67 546ZM304 504ZM302 0Z" glyph-name="n" horiz-adv-x="597" unicode="n" /><glyph d="M341 573H269L349 717H422ZM304 504ZM160 0H85V504H157V421Q183 466 227 491Q271 516 324 516Q412 516 465 461.5Q518 407 518 318V0H443V301Q443 370 407.5 408.5Q372 447 307 447Q242 447 201 402Q160 357 160 290ZM67 546ZM304 504ZM302 0Z" glyph-name="nacute" horiz-adv-x="597" unicode="&#324;" /><glyph d="M109 655 66 546H22L58 634Q40 637 28.5 651Q17 665 17 681Q17 702 31 716Q45 730 66 730Q87 730 101 716Q115 702 115 681Q115 676 113.5 670Q112 664 109 655ZM67 793ZM66 546ZM160 0H85V504H157V421Q183 466 227 491Q271 516 324 516Q412 516 465 461.5Q518 407 518 318V0H443V301Q443 370 407.5 408.5Q372 447 307 447Q242 447 201 402Q160 357 160 290ZM67 546ZM304 504ZM302 0Z" glyph-name="napostrophe" horiz-adv-x="597" unicode="&#329;" /><glyph d="M158 717 270 573H337L450 717H382L304 617L225 717ZM304 786ZM304 504ZM160 0H85V504H157V421Q183 466 227 491Q271 516 324 516Q412 516 465 461.5Q518 407 518 318V0H443V301Q443 370 407.5 408.5Q372 447 307 447Q242 447 201 402Q160 357 160 290ZM67 546ZM304 504ZM302 0Z" glyph-name="ncaron" horiz-adv-x="597" unicode="&#328;" /><glyph d="M279 715Q383 715 454 645Q525 575 525 474Q525 425 506.5 372Q488 319 453 269L264 0H173L370 270Q346 257 318.5 250Q291 243 262 243Q167 243 100 311Q33 379 33 476Q33 575 104.5 645Q176 715 279 715ZM447 476Q447 546 398.5 595Q350 644 279 644Q209 644 160 595Q111 546 111 476Q111 407 159.5 359.5Q208 312 279 312Q350 312 398.5 359.5Q447 407 447 476Z" glyph-name="nine" horiz-adv-x="573" unicode="9" /><glyph d="M152 358Q205 358 242 322.5Q279 287 279 236Q279 210 269.5 184.5Q260 159 239 127L152 0H82L171 125Q164 122 157.5 121Q151 120 144 120Q94 120 59.5 153.5Q25 187 25 236Q25 287 62 322.5Q99 358 152 358ZM218 236Q218 265 199 284Q180 303 152 303Q124 303 105 283.5Q86 264 86 236Q86 209 105.5 189Q125 169 152 169Q180 169 199 188.5Q218 208 218 236Z" glyph-name="nine.denominator" horiz-adv-x="305" unicode="&#63070;" /><glyph d="M152 217Q205 217 242 181.5Q279 146 279 95Q279 69 269.5 43.5Q260 18 239 -14L152 -141H82L171 -16Q164 -19 157.5 -20Q151 -21 144 -21Q94 -21 59.5 12.5Q25 46 25 95Q25 146 62 181.5Q99 217 152 217ZM218 95Q218 124 199 143Q180 162 152 162Q124 162 105 142.5Q86 123 86 95Q86 68 105.5 48Q125 28 152 28Q180 28 199 47.5Q218 67 218 95Z" glyph-name="nine.inferior" horiz-adv-x="305" unicode="&#8329;" /><glyph d="M152 709Q205 709 242 673.5Q279 638 279 587Q279 561 269.5 535.5Q260 510 239 478L152 351H82L171 476Q164 473 157.5 472Q151 471 144 471Q94 471 59.5 504.5Q25 538 25 587Q25 638 62 673.5Q99 709 152 709ZM218 587Q218 616 199 635Q180 654 152 654Q124 654 105 634.5Q86 615 86 587Q86 560 105.5 540Q125 520 152 520Q180 520 199 539.5Q218 559 218 587Z" glyph-name="nine.numerator" horiz-adv-x="306" unicode="&#63082;" /><glyph d="M152 850Q205 850 242 814.5Q279 779 279 728Q279 702 269.5 676.5Q260 651 239 619L152 492H82L171 617Q164 614 157.5 613Q151 612 144 612Q94 612 59.5 645.5Q25 679 25 728Q25 779 62 814.5Q99 850 152 850ZM218 728Q218 757 199 776Q180 795 152 795Q124 795 105 775.5Q86 756 86 728Q86 701 105.5 681Q125 661 152 661Q180 661 199 680.5Q218 700 218 728Z" glyph-name="nine.superior" horiz-adv-x="305" unicode="&#8313;" /><glyph d="M293 715Q397 715 468 645Q539 575 539 474Q539 425 520.5 372Q502 319 467 269L278 0H187L384 270Q360 257 332.5 250Q305 243 276 243Q181 243 114 311Q47 379 47 476Q47 575 118.5 645Q190 715 293 715ZM461 476Q461 546 412.5 595Q364 644 293 644Q223 644 174 595Q125 546 125 476Q125 407 173.5 359.5Q222 312 293 312Q364 312 412.5 359.5Q461 407 461 476Z" glyph-name="nine.tab" horiz-adv-x="600" unicode="&#65305;" /><glyph d="M193 134H130L179 218H62V278H214L298 422H62V482H333L382 566H445L396 482H508V422H361L277 278H508V218H242Z" glyph-name="notequal" horiz-adv-x="570" unicode="&#8800;" /><glyph d="M160 0H85V504H157V421Q183 466 227 491Q271 516 324 516Q412 516 465 461.5Q518 407 518 318V0H443V301Q443 370 407.5 408.5Q372 447 307 447Q242 447 201 402Q160 357 160 290ZM67 546ZM304 504ZM302 0ZM329 662Q344 647 352 642.5Q360 638 368 638Q383 638 391 651Q399 664 404 697H455Q450 639 429 611.5Q408 584 368 584Q348 584 332.5 591.5Q317 599 296 621Q280 637 271 642Q262 647 252 647Q232 647 221 631.5Q210 616 206 584H155Q159 642 184 671.5Q209 701 253 701Q272 701 288.5 693.5Q305 686 329 662ZM305 504Z" glyph-name="ntilde" horiz-adv-x="597" unicode="&#241;" /><glyph d="M552 277 537 212H429L387 44H320L362 212H210L168 44H101L143 212H35L50 277H159L197 425H89L104 489H212L255 658H322L279 489H431L474 658H541L498 489H606L591 425H483L445 277ZM263 425 226 277H378L416 425Z" glyph-name="numbersign" horiz-adv-x="640" unicode="#" /><glyph d="M503 253Q503 334 447.5 390Q392 446 310 446Q229 446 173.5 390Q118 334 118 253Q118 171 173.5 114.5Q229 58 310 58Q392 58 447.5 114.5Q503 171 503 253ZM43 253Q43 363 120 439.5Q197 516 310 516Q423 516 500 439.5Q577 363 577 253Q577 141 500 64.5Q423 -12 310 -12Q197 -12 120 64.5Q43 141 43 253ZM311 504Z" glyph-name="o" horiz-adv-x="620" unicode="o" /><glyph d="M348 573H276L356 717H429ZM311 504ZM503 253Q503 334 447.5 390Q392 446 310 446Q229 446 173.5 390Q118 334 118 253Q118 171 173.5 114.5Q229 58 310 58Q392 58 447.5 114.5Q503 171 503 253ZM43 253Q43 363 120 439.5Q197 516 310 516Q423 516 500 439.5Q577 363 577 253Q577 141 500 64.5Q423 -12 310 -12Q197 -12 120 64.5Q43 141 43 253ZM311 504Z" glyph-name="oacute" horiz-adv-x="620" unicode="&#243;" /><glyph d="M503 253Q503 334 447.5 390Q392 446 310 446Q229 446 173.5 390Q118 334 118 253Q118 171 173.5 114.5Q229 58 310 58Q392 58 447.5 114.5Q503 171 503 253ZM43 253Q43 363 120 439.5Q197 516 310 516Q423 516 500 439.5Q577 363 577 253Q577 141 500 64.5Q423 -12 310 -12Q197 -12 120 64.5Q43 141 43 253ZM311 504ZM311 566Q251 566 212.5 605.5Q174 645 174 706H230Q230 664 252 639.5Q274 615 311 615Q349 615 371 639.5Q393 664 393 706H449Q449 645 410.5 605.5Q372 566 311 566ZM311 504Z" glyph-name="obreve" horiz-adv-x="620" unicode="&#335;" /><glyph d="M165 573 277 717H344L457 573H389L311 673L232 573ZM311 504ZM503 253Q503 334 447.5 390Q392 446 310 446Q229 446 173.5 390Q118 334 118 253Q118 171 173.5 114.5Q229 58 310 58Q392 58 447.5 114.5Q503 171 503 253ZM43 253Q43 363 120 439.5Q197 516 310 516Q423 516 500 439.5Q577 363 577 253Q577 141 500 64.5Q423 -12 310 -12Q197 -12 120 64.5Q43 141 43 253ZM311 504Z" glyph-name="ocircumflex" horiz-adv-x="620" unicode="&#244;" /><glyph d="M289 639Q289 619 276 605.5Q263 592 243 592Q223 592 209.5 605.5Q196 619 196 639Q196 658 209.5 671.5Q223 685 243 685Q263 685 276 672Q289 659 289 639ZM427 639Q427 619 413 605.5Q399 592 380 592Q360 592 346.5 605.5Q333 619 333 639Q333 659 346.5 672Q360 685 380 685Q399 685 413 671.5Q427 658 427 639ZM311 504ZM503 253Q503 334 447.5 390Q392 446 310 446Q229 446 173.5 390Q118 334 118 253Q118 171 173.5 114.5Q229 58 310 58Q392 58 447.5 114.5Q503 171 503 253ZM43 253Q43 363 120 439.5Q197 516 310 516Q423 516 500 439.5Q577 363 577 253Q577 141 500 64.5Q423 -12 310 -12Q197 -12 120 64.5Q43 141 43 253ZM311 504Z" glyph-name="odieresis" horiz-adv-x="620" unicode="&#246;" /><glyph d="M43 253Q43 361 119.5 438.5Q196 516 302 516Q380 516 443.5 477Q507 438 540 371Q571 438 632 477Q693 516 766 516Q876 516 950.5 442Q1025 368 1025 259V233H578Q584 155 637 104.5Q690 54 766 54Q823 54 868.5 82Q914 110 936 159H1011Q985 81 918.5 34.5Q852 -12 765 -12Q692 -12 631.5 27Q571 66 540 133Q507 66 443.5 27Q380 -12 302 -12Q196 -12 119.5 66Q43 144 43 253ZM766 451Q697 451 646 408Q595 365 581 296H948Q935 366 885 408.5Q835 451 766 451ZM503 253Q503 334 447.5 390Q392 446 310 446Q229 446 173.5 390Q118 334 118 253Q118 171 173.5 114.5Q229 58 310 58Q392 58 447.5 114.5Q503 171 503 253Z" glyph-name="oe" horiz-adv-x="1067" unicode="&#339;" /><glyph d="M37 -161Q37 -127 54.5 -94Q72 -61 129 3L191 0Q141 -57 121 -89Q101 -121 101 -145Q101 -168 113.5 -179.5Q126 -191 149 -191Q160 -191 172 -188Q184 -185 195 -179V-232Q181 -241 166 -245.5Q151 -250 134 -250Q93 -250 65 -224.5Q37 -199 37 -161ZM174 0Z" glyph-name="ogonek" horiz-adv-x="244" unicode="&#731;" /><glyph d="M503 253Q503 334 447.5 390Q392 446 310 446Q229 446 173.5 390Q118 334 118 253Q118 171 173.5 114.5Q229 58 310 58Q392 58 447.5 114.5Q503 171 503 253ZM43 253Q43 363 120 439.5Q197 516 310 516Q423 516 500 439.5Q577 363 577 253Q577 141 500 64.5Q423 -12 310 -12Q197 -12 120 64.5Q43 141 43 253ZM311 504ZM275 573H347L267 717H194ZM311 504Z" glyph-name="ograve" horiz-adv-x="620" unicode="&#242;" /><glyph d="M294 717 222 573H290L363 717ZM404 717 331 573H400L473 717ZM311 504ZM503 253Q503 334 447.5 390Q392 446 310 446Q229 446 173.5 390Q118 334 118 253Q118 171 173.5 114.5Q229 58 310 58Q392 58 447.5 114.5Q503 171 503 253ZM43 253Q43 363 120 439.5Q197 516 310 516Q423 516 500 439.5Q577 363 577 253Q577 141 500 64.5Q423 -12 310 -12Q197 -12 120 64.5Q43 141 43 253ZM311 504Z" glyph-name="ohungarumlaut" horiz-adv-x="620" unicode="&#337;" /><glyph d="M442 605H179V658H442ZM310 504ZM503 253Q503 334 447.5 390Q392 446 310 446Q229 446 173.5 390Q118 334 118 253Q118 171 173.5 114.5Q229 58 310 58Q392 58 447.5 114.5Q503 171 503 253ZM43 253Q43 363 120 439.5Q197 516 310 516Q423 516 500 439.5Q577 363 577 253Q577 141 500 64.5Q423 -12 310 -12Q197 -12 120 64.5Q43 141 43 253ZM311 504Z" glyph-name="omacron" horiz-adv-x="620" unicode="&#333;" /><glyph d="M247 0H169V631H13L32 703H247Z" glyph-name="one" horiz-adv-x="344" unicode="1" /><glyph d="M151 0H91V294H17L31 352H151Z" glyph-name="one.denominator" horiz-adv-x="205" unicode="&#63062;" /><glyph d="M150 -141H90V153H16L30 211H150Z" glyph-name="one.inferior" horiz-adv-x="204" unicode="&#8321;" /><glyph d="M150 351H90V645H16L30 703H150Z" glyph-name="one.numerator" horiz-adv-x="204" unicode="&#63074;" /><glyph d="M523 0H100V71H271V631H115L134 703H350V71H523Z" glyph-name="one.tab" horiz-adv-x="600" unicode="&#65297;" /><glyph d="M662 0H412V49L550 179Q573 201 582 216.5Q591 232 591 248Q591 271 574.5 285.5Q558 300 532 300Q504 300 487 283Q470 266 469 240H407Q410 292 445 325Q480 358 534 358Q587 358 620 329Q653 300 653 252Q653 224 639 198.5Q625 173 585 136L501 58H662ZM197 351H137V645H63L77 703H197ZM569 703H638L102 0H32Z" glyph-name="onehalf" horiz-adv-x="714" unicode="&#189;" /><glyph d="M352 120 493 352H563L422 127H530V195L590 209V127H620V71H590V0H530V71H352ZM197 351H137V645H63L77 703H197ZM569 703H638L102 0H32Z" glyph-name="onequarter" horiz-adv-x="678" unicode="&#188;" /><glyph d="M150 492H90V786H16L30 844H150Z" glyph-name="onesuperior" horiz-adv-x="204" unicode="&#185;" /><glyph d="M238 457V491Q226 472 204.5 461Q183 450 157 450Q119 450 96 470Q73 490 73 522Q73 553 94 573Q115 593 157 602L236 619V624Q236 644 222 656Q208 668 185 668Q162 668 147.5 656Q133 644 131 624H77Q79 663 110 689Q141 715 186 715Q235 715 262.5 689Q290 663 290 619V457ZM169 495Q197 495 216.5 514Q236 533 236 558V578L168 563Q148 559 138.5 550Q129 541 129 527Q129 512 140 503.5Q151 495 169 495ZM78 386H290V333H78Z" glyph-name="ordfeminine" horiz-adv-x="367" unicode="&#170;" /><glyph d="M339 585Q339 639 300.5 677Q262 715 205 715Q150 715 111.5 677Q73 639 73 585Q73 529 111.5 489.5Q150 450 205 450Q262 450 300.5 489Q339 528 339 585ZM130 583Q130 615 152 638Q174 661 206 661Q240 661 261.5 638.5Q283 616 283 583Q283 549 261.5 526.5Q240 504 206 504Q174 504 152 527Q130 550 130 583ZM78 386H335V333H78Z" glyph-name="ordmasculine" horiz-adv-x="412" unicode="&#186;" /><glyph d="M171 28 122 -32H47L124 64Q87 101 67 150Q47 199 47 253Q47 363 124 439.5Q201 516 314 516Q353 516 390 505.5Q427 495 459 475L508 536H582L504 439Q541 403 561 354.5Q581 306 581 253Q581 142 504 65Q427 -12 314 -12Q275 -12 238.5 -2Q202 8 171 28ZM314 446Q233 446 177 390Q121 334 121 253Q121 215 134 181Q147 147 172 120L415 418Q393 432 367 439Q341 446 314 446ZM314 58Q395 58 450.5 114.5Q506 171 506 253Q506 290 493.5 323.5Q481 357 457 383L214 86Q236 72 261.5 65Q287 58 314 58Z" glyph-name="oslash" horiz-adv-x="628" unicode="&#248;" /><glyph d="M503 253Q503 334 447.5 390Q392 446 310 446Q229 446 173.5 390Q118 334 118 253Q118 171 173.5 114.5Q229 58 310 58Q392 58 447.5 114.5Q503 171 503 253ZM43 253Q43 363 120 439.5Q197 516 310 516Q423 516 500 439.5Q577 363 577 253Q577 141 500 64.5Q423 -12 310 -12Q197 -12 120 64.5Q43 141 43 253ZM311 504ZM335 662Q350 647 358 642.5Q366 638 374 638Q389 638 397 651Q405 664 410 697H461Q456 639 435 611.5Q414 584 374 584Q354 584 338.5 591.5Q323 599 302 621Q286 637 277 642Q268 647 258 647Q238 647 227 631.5Q216 616 212 584H161Q165 642 190 671.5Q215 701 259 701Q278 701 294.5 693.5Q311 686 335 662ZM311 504Z" glyph-name="otilde" horiz-adv-x="620" unicode="&#245;" /><glyph d="M85 -212V504H157V401Q190 455 244.5 485.5Q299 516 365 516Q474 516 547 440.5Q620 365 620 253Q620 140 546 64Q472 -12 362 -12Q299 -12 246 17Q193 46 160 98V-212ZM542 253Q542 334 486.5 390.5Q431 447 349 447Q268 447 213 391Q158 335 158 253Q158 171 213 114Q268 57 349 57Q431 57 486.5 114Q542 171 542 253Z" glyph-name="p" horiz-adv-x="664" unicode="p" /><glyph d="M337 703V-140H274V279H266Q162 279 97 337.5Q32 396 32 495Q32 590 97.5 646.5Q163 703 266 703ZM509 -140H446V703H509Z" glyph-name="paragraph" horiz-adv-x="614" unicode="&#182;" /><glyph d="M256 -140H178Q116 -40 83.5 81Q51 202 51 336Q51 463 83.5 584Q116 705 178 810H256Q192 701 159.5 580.5Q127 460 127 336Q127 203 159.5 82.5Q192 -38 256 -140Z" glyph-name="parenleft" horiz-adv-x="286" unicode="(" /><glyph d="M30 -140H108Q170 -40 202.5 81Q235 202 235 336Q235 463 202.5 584Q170 705 108 810H30Q94 701 126.5 580.5Q159 460 159 336Q159 203 126.5 82.5Q94 -38 30 -140Z" glyph-name="parenright" horiz-adv-x="286" unicode=")" /><glyph d="M31 241Q31 343 102 414.5Q173 486 275 486Q338 486 392 459.5Q446 433 478 385Q452 526 365.5 601.5Q279 677 135 683V753Q341 747 448.5 619.5Q556 492 556 264Q556 148 479.5 68Q403 -12 291 -12Q182 -12 106.5 62Q31 136 31 241ZM481 241Q481 317 426.5 369.5Q372 422 293 422Q214 422 159.5 369.5Q105 317 105 241Q105 165 159.5 111.5Q214 58 293 58Q372 58 426.5 111Q481 164 481 241Z" glyph-name="partialdiff" horiz-adv-x="607" unicode="&#8706;" /><glyph d="M99 545Q99 589 128.5 619Q158 649 202 649Q246 649 275.5 619Q305 589 305 545Q305 502 275.5 472Q246 442 202 442Q158 442 128.5 472Q99 502 99 545ZM368 546Q368 614 320.5 661Q273 708 202 708Q131 708 83.5 661Q36 614 36 546Q36 477 83.5 430Q131 383 202 383Q273 383 320.5 430Q368 477 368 546ZM448 158Q448 201 478 231Q508 261 551 261Q595 261 624.5 231Q654 201 654 158Q654 114 624.5 84.5Q595 55 551 55Q507 55 477.5 84.5Q448 114 448 158ZM717 158Q717 227 669.5 273.5Q622 320 551 320Q480 320 433 273.5Q386 227 386 158Q386 89 433 42Q480 -5 551 -5Q622 -5 669.5 42Q717 89 717 158ZM609 703H678L142 0H72Z" glyph-name="percent" horiz-adv-x="753" unicode="%" /><glyph d="M179 48Q179 23 161.5 5.5Q144 -12 118 -12Q93 -12 75.5 5.5Q58 23 58 48Q58 74 75 91Q92 108 118 108Q144 108 161.5 91Q179 74 179 48ZM58 49Z" glyph-name="period" horiz-adv-x="237" unicode="." /><glyph d="M184 363Q184 338 166.5 320.5Q149 303 123 303Q98 303 80.5 320.5Q63 338 63 363Q63 389 80 406Q97 423 123 423Q149 423 166.5 406Q184 389 184 363ZM63 364Z" glyph-name="periodcentered" horiz-adv-x="248" unicode="&#183;" /><glyph d="M99 545Q99 589 128.5 619Q158 649 202 649Q246 649 275.5 619Q305 589 305 545Q305 502 275.5 472Q246 442 202 442Q158 442 128.5 472Q99 502 99 545ZM368 546Q368 614 320.5 661Q273 708 202 708Q131 708 83.5 661Q36 614 36 546Q36 477 83.5 430Q131 383 202 383Q273 383 320.5 430Q368 477 368 546ZM448 158Q448 201 478 231Q508 261 551 261Q595 261 624.5 231Q654 201 654 158Q654 114 624.5 84.5Q595 55 551 55Q507 55 477.5 84.5Q448 114 448 158ZM717 158Q717 227 669.5 273.5Q622 320 551 320Q480 320 433 273.5Q386 227 386 158Q386 89 433 42Q480 -5 551 -5Q622 -5 669.5 42Q717 89 717 158ZM826 158Q826 201 856 231Q886 261 930 261Q973 261 1002.5 231Q1032 201 1032 158Q1032 114 1003 84.5Q974 55 930 55Q885 55 855.5 84.5Q826 114 826 158ZM1095 158Q1095 227 1047.5 273.5Q1000 320 930 320Q859 320 811.5 273.5Q764 227 764 158Q764 89 811.5 42Q859 -5 930 -5Q1000 -5 1047.5 42Q1095 89 1095 158ZM609 703H678L142 0H72Z" glyph-name="perthousand" horiz-adv-x="1127" unicode="&#8240;" /><glyph d="M16 504H635V435H523V0H448V435H201V0H127V435H16Z" glyph-name="pi" horiz-adv-x="650" unicode="&#960;" /><glyph d="M315 127H255V320H62V380H255V573H315V380H508V320H315Z" glyph-name="plus" horiz-adv-x="570" unicode="+" /><glyph d="M315 158H255V335H62V395H255V573H315V395H508V335H315ZM61 6V67H508V6Z" glyph-name="plusminus" horiz-adv-x="570" unicode="&#177;" /><glyph d="M216 0H138V631H36V703H693V631H591V0H513V631H216Z" glyph-name="product" horiz-adv-x="729" unicode="&#8719;" /><glyph d="M299 -12Q190 -12 117 63.5Q44 139 44 251Q44 364 117.5 440Q191 516 301 516Q366 516 420 485.5Q474 455 507 401V504H578V-212H503V98Q470 46 416 17Q362 -12 299 -12ZM121 252Q121 170 176.5 113.5Q232 57 314 57Q395 57 450.5 113.5Q506 170 506 252Q506 334 450.5 390.5Q395 447 314 447Q232 447 176.5 390.5Q121 334 121 252Z" glyph-name="q" horiz-adv-x="663" unicode="q" /><glyph d="M207 250V214H276L371 307Q427 362 453 416Q479 470 479 530Q479 613 420 664Q361 715 268 715Q165 715 101.5 656.5Q38 598 33 499H111Q115 567 156 606Q197 645 264 645Q324 645 361 612Q398 579 398 525Q398 478 377 434Q356 390 314 351ZM303 48Q303 23 285.5 5.5Q268 -12 242 -12Q217 -12 199.5 5.5Q182 23 182 48Q182 74 199 91Q216 108 242 108Q268 108 285.5 91Q303 74 303 48Z" glyph-name="question" horiz-adv-x="530" unicode="?" /><glyph d="M314 254V290H245L150 197Q94 142 68 88Q42 34 42 -26Q42 -109 101 -160Q160 -211 253 -211Q356 -211 419.5 -152.5Q483 -94 488 5H410Q406 -63 365 -102Q324 -141 257 -141Q197 -141 160 -108Q123 -75 123 -21Q123 26 144 70Q165 114 207 153ZM218 456Q218 481 235.5 498.5Q253 516 279 516Q304 516 321.5 498.5Q339 481 339 456Q339 430 322 413Q305 396 279 396Q253 396 235.5 413Q218 430 218 456Z" glyph-name="questiondown" horiz-adv-x="518" unicode="&#191;" /><glyph d="M125 472H77L62 678V703H139V678ZM250 472H202L187 678V703H264V678Z" glyph-name="quotedbl" horiz-adv-x="327" unicode="&quot;" /><glyph d="M100 -155H42L103 -11Q82 -6 69 11Q56 28 56 48Q56 74 73 91Q90 108 116 108Q142 108 160 91Q178 74 178 49Q178 43 176 35.5Q174 28 168 13ZM258 -155H200L261 -11Q240 -6 227 11Q214 28 214 48Q214 74 231 91Q248 108 274 108Q300 108 318 91Q336 74 336 49Q336 43 334 35.5Q332 28 326 13Z" glyph-name="quotedblbase" horiz-adv-x="392" unicode="&#8222;" /><glyph d="M128 703H186L125 559Q146 554 159 537Q172 520 172 500Q172 474 155 457Q138 440 112 440Q86 440 68 457Q50 474 50 499Q50 505 52 512.5Q54 520 60 535ZM287 703H345L284 559Q305 554 318 537Q331 520 331 500Q331 474 314 457Q297 440 271 440Q245 440 227 457Q209 474 209 499Q209 505 211 512.5Q213 520 219 535Z" glyph-name="quotedblleft" horiz-adv-x="391" unicode="&#8220;" /><glyph d="M117 452H59L120 596Q99 601 86 618Q73 635 73 655Q73 681 90 698Q107 715 133 715Q159 715 177 698Q195 681 195 656Q195 650 193 642.5Q191 635 185 620ZM275 452H217L278 596Q257 601 244 618Q231 635 231 655Q231 681 248 698Q265 715 291 715Q317 715 335 698Q353 681 353 656Q353 650 351 642.5Q349 635 343 620Z" glyph-name="quotedblright" horiz-adv-x="392" unicode="&#8221;" /><glyph d="M128 703H186L125 559Q146 554 159 537Q172 520 172 500Q172 474 155 457Q138 440 112 440Q86 440 68 457Q50 474 50 499Q50 505 52 512.5Q54 520 60 535Z" glyph-name="quoteleft" horiz-adv-x="231" unicode="&#8216;" /><glyph d="M117 452H59L120 596Q99 601 86 618Q73 635 73 655Q73 681 90 698Q107 715 133 715Q159 715 177 698Q195 681 195 656Q195 650 193 642.5Q191 635 185 620Z" glyph-name="quoteright" horiz-adv-x="234" unicode="&#8217;" /><glyph d="M100 -155H42L103 -11Q82 -6 69 11Q56 28 56 48Q56 74 73 91Q90 108 116 108Q142 108 160 91Q178 74 178 49Q178 43 176 35.5Q174 28 168 13Z" glyph-name="quotesinglbase" horiz-adv-x="234" unicode="&#8218;" /><glyph d="M125 472H77L62 678V703H139V678Z" glyph-name="quotesingle" horiz-adv-x="202" unicode="'" /><glyph d="M322 439Q249 439 204.5 389.5Q160 340 160 263V0H85V504H157V399Q183 453 226.5 482Q270 511 324 511Q330 511 335.5 510.5Q341 510 349 509V438Q345 439 339.5 439Q334 439 322 439ZM222 504ZM122 0Z" glyph-name="r" horiz-adv-x="372" unicode="r" /><glyph d="M259 573H187L267 717H340ZM222 504ZM322 439Q249 439 204.5 389.5Q160 340 160 263V0H85V504H157V399Q183 453 226.5 482Q270 511 324 511Q330 511 335.5 510.5Q341 510 349 509V438Q345 439 339.5 439Q334 439 322 439ZM222 504ZM122 0Z" glyph-name="racute" horiz-adv-x="372" unicode="&#341;" /><glyph d="M300 0H215L92 369H20V436H150L258 99L448 703H525Z" glyph-name="radical" horiz-adv-x="539" unicode="&#8730;" /><glyph d="M75 717 187 573H254L367 717H299L221 617L142 717ZM221 786ZM221 504ZM322 439Q249 439 204.5 389.5Q160 340 160 263V0H85V504H157V399Q183 453 226.5 482Q270 511 324 511Q330 511 335.5 510.5Q341 510 349 509V438Q345 439 339.5 439Q334 439 322 439ZM222 504ZM122 0Z" glyph-name="rcaron" horiz-adv-x="372" unicode="&#345;" /><glyph d="M297 230Q196 230 125 300.5Q54 371 54 472Q54 573 125 644Q196 715 297 715Q399 715 470 644Q541 573 541 472Q541 371 470 300.5Q399 230 297 230ZM297 667Q216 667 159.5 610.5Q103 554 103 472Q103 391 159.5 334.5Q216 278 297 278Q379 278 435.5 334Q492 390 492 472Q492 554 435.5 610.5Q379 667 297 667ZM255 357H202V589H315Q353 589 378 568Q403 547 403 513Q403 487 387.5 466.5Q372 446 346 436L414 357H351L288 431H255ZM309 543H255V474H309Q327 474 338 484Q349 494 349 509Q349 525 338 534Q327 543 309 543Z" glyph-name="registered" horiz-adv-x="595" unicode="&#174;" /><glyph d="M232 659Q232 620 204 593Q176 566 136 566Q96 566 68 593Q40 620 40 659Q40 697 68 724.5Q96 752 136 752Q175 752 203.5 724.5Q232 697 232 659ZM87 659Q87 639 101.5 624Q116 609 136 609Q156 609 171 624Q186 639 186 659Q186 679 171 694Q156 709 136 709Q116 709 101.5 694Q87 679 87 659ZM136 504Z" glyph-name="ring" horiz-adv-x="272" unicode="&#730;" /><glyph d="M239 851Q239 812 211 785Q183 758 143 758Q103 758 75 785Q47 812 47 851Q47 889 75 916.5Q103 944 143 944Q182 944 210.5 916.5Q239 889 239 851ZM94 851Q94 831 108.5 816Q123 801 143 801Q163 801 178 816Q193 831 193 851Q193 871 178 886Q163 901 143 901Q123 901 108.5 886Q94 871 94 851ZM143 696ZM143 703Z" glyph-name="ring.case" horiz-adv-x="318" /><glyph d="M245 516Q332 516 382.5 475.5Q433 435 437 360H360Q359 407 329.5 431Q300 455 244 455Q196 455 165 434.5Q134 414 134 380Q134 349 155 331.5Q176 314 239 300L294 288Q377 270 412 236.5Q447 203 447 146Q447 73 394 30.5Q341 -12 253 -12Q154 -12 98.5 32.5Q43 77 40 161H118Q119 107 153.5 78.5Q188 50 250 50Q307 50 339 73.5Q371 97 371 139Q371 171 350 190.5Q329 210 274 222L208 237Q125 256 92 288.5Q59 321 59 375Q59 439 111 477.5Q163 516 245 516ZM246 504ZM252 10ZM252 0Z" glyph-name="s" horiz-adv-x="492" unicode="s" /><glyph d="M282 573H210L290 717H363ZM245 504ZM245 516Q332 516 382.5 475.5Q433 435 437 360H360Q359 407 329.5 431Q300 455 244 455Q196 455 165 434.5Q134 414 134 380Q134 349 155 331.5Q176 314 239 300L294 288Q377 270 412 236.5Q447 203 447 146Q447 73 394 30.5Q341 -12 253 -12Q154 -12 98.5 32.5Q43 77 40 161H118Q119 107 153.5 78.5Q188 50 250 50Q307 50 339 73.5Q371 97 371 139Q371 171 350 190.5Q329 210 274 222L208 237Q125 256 92 288.5Q59 321 59 375Q59 439 111 477.5Q163 516 245 516ZM246 504ZM252 10ZM252 0Z" glyph-name="sacute" horiz-adv-x="492" unicode="&#347;" /><glyph d="M100 717 212 573H279L392 717H324L246 617L167 717ZM246 786ZM246 504ZM245 516Q332 516 382.5 475.5Q433 435 437 360H360Q359 407 329.5 431Q300 455 244 455Q196 455 165 434.5Q134 414 134 380Q134 349 155 331.5Q176 314 239 300L294 288Q377 270 412 236.5Q447 203 447 146Q447 73 394 30.5Q341 -12 253 -12Q154 -12 98.5 32.5Q43 77 40 161H118Q119 107 153.5 78.5Q188 50 250 50Q307 50 339 73.5Q371 97 371 139Q371 171 350 190.5Q329 210 274 222L208 237Q125 256 92 288.5Q59 321 59 375Q59 439 111 477.5Q163 516 245 516ZM246 504ZM252 10ZM252 0Z" glyph-name="scaron" horiz-adv-x="492" unicode="&#353;" /><glyph d="M245 516Q332 516 382.5 475.5Q433 435 437 360H360Q359 407 329.5 431Q300 455 244 455Q196 455 165 434.5Q134 414 134 380Q134 349 155 331.5Q176 314 239 300L294 288Q377 270 412 236.5Q447 203 447 146Q447 78 401 36.5Q355 -5 275 -11L248 -56Q250 -55 252 -55Q254 -55 259 -55Q304 -55 332.5 -82.5Q361 -110 361 -152Q361 -194 330.5 -222Q300 -250 255 -250Q210 -250 180.5 -224.5Q151 -199 149 -157H206Q207 -176 221 -188Q235 -200 255 -200Q275 -200 289 -186Q303 -172 303 -152Q303 -131 289.5 -117.5Q276 -104 255 -104Q241 -104 230.5 -108.5Q220 -113 209 -125L164 -100L219 -11Q135 -3 89 41Q43 85 40 161H118Q119 107 153.5 78.5Q188 50 250 50Q307 50 339 73.5Q371 97 371 139Q371 171 350 190.5Q329 210 274 222L208 237Q124 256 91.5 288.5Q59 321 59 375Q59 439 111 477.5Q163 516 245 516Z" glyph-name="scedilla" horiz-adv-x="492" unicode="&#351;" /><glyph d="M100 573 212 717H279L392 573H324L246 673L167 573ZM246 504ZM245 516Q332 516 382.5 475.5Q433 435 437 360H360Q359 407 329.5 431Q300 455 244 455Q196 455 165 434.5Q134 414 134 380Q134 349 155 331.5Q176 314 239 300L294 288Q377 270 412 236.5Q447 203 447 146Q447 73 394 30.5Q341 -12 253 -12Q154 -12 98.5 32.5Q43 77 40 161H118Q119 107 153.5 78.5Q188 50 250 50Q307 50 339 73.5Q371 97 371 139Q371 171 350 190.5Q329 210 274 222L208 237Q125 256 92 288.5Q59 321 59 375Q59 439 111 477.5Q163 516 245 516ZM246 504ZM252 10ZM252 0Z" glyph-name="scircumflex" horiz-adv-x="492" unicode="&#349;" /><glyph d="M383 247H462V286L306 351Q195 397 162 432Q129 467 129 516Q129 575 170.5 610.5Q212 646 279 646Q354 646 396.5 607.5Q439 569 444 497H522Q516 599 451 657Q386 715 277 715Q177 715 113.5 660.5Q50 606 50 517Q50 447 92 398Q134 349 254 300ZM186 241H107V203L263 137Q315 115 338.5 103Q362 91 379 80Q411 58 425.5 32Q440 6 440 -27Q440 -87 399 -122.5Q358 -158 290 -158Q215 -158 172.5 -119.5Q130 -81 125 -8H47Q53 -111 118.5 -168.5Q184 -226 294 -226Q394 -226 457 -172Q520 -118 520 -29Q520 41 478 89.5Q436 138 315 188Z" glyph-name="section" horiz-adv-x="569" unicode="&#167;" /><glyph d="M121 -155H63L124 -11Q103 -6 90 11Q77 28 77 48Q77 74 94 91Q111 108 137 108Q163 108 181 91Q199 74 199 49Q199 43 197 35.5Q195 28 189 13ZM198 456Q198 431 180.5 413.5Q163 396 137 396Q112 396 94.5 413.5Q77 431 77 456Q77 482 94 499Q111 516 137 516Q163 516 180.5 499Q198 482 198 456ZM77 457Z" glyph-name="semicolon" horiz-adv-x="272" unicode=";" /><glyph d="M396 631H24V703H486V641L182 0H95Z" glyph-name="seven" horiz-adv-x="510" unicode="7" /><glyph d="M192 294H24V352H260V303L119 0H52Z" glyph-name="seven.denominator" horiz-adv-x="281" unicode="&#63068;" /><glyph d="M191 153H23V211H259V162L118 -141H51Z" glyph-name="seven.inferior" horiz-adv-x="280" unicode="&#8327;" /><glyph d="M191 645H23V703H259V654L118 351H51Z" glyph-name="seven.numerator" horiz-adv-x="280" unicode="&#63080;" /><glyph d="M191 786H23V844H259V795L118 492H51Z" glyph-name="seven.superior" horiz-adv-x="281" unicode="&#8311;" /><glyph d="M441 631H69V703H531V641L227 0H140Z" glyph-name="seven.tab" horiz-adv-x="600" unicode="&#65303;" /><glyph d="M294 -12Q190 -12 119 58Q48 128 48 229Q48 278 66.5 331Q85 384 120 434L309 703H400L203 433Q227 446 254.5 453Q282 460 311 460Q406 460 473 392Q540 324 540 227Q540 128 468.5 58Q397 -12 294 -12ZM126 227Q126 157 174.5 108Q223 59 294 59Q364 59 413 108Q462 157 462 227Q462 296 413.5 343.5Q365 391 294 391Q223 391 174.5 343.5Q126 296 126 227Z" glyph-name="six" horiz-adv-x="573" unicode="6" /><glyph d="M153 -6Q100 -6 63 29.5Q26 65 26 116Q26 142 35.5 167.5Q45 193 66 225L153 352H223L134 227Q141 230 147.5 231Q154 232 161 232Q211 232 245.5 198.5Q280 165 280 116Q280 65 243 29.5Q206 -6 153 -6ZM87 116Q87 87 106 68Q125 49 153 49Q181 49 200 68.5Q219 88 219 116Q219 143 199.5 163Q180 183 153 183Q125 183 106 163.5Q87 144 87 116Z" glyph-name="six.denominator" horiz-adv-x="305" unicode="&#63067;" /><glyph d="M154 -147Q101 -147 64 -111.5Q27 -76 27 -25Q27 1 36.5 26.5Q46 52 67 84L154 211H224L135 86Q142 89 148.5 90Q155 91 162 91Q212 91 246.5 57.5Q281 24 281 -25Q281 -76 244 -111.5Q207 -147 154 -147ZM88 -25Q88 -54 107 -73Q126 -92 154 -92Q182 -92 201 -72.5Q220 -53 220 -25Q220 2 200.5 22Q181 42 154 42Q126 42 107 22.5Q88 3 88 -25Z" glyph-name="six.inferior" horiz-adv-x="306" unicode="&#8326;" /><glyph d="M154 345Q101 345 64 380.5Q27 416 27 467Q27 493 36.5 518.5Q46 544 67 576L154 703H224L135 578Q142 581 148.5 582Q155 583 162 583Q212 583 246.5 549.5Q281 516 281 467Q281 416 244 380.5Q207 345 154 345ZM88 467Q88 438 107 419Q126 400 154 400Q182 400 201 419.5Q220 439 220 467Q220 494 200.5 514Q181 534 154 534Q126 534 107 514.5Q88 495 88 467Z" glyph-name="six.numerator" horiz-adv-x="306" unicode="&#63079;" /><glyph d="M154 486Q101 486 64 521.5Q27 557 27 608Q27 634 36.5 659.5Q46 685 67 717L154 844H224L135 719Q142 722 148.5 723Q155 724 162 724Q212 724 246.5 690.5Q281 657 281 608Q281 557 244 521.5Q207 486 154 486ZM88 608Q88 579 107 560Q126 541 154 541Q182 541 201 560.5Q220 580 220 608Q220 635 200.5 655Q181 675 154 675Q126 675 107 655.5Q88 636 88 608Z" glyph-name="six.superior" horiz-adv-x="305" unicode="&#8310;" /><glyph d="M308 -12Q204 -12 133 58Q62 128 62 229Q62 278 80.5 331Q99 384 134 434L323 703H414L217 433Q241 446 268.5 453Q296 460 325 460Q420 460 487 392Q554 324 554 227Q554 128 482.5 58Q411 -12 308 -12ZM140 227Q140 157 188.5 108Q237 59 308 59Q378 59 427 108Q476 157 476 227Q476 296 427.5 343.5Q379 391 308 391Q237 391 188.5 343.5Q140 296 140 227Z" glyph-name="six.tab" horiz-adv-x="600" unicode="&#65302;" /><glyph d="M274 810H349L112 -140H37Z" glyph-name="slash" horiz-adv-x="386" unicode="/" /><glyph glyph-name="space" horiz-adv-x="259" unicode=" " /><glyph d="M612 0H49V62Q97 72 128.5 120Q160 168 160 233Q160 249 159 263Q158 277 156 289H49V353H146Q146 353 138 400Q130 447 130 472Q130 587 195.5 651Q261 715 371 715Q480 715 546 650.5Q612 586 612 470H535Q535 551 491.5 595.5Q448 640 373 640Q297 640 253 595.5Q209 551 209 470Q209 461 213 431.5Q217 402 225 353H413V289H235Q237 277 237.5 265Q238 253 238 241Q238 187 221 142.5Q204 98 175 72H612Z" glyph-name="sterling" horiz-adv-x="664" unicode="&#163;" /><glyph d="M38 647V703H533V631H141L350 366L139 72H543V0H41V52L266 361Z" glyph-name="summation" horiz-adv-x="583" unicode="&#8721;" /><glyph d="M109 504V665L184 683V504H326V437H184V166Q184 104 204.5 79.5Q225 55 272 55Q292 55 310 61.5Q328 68 348 82V14Q327 0 305.5 -6Q284 -12 257 -12Q182 -12 145.5 30Q109 72 109 161V437H22V504ZM273 746ZM230 10ZM174 0Z" glyph-name="t" horiz-adv-x="369" unicode="t" /><glyph d="M191 312H333V250H191V166Q191 104 211.5 79.5Q232 55 279 55Q299 55 317 61.5Q335 68 355 82V14Q334 0 312.5 -6Q291 -12 264 -12Q189 -12 152.5 30Q116 72 116 161V250H29V312H116V437H29V504H116V665L191 683V504H333V437H191Z" glyph-name="tbar" horiz-adv-x="383" unicode="&#359;" /><glyph d="M367 705 324 583H275L316 694Q297 696 285 710.5Q273 725 273 744Q273 766 288 781Q303 796 325 796Q347 796 362 781Q377 766 377 744Q377 737 375 729Q373 721 367 705ZM273 746ZM109 504V665L184 683V504H326V437H184V166Q184 104 204.5 79.5Q225 55 272 55Q292 55 310 61.5Q328 68 348 82V14Q327 0 305.5 -6Q284 -12 257 -12Q182 -12 145.5 30Q109 72 109 161V437H22V504ZM273 746ZM230 10ZM174 0Z" glyph-name="tcaron" horiz-adv-x="369" unicode="&#357;" /><glyph d="M365 516Q474 516 547 440.5Q620 365 620 253Q620 140 546 64Q472 -12 362 -12Q299 -12 246 17Q193 46 160 98V-212H85V741H160V406Q194 458 247.5 487Q301 516 365 516ZM542 253Q542 334 486.5 390.5Q431 447 349 447Q268 447 213 391Q158 335 158 253Q158 171 213 114Q268 57 349 57Q431 57 486.5 114Q542 171 542 253Z" glyph-name="thorn" horiz-adv-x="664" unicode="&#254;" /><glyph d="M45 197H124Q126 139 173 100Q220 61 289 61Q357 61 402 101.5Q447 142 447 202Q447 266 404.5 304Q362 342 291 342H218V401H294Q352 401 388.5 435.5Q425 470 425 524Q425 575 386.5 608.5Q348 642 286 642Q224 642 184.5 608Q145 574 143 522H64Q67 604 129.5 659.5Q192 715 289 715Q384 715 443.5 663Q503 611 503 535Q503 480 475 437.5Q447 395 395 374Q459 354 493 306.5Q527 259 527 194Q527 107 460.5 47.5Q394 -12 289 -12Q184 -12 116.5 47.5Q49 107 45 197Z" glyph-name="three" horiz-adv-x="580" unicode="3" /><glyph d="M30 100H89Q91 77 110 61Q129 45 156 45Q185 45 203 61.5Q221 78 221 103Q221 131 203 146.5Q185 162 153 162H122V207H152Q178 207 194 221Q210 235 210 258Q210 280 195.5 293.5Q181 307 156 307Q131 307 115 292.5Q99 278 98 256H37Q40 301 73 329.5Q106 358 159 358Q209 358 240 332Q271 306 271 267Q271 241 258 219.5Q245 198 221 187Q250 176 265.5 153Q281 130 281 99Q281 55 246.5 24.5Q212 -6 156 -6Q101 -6 66.5 24Q32 54 30 100Z" glyph-name="three.denominator" horiz-adv-x="315" unicode="&#63064;" /><glyph d="M30 -41H89Q91 -64 110 -80Q129 -96 156 -96Q185 -96 203 -79.5Q221 -63 221 -38Q221 -10 203 5.5Q185 21 153 21H122V66H152Q178 66 194 80Q210 94 210 117Q210 139 195.5 152.5Q181 166 156 166Q131 166 115 151.5Q99 137 98 115H37Q40 160 73 188.5Q106 217 159 217Q209 217 240 191Q271 165 271 126Q271 100 258 78.5Q245 57 221 46Q250 35 265.5 12Q281 -11 281 -42Q281 -86 246.5 -116.5Q212 -147 156 -147Q101 -147 66.5 -117Q32 -87 30 -41Z" glyph-name="three.inferior" horiz-adv-x="315" unicode="&#8323;" /><glyph d="M30 451H89Q91 428 110 412Q129 396 156 396Q185 396 203 412.5Q221 429 221 454Q221 482 203 497.5Q185 513 153 513H122V558H152Q178 558 194 572Q210 586 210 609Q210 631 195.5 644.5Q181 658 156 658Q131 658 115 643.5Q99 629 98 607H37Q40 652 73 680.5Q106 709 159 709Q209 709 240 683Q271 657 271 618Q271 592 258 570.5Q245 549 221 538Q250 527 265.5 504Q281 481 281 450Q281 406 246.5 375.5Q212 345 156 345Q101 345 66.5 375Q32 405 30 451Z" glyph-name="three.numerator" horiz-adv-x="315" unicode="&#63076;" /><glyph d="M55 197H134Q136 139 183 100Q230 61 299 61Q367 61 412 101.5Q457 142 457 202Q457 266 414.5 304Q372 342 301 342H228V401H304Q362 401 398.5 435.5Q435 470 435 524Q435 575 396.5 608.5Q358 642 296 642Q234 642 194.5 608Q155 574 153 522H74Q77 604 139.5 659.5Q202 715 299 715Q394 715 453.5 663Q513 611 513 535Q513 480 485 437.5Q457 395 405 374Q469 354 503 306.5Q537 259 537 194Q537 107 470.5 47.5Q404 -12 299 -12Q194 -12 126.5 47.5Q59 107 55 197Z" glyph-name="three.tab" horiz-adv-x="600" unicode="&#65299;" /><glyph d="M386 120 527 352H597L456 127H564V195L624 209V127H654V71H624V0H564V71H386ZM603 703H672L136 0H66ZM46 451H105Q107 428 126 412Q145 396 172 396Q201 396 219 412.5Q237 429 237 454Q237 482 219 497.5Q201 513 169 513H138V558H168Q194 558 210 572Q226 586 226 609Q226 631 211.5 644.5Q197 658 172 658Q147 658 131 643.5Q115 629 114 607H53Q56 652 89 680.5Q122 709 175 709Q225 709 256 683Q287 657 287 618Q287 592 274 570.5Q261 549 237 538Q266 527 281.5 504Q297 481 297 450Q297 406 262.5 375.5Q228 345 172 345Q117 345 82.5 375Q48 405 46 451Z" glyph-name="threequarters" horiz-adv-x="707" unicode="&#190;" /><glyph d="M30 592H89Q91 569 110 553Q129 537 156 537Q185 537 203 553.5Q221 570 221 595Q221 623 203 638.5Q185 654 153 654H122V699H152Q178 699 194 713Q210 727 210 750Q210 772 195.5 785.5Q181 799 156 799Q131 799 115 784.5Q99 770 98 748H37Q40 793 73 821.5Q106 850 159 850Q209 850 240 824Q271 798 271 759Q271 733 258 711.5Q245 690 221 679Q250 668 265.5 645Q281 622 281 591Q281 547 246.5 516.5Q212 486 156 486Q101 486 66.5 516Q32 546 30 592Z" glyph-name="threesuperior" horiz-adv-x="315" unicode="&#179;" /><glyph d="M208 662Q223 647 231 642.5Q239 638 247 638Q262 638 270 651Q278 664 283 697H334Q329 639 308 611.5Q287 584 247 584Q227 584 211.5 591.5Q196 599 175 621Q159 637 150 642Q141 647 131 647Q111 647 100 631.5Q89 616 85 584H34Q38 642 63 671.5Q88 701 132 701Q151 701 167.5 693.5Q184 686 208 662ZM184 504Z" glyph-name="tilde" horiz-adv-x="370" unicode="&#732;" /><glyph d="M222 850Q237 835 245 830.5Q253 826 261 826Q276 826 284 839Q292 852 297 885H348Q343 827 322 799.5Q301 772 261 772Q241 772 225.5 779.5Q210 787 189 809Q173 825 164 830Q155 835 145 835Q125 835 114 819.5Q103 804 99 772H48Q52 830 77 859.5Q102 889 146 889Q165 889 181.5 881.5Q198 874 222 850ZM198 692ZM197 703Z" glyph-name="tilde.case" horiz-adv-x="387" /><glyph d="M206 323H145V645H34V703H315V645H206ZM415 323H355V703H424L561 426L701 703H766V323H706V588L573 323H547L415 593Z" glyph-name="trademark" horiz-adv-x="848" unicode="&#8482;" /><glyph d="M541 0H52V61L346 342Q399 393 419.5 431Q440 469 440 511Q440 568 399.5 604Q359 640 293 640Q221 640 176 596Q131 552 127 481H47Q52 584 120 649.5Q188 715 297 715Q397 715 459.5 660Q522 605 522 516Q522 457 495 406Q468 355 393 284L170 72H541Z" glyph-name="two" horiz-adv-x="588" unicode="2" /><glyph d="M286 0H36V49L174 179Q197 201 206 216.5Q215 232 215 248Q215 271 198.5 285.5Q182 300 156 300Q128 300 111 283Q94 266 93 240H31Q34 292 69 325Q104 358 158 358Q211 358 244 329Q277 300 277 252Q277 224 263 198.5Q249 173 209 136L125 58H286Z" glyph-name="two.denominator" horiz-adv-x="317" unicode="&#63063;" /><glyph d="M286 -141H36V-92L174 38Q197 60 206 75.5Q215 91 215 107Q215 130 198.5 144.5Q182 159 156 159Q128 159 111 142Q94 125 93 99H31Q34 151 69 184Q104 217 158 217Q211 217 244 188Q277 159 277 111Q277 83 263 57.5Q249 32 209 -5L125 -83H286Z" glyph-name="two.inferior" horiz-adv-x="318" unicode="&#8322;" /><glyph d="M287 351H37V400L175 530Q198 552 207 567.5Q216 583 216 599Q216 622 199.5 636.5Q183 651 157 651Q129 651 112 634Q95 617 94 591H32Q35 643 70 676Q105 709 159 709Q212 709 245 680Q278 651 278 603Q278 575 264 549.5Q250 524 210 487L126 409H287Z" glyph-name="two.numerator" horiz-adv-x="320" unicode="&#63075;" /><glyph d="M547 0H58V61L352 342Q405 393 425.5 431Q446 469 446 511Q446 568 405.5 604Q365 640 299 640Q227 640 182 596Q137 552 133 481H53Q58 584 126 649.5Q194 715 303 715Q403 715 465.5 660Q528 605 528 516Q528 457 501 406Q474 355 399 284L176 72H547Z" glyph-name="two.tab" horiz-adv-x="600" unicode="&#65298;" /><glyph d="M287 492H37V541L175 671Q198 693 207 708.5Q216 724 216 740Q216 763 199.5 777.5Q183 792 157 792Q129 792 112 775Q95 758 94 732H32Q35 784 70 817Q105 850 159 850Q212 850 245 821Q278 792 278 744Q278 716 264 690.5Q250 665 210 628L126 550H287Z" glyph-name="twosuperior" horiz-adv-x="320" unicode="&#178;" /><glyph d="M285 57Q348 57 388 102Q428 147 428 214V504H503V0H431V84Q405 39 362 13.5Q319 -12 268 -12Q183 -12 131 42.5Q79 97 79 186V504H154V203Q154 136 189 96.5Q224 57 285 57ZM291 504ZM450 0Z" glyph-name="u" horiz-adv-x="588" unicode="u" /><glyph d="M327 573H255L335 717H408ZM290 504ZM285 57Q348 57 388 102Q428 147 428 214V504H503V0H431V84Q405 39 362 13.5Q319 -12 268 -12Q183 -12 131 42.5Q79 97 79 186V504H154V203Q154 136 189 96.5Q224 57 285 57ZM291 504ZM450 0Z" glyph-name="uacute" horiz-adv-x="588" unicode="&#250;" /><glyph d="M285 57Q348 57 388 102Q428 147 428 214V504H503V0H431V84Q405 39 362 13.5Q319 -12 268 -12Q183 -12 131 42.5Q79 97 79 186V504H154V203Q154 136 189 96.5Q224 57 285 57ZM291 504ZM450 0ZM291 566Q231 566 192.5 605.5Q154 645 154 706H210Q210 664 232 639.5Q254 615 291 615Q329 615 351 639.5Q373 664 373 706H429Q429 645 390.5 605.5Q352 566 291 566ZM291 504Z" glyph-name="ubreve" horiz-adv-x="588" unicode="&#365;" /><glyph d="M145 573 257 717H324L437 573H369L291 673L212 573ZM291 504ZM285 57Q348 57 388 102Q428 147 428 214V504H503V0H431V84Q405 39 362 13.5Q319 -12 268 -12Q183 -12 131 42.5Q79 97 79 186V504H154V203Q154 136 189 96.5Q224 57 285 57ZM291 504ZM450 0Z" glyph-name="ucircumflex" horiz-adv-x="588" unicode="&#251;" /><glyph d="M269 639Q269 619 256 605.5Q243 592 223 592Q203 592 189.5 605.5Q176 619 176 639Q176 658 189.5 671.5Q203 685 223 685Q243 685 256 672Q269 659 269 639ZM407 639Q407 619 393 605.5Q379 592 360 592Q340 592 326.5 605.5Q313 619 313 639Q313 659 326.5 672Q340 685 360 685Q379 685 393 671.5Q407 658 407 639ZM291 504ZM285 57Q348 57 388 102Q428 147 428 214V504H503V0H431V84Q405 39 362 13.5Q319 -12 268 -12Q183 -12 131 42.5Q79 97 79 186V504H154V203Q154 136 189 96.5Q224 57 285 57ZM291 504ZM450 0Z" glyph-name="udieresis" horiz-adv-x="588" unicode="&#252;" /><glyph d="M285 57Q348 57 388 102Q428 147 428 214V504H503V0H431V84Q405 39 362 13.5Q319 -12 268 -12Q183 -12 131 42.5Q79 97 79 186V504H154V203Q154 136 189 96.5Q224 57 285 57ZM291 504ZM450 0ZM254 573H326L246 717H173ZM290 504Z" glyph-name="ugrave" horiz-adv-x="588" unicode="&#249;" /><glyph d="M285 57Q348 57 388 102Q428 147 428 214V504H503V0H431V84Q405 39 362 13.5Q319 -12 268 -12Q183 -12 131 42.5Q79 97 79 186V504H154V203Q154 136 189 96.5Q224 57 285 57ZM291 504ZM450 0ZM274 717 202 573H270L343 717ZM384 717 311 573H380L453 717ZM291 504Z" glyph-name="uhungarumlaut" horiz-adv-x="588" unicode="&#369;" /><glyph d="M285 57Q348 57 388 102Q428 147 428 214V504H503V0H431V84Q405 39 362 13.5Q319 -12 268 -12Q183 -12 131 42.5Q79 97 79 186V504H154V203Q154 136 189 96.5Q224 57 285 57ZM291 504ZM450 0ZM423 605H160V658H423ZM291 504Z" glyph-name="umacron" horiz-adv-x="588" unicode="&#363;" /><glyph d="M-1 -146H441V-212H-1Z" glyph-name="underscore" horiz-adv-x="440" unicode="_" /><glyph glyph-name="uni00A0" horiz-adv-x="259" unicode="&#160;" /><glyph d="M64 367H302V295H64Z" glyph-name="uni00AD" horiz-adv-x="368" unicode="&#173;" /><glyph d="M443 -138 400 -247H356L392 -159Q374 -156 362.5 -142Q351 -128 351 -112Q351 -91 365 -77Q379 -63 400 -63Q421 -63 435 -77Q449 -91 449 -112Q449 -117 447.5 -123Q446 -129 443 -138ZM401 0ZM400 -247ZM745 348V0H679V147Q640 70 567.5 29Q495 -12 399 -12Q250 -12 149.5 93.5Q49 199 49 352Q49 504 153 609.5Q257 715 408 715Q526 715 618 648Q710 581 746 472H660Q628 549 560 594.5Q492 640 408 640Q291 640 211 556.5Q131 473 131 352Q131 229 210.5 145Q290 61 408 61Q518 61 588.5 118.5Q659 176 674 283H402V348ZM408 703ZM401 0Z" glyph-name="uni0122" horiz-adv-x="810" unicode="&#290;" /><glyph d="M443 -138 400 -247H356L392 -159Q374 -156 362.5 -142Q351 -128 351 -112Q351 -91 365 -77Q379 -63 400 -63Q421 -63 435 -77Q449 -91 449 -112Q449 -117 447.5 -123Q446 -129 443 -138ZM401 0ZM400 -247ZM661 286H401V348H748V336Q748 177 652 82.5Q556 -12 403 -12Q253 -12 151 93.5Q49 199 49 352Q49 504 152.5 609.5Q256 715 408 715Q526 715 619 648Q712 581 747 472H662Q629 549 561 594.5Q493 640 408 640Q291 640 211 556Q131 472 131 352Q131 230 209.5 146.5Q288 63 403 63Q510 63 579 121.5Q648 180 661 286ZM408 703ZM401 0Z" glyph-name="uni0122.alt" horiz-adv-x="798" /><glyph d="M250 664 294 774H339L302 685Q320 682 331 669Q342 656 342 639Q342 619 328 605Q314 591 293 591Q272 591 258 605Q244 619 244 639Q244 645 245.5 651Q247 657 250 664ZM293 504ZM50 -24H124Q126 -86 174.5 -124Q223 -162 299 -162Q376 -162 424 -118Q472 -74 472 -3V124Q442 77 393 50.5Q344 24 285 24Q183 24 114.5 94.5Q46 165 46 270Q46 374 115 445Q184 516 287 516Q347 516 396.5 489Q446 462 476 412V504H547V4Q547 -99 479 -162.5Q411 -226 299 -226Q193 -226 122.5 -169Q52 -112 50 -24ZM123 270Q123 194 173 142.5Q223 91 298 91Q372 91 423.5 143.5Q475 196 475 270Q475 344 423.5 396Q372 448 298 448Q223 448 173 397Q123 346 123 270ZM296 504Z" glyph-name="uni0123" horiz-adv-x="631" unicode="&#291;" /><glyph d="M370 -138 327 -247H283L319 -159Q301 -156 289.5 -142Q278 -128 278 -112Q278 -91 292 -77Q306 -63 327 -63Q348 -63 362 -77Q376 -91 376 -112Q376 -117 374.5 -123Q373 -129 370 -138ZM328 0ZM327 -247ZM97 703H175V372L480 703H575L259 360L579 0H476L175 339V0H97ZM327 0Z" glyph-name="uni0136" horiz-adv-x="583" unicode="&#310;" /><glyph d="M330 -138 287 -247H243L279 -159Q261 -156 249.5 -142Q238 -128 238 -112Q238 -91 252 -77Q266 -63 287 -63Q308 -63 322 -77Q336 -91 336 -112Q336 -117 334.5 -123Q333 -129 330 -138ZM288 0ZM287 -247ZM160 0H85V741H160V286L379 504H472L241 277L508 0H409L160 259ZM288 0Z" glyph-name="uni0137" horiz-adv-x="503" unicode="&#311;" /><glyph d="M344 -138 301 -247H257L293 -159Q275 -156 263.5 -142Q252 -128 252 -112Q252 -91 266 -77Q280 -63 301 -63Q322 -63 336 -77Q350 -91 350 -112Q350 -117 348.5 -123Q347 -129 344 -138ZM302 0ZM301 -247ZM505 0H97V703H175V72H505ZM136 703ZM263 703ZM338 364ZM301 0Z" glyph-name="uni013B" horiz-adv-x="523" unicode="&#315;" /><glyph d="M167 -138 124 -247H80L116 -159Q98 -156 86.5 -142Q75 -128 75 -112Q75 -91 89 -77Q103 -63 124 -63Q145 -63 159 -77Q173 -91 173 -112Q173 -117 171.5 -123Q170 -129 167 -138ZM125 0ZM124 -247ZM87 741V0H163V741ZM125 741ZM252 703ZM233 364ZM125 0Z" glyph-name="uni013C" horiz-adv-x="250" unicode="&#316;" /><glyph d="M395 -138 352 -247H308L344 -159Q326 -156 314.5 -142Q303 -128 303 -112Q303 -91 317 -77Q331 -63 352 -63Q373 -63 387 -77Q401 -91 401 -112Q401 -117 399.5 -123Q398 -129 395 -138ZM353 0ZM352 -247ZM171 0H97V703H173L538 130V703H612V0H536L171 573ZM355 703ZM353 0Z" glyph-name="uni0145" horiz-adv-x="709" unicode="&#325;" /><glyph d="M344 -138 301 -247H257L293 -159Q275 -156 263.5 -142Q252 -128 252 -112Q252 -91 266 -77Q280 -63 301 -63Q322 -63 336 -77Q350 -91 350 -112Q350 -117 348.5 -123Q347 -129 344 -138ZM302 0ZM301 -247ZM160 0H85V504H157V421Q183 466 227 491Q271 516 324 516Q412 516 465 461.5Q518 407 518 318V0H443V301Q443 370 407.5 408.5Q372 447 307 447Q242 447 201 402Q160 357 160 290ZM67 546ZM304 504ZM302 0Z" glyph-name="uni0146" horiz-adv-x="597" unicode="&#326;" /><glyph d="M396 -138 353 -247H309L345 -159Q327 -156 315.5 -142Q304 -128 304 -112Q304 -91 318 -77Q332 -63 353 -63Q374 -63 388 -77Q402 -91 402 -112Q402 -117 400.5 -123Q399 -129 396 -138ZM354 0ZM353 -247ZM175 0H97V703H340Q455 703 527 647Q599 591 599 497Q599 406 536 348.5Q473 291 370 283L632 0H530L272 282H175ZM337 634H175V347H337Q417 347 467.5 387Q518 427 518 495Q518 559 467.5 596.5Q417 634 337 634ZM333 703ZM353 0Z" glyph-name="uni0156" horiz-adv-x="659" unicode="&#342;" /><glyph d="M165 -138 122 -247H78L114 -159Q96 -156 84.5 -142Q73 -128 73 -112Q73 -91 87 -77Q101 -63 122 -63Q143 -63 157 -77Q171 -91 171 -112Q171 -117 169.5 -123Q168 -129 165 -138ZM123 0ZM122 -247ZM322 439Q249 439 204.5 389.5Q160 340 160 263V0H85V504H157V399Q183 453 226.5 482Q270 511 324 511Q330 511 335.5 510.5Q341 510 349 509V438Q345 439 339.5 439Q334 439 322 439ZM222 504ZM122 0Z" glyph-name="uni0157" horiz-adv-x="372" unicode="&#343;" /><glyph d="M238 0H228V631H17V703H518V631H306V0H295L261 -56Q263 -55 265 -55Q267 -55 272 -55Q317 -55 345.5 -82.5Q374 -110 374 -152Q374 -194 343.5 -222Q313 -250 268 -250Q223 -250 193.5 -224.5Q164 -199 162 -157H219Q220 -176 234 -188Q248 -200 268 -200Q288 -200 302 -186Q316 -172 316 -152Q316 -131 302.5 -117.5Q289 -104 268 -104Q254 -104 243.5 -108.5Q233 -113 222 -125L177 -100Z" glyph-name="uni0162" horiz-adv-x="535" unicode="&#354;" /><glyph d="M109 504V665L184 683V504H326V437H184V166Q184 104 204.5 79.5Q225 55 272 55Q292 55 310 61.5Q328 68 348 82V14Q327 0 305.5 -6Q284 -12 257 -12Q256 -12 255 -12Q254 -12 253 -12L226 -56Q228 -55 230 -55Q232 -55 237 -55Q282 -55 310.5 -82.5Q339 -110 339 -152Q339 -194 308.5 -222Q278 -250 233 -250Q188 -250 158.5 -224.5Q129 -199 127 -157H184Q185 -176 199 -188Q213 -200 233 -200Q253 -200 267 -186Q281 -172 281 -152Q281 -131 267.5 -117.5Q254 -104 233 -104Q219 -104 208.5 -108.5Q198 -113 187 -125L142 -100L200 -4Q154 9 131.5 49.5Q109 90 109 161V437H22V504Z" glyph-name="uni0163" horiz-adv-x="369" unicode="&#355;" /><glyph d="M353 -138 310 -247H266L302 -159Q284 -156 272.5 -142Q261 -128 261 -112Q261 -91 275 -77Q289 -63 310 -63Q331 -63 345 -77Q359 -91 359 -112Q359 -117 357.5 -123Q356 -129 353 -138ZM311 0ZM310 -247ZM295 715Q404 715 468 658Q532 601 539 496H459Q453 569 410.5 607Q368 645 294 645Q228 645 187 614Q146 583 146 532Q146 487 172 459.5Q198 432 273 411L362 386Q469 356 511 312Q553 268 553 197Q553 100 487.5 44Q422 -12 312 -12Q190 -12 120.5 50Q51 112 47 227H126Q130 145 177.5 101.5Q225 58 310 58Q387 58 430 93Q473 128 473 192Q473 237 444 265Q415 293 328 318L254 339Q147 369 107 413Q67 457 67 528Q67 611 131.5 663Q196 715 295 715ZM295 703ZM311 10ZM311 0Z" glyph-name="uni0218" horiz-adv-x="604" unicode="&#536;" /><glyph d="M294 -138 251 -247H207L243 -159Q225 -156 213.5 -142Q202 -128 202 -112Q202 -91 216 -77Q230 -63 251 -63Q272 -63 286 -77Q300 -91 300 -112Q300 -117 298.5 -123Q297 -129 294 -138ZM252 0ZM251 -247ZM245 516Q332 516 382.5 475.5Q433 435 437 360H360Q359 407 329.5 431Q300 455 244 455Q196 455 165 434.5Q134 414 134 380Q134 349 155 331.5Q176 314 239 300L294 288Q377 270 412 236.5Q447 203 447 146Q447 73 394 30.5Q341 -12 253 -12Q154 -12 98.5 32.5Q43 77 40 161H118Q119 107 153.5 78.5Q188 50 250 50Q307 50 339 73.5Q371 97 371 139Q371 171 350 190.5Q329 210 274 222L208 237Q125 256 92 288.5Q59 321 59 375Q59 439 111 477.5Q163 516 245 516ZM246 504ZM252 10ZM252 0Z" glyph-name="uni0219" horiz-adv-x="492" unicode="&#537;" /><glyph d="M309 -138 266 -247H222L258 -159Q240 -156 228.5 -142Q217 -128 217 -112Q217 -91 231 -77Q245 -63 266 -63Q287 -63 301 -77Q315 -91 315 -112Q315 -117 313.5 -123Q312 -129 309 -138ZM267 0ZM266 -247ZM306 0H228V631H17V703H518V631H306ZM267 703ZM267 10ZM267 0Z" glyph-name="uni021A" horiz-adv-x="535" unicode="&#538;" /><glyph d="M216 -138 173 -247H129L165 -159Q147 -156 135.5 -142Q124 -128 124 -112Q124 -91 138 -77Q152 -63 173 -63Q194 -63 208 -77Q222 -91 222 -112Q222 -117 220.5 -123Q219 -129 216 -138ZM174 0ZM173 -247ZM109 504V665L184 683V504H326V437H184V166Q184 104 204.5 79.5Q225 55 272 55Q292 55 310 61.5Q328 68 348 82V14Q327 0 305.5 -6Q284 -12 257 -12Q182 -12 145.5 30Q109 72 109 161V437H22V504ZM273 746ZM230 10ZM174 0Z" glyph-name="uni021B" horiz-adv-x="369" unicode="&#539;" /><glyph d="M93 504H168V-39Q168 -135 123.5 -180.5Q79 -226 -12 -226Q-19 -226 -26 -225.5Q-33 -225 -41 -224V-158Q-38 -158 -32.5 -158.5Q-27 -159 -24 -159Q36 -159 64.5 -130Q93 -101 93 -39ZM130 504Z" glyph-name="uni0237" horiz-adv-x="255" unicode="&#567;" /><glyph d="M308 605H45V658H308ZM176 504Z" glyph-name="uni02C9" horiz-adv-x="352" unicode="&#713;" /><glyph d="M284 703H367L619 58V0H31V58ZM323 613 117 71H530Z" glyph-name="uni0394" horiz-adv-x="649" unicode="&#916;" /><glyph d="M347 0H64V71H251Q154 130 105 207Q56 284 56 377Q56 519 158.5 617Q261 715 410 715Q561 715 663.5 617Q766 519 766 377Q766 283 716.5 206Q667 129 571 71H758V0H475V89Q578 137 632 209.5Q686 282 686 374Q686 485 606 562.5Q526 640 410 640Q295 640 215.5 562Q136 484 136 374Q136 281 189.5 208.5Q243 136 347 89Z" glyph-name="uni03A9" horiz-adv-x="822" unicode="&#937;" /><glyph d="M296 57Q359 57 399 102Q439 147 439 214V504H514V0H442V84Q416 39 373 13.5Q330 -12 279 -12Q244 -12 215 -1.5Q186 9 165 30V-212H90V504H165V203Q165 136 200 96.5Q235 57 296 57Z" glyph-name="uni03BC" horiz-adv-x="604" unicode="&#956;" /><glyph d="M446 406Q540 406 600.5 349Q661 292 661 205Q661 106 597 47Q533 -12 432 -12Q383 -12 345.5 -3Q308 6 277 24V100Q310 79 347 68.5Q384 58 424 58Q495 58 538 96.5Q581 135 581 202Q581 263 539.5 302.5Q498 342 433 342Q411 342 394 338.5Q377 335 363 327L313 375L503 632H382Q285 632 225.5 571Q166 510 166 406V0H88V408Q88 543 170 623Q252 703 383 703H593V641L420 404Q428 405 433 405.5Q438 406 446 406Z" glyph-name="uni1E9E" horiz-adv-x="706" unicode="&#7838;" /><glyph d="M119 248 44 204V277L119 322V538Q119 620 159 667.5Q199 715 268 715Q328 715 364.5 676.5Q401 638 401 579Q401 505 360 441.5Q319 378 236 322L194 294V178Q194 108 213.5 82Q233 56 276 56Q302 56 324 65Q346 74 368 93V24Q345 5 319.5 -3.5Q294 -12 262 -12Q188 -12 153.5 30.5Q119 73 119 172ZM270 648Q233 648 213.5 621Q194 594 194 544V371L215 385Q275 426 303.5 473Q332 520 332 575Q332 607 315.5 627.5Q299 648 270 648Z" glyph-name="uni2113" horiz-adv-x="428" unicode="&#8467;" /><glyph d="M197 351H137V645H63L77 703H197ZM569 703H638L102 0H32ZM406 100H465Q467 77 486 61Q505 45 532 45Q561 45 579 61.5Q597 78 597 103Q597 131 579 146.5Q561 162 529 162H498V207H528Q554 207 570 221Q586 235 586 258Q586 280 571.5 293.5Q557 307 532 307Q507 307 491 292.5Q475 278 474 256H413Q416 301 449 329.5Q482 358 535 358Q585 358 616 332Q647 306 647 267Q647 241 634 219.5Q621 198 597 187Q626 176 641.5 153Q657 130 657 99Q657 55 622.5 24.5Q588 -6 532 -6Q477 -6 442.5 24Q408 54 406 100Z" glyph-name="uni2153" horiz-adv-x="710" unicode="&#8531;" /><glyph d="M301 351H51V400L189 530Q212 552 221 567.5Q230 583 230 599Q230 622 213.5 636.5Q197 651 171 651Q143 651 126 634Q109 617 108 591H46Q49 643 84 676Q119 709 173 709Q226 709 259 680Q292 651 292 603Q292 575 278 549.5Q264 524 224 487L140 409H301ZM634 703H703L167 0H97ZM471 100H530Q532 77 551 61Q570 45 597 45Q626 45 644 61.5Q662 78 662 103Q662 131 644 146.5Q626 162 594 162H563V207H593Q619 207 635 221Q651 235 651 258Q651 280 636.5 293.5Q622 307 597 307Q572 307 556 292.5Q540 278 539 256H478Q481 301 514 329.5Q547 358 600 358Q650 358 681 332Q712 306 712 267Q712 241 699 219.5Q686 198 662 187Q691 176 706.5 153Q722 130 722 99Q722 55 687.5 24.5Q653 -6 597 -6Q542 -6 507.5 24Q473 54 471 100Z" glyph-name="uni2154" horiz-adv-x="769" unicode="&#8532;" /><glyph d="M569 703H638L102 0H32ZM197 351H137V645H63L77 703H197ZM445 352H633V297H495L487 214Q498 218 510.5 220.5Q523 223 535 223Q589 223 621.5 192Q654 161 654 111Q654 61 618.5 27.5Q583 -6 530 -6Q479 -6 443 25Q407 56 403 104H465Q467 81 484.5 66Q502 51 528 51Q556 51 575 68.5Q594 86 594 111Q594 137 575 155.5Q556 174 528 174Q512 174 499 168Q486 162 477 151L427 158Z" glyph-name="uni2155" horiz-adv-x="708" unicode="&#8533;" /><glyph d="M301 351H51V400L189 530Q212 552 221 567.5Q230 583 230 599Q230 622 213.5 636.5Q197 651 171 651Q143 651 126 634Q109 617 108 591H46Q49 643 84 676Q119 709 173 709Q226 709 259 680Q292 651 292 603Q292 575 278 549.5Q264 524 224 487L140 409H301ZM629 703H698L162 0H92ZM505 352H693V297H555L547 214Q558 218 570.5 220.5Q583 223 595 223Q649 223 681.5 192Q714 161 714 111Q714 61 678.5 27.5Q643 -6 590 -6Q539 -6 503 25Q467 56 463 104H525Q527 81 544.5 66Q562 51 588 51Q616 51 635 68.5Q654 86 654 111Q654 137 635 155.5Q616 174 588 174Q572 174 559 168Q546 162 537 151L487 158Z" glyph-name="uni2156" horiz-adv-x="762" unicode="&#8534;" /><glyph d="M604 703H673L137 0H67ZM480 352H668V297H530L522 214Q533 218 545.5 220.5Q558 223 570 223Q624 223 656.5 192Q689 161 689 111Q689 61 653.5 27.5Q618 -6 565 -6Q514 -6 478 25Q442 56 438 104H500Q502 81 519.5 66Q537 51 563 51Q591 51 610 68.5Q629 86 629 111Q629 137 610 155.5Q591 174 563 174Q547 174 534 168Q521 162 512 151L462 158ZM45 451H104Q106 428 125 412Q144 396 171 396Q200 396 218 412.5Q236 429 236 454Q236 482 218 497.5Q200 513 168 513H137V558H167Q193 558 209 572Q225 586 225 609Q225 631 210.5 644.5Q196 658 171 658Q146 658 130 643.5Q114 629 113 607H52Q55 652 88 680.5Q121 709 174 709Q224 709 255 683Q286 657 286 618Q286 592 273 570.5Q260 549 236 538Q265 527 280.5 504Q296 481 296 450Q296 406 261.5 375.5Q227 345 171 345Q116 345 81.5 375Q47 405 45 451Z" glyph-name="uni2157" horiz-adv-x="737" unicode="&#8535;" /><glyph d="M35 471 176 703H246L105 478H213V546L273 560V478H303V422H273V351H213V422H35ZM616 703H685L149 0H79ZM493 352H681V297H543L535 214Q546 218 558.5 220.5Q571 223 583 223Q637 223 669.5 192Q702 161 702 111Q702 61 666.5 27.5Q631 -6 578 -6Q527 -6 491 25Q455 56 451 104H513Q515 81 532.5 66Q550 51 576 51Q604 51 623 68.5Q642 86 642 111Q642 137 623 155.5Q604 174 576 174Q560 174 547 168Q534 162 525 151L475 158Z" glyph-name="uni2158" horiz-adv-x="752" unicode="&#8536;" /><glyph d="M509 -6Q456 -6 419 29.5Q382 65 382 116Q382 142 391.5 167.5Q401 193 422 225L509 352H579L490 227Q497 230 503.5 231Q510 232 517 232Q567 232 601.5 198.5Q636 165 636 116Q636 65 599 29.5Q562 -6 509 -6ZM443 116Q443 87 462 68Q481 49 509 49Q537 49 556 68.5Q575 88 575 116Q575 143 555.5 163Q536 183 509 183Q481 183 462 163.5Q443 144 443 116ZM197 351H137V645H63L77 703H197ZM569 703H638L102 0H32Z" glyph-name="uni2159" horiz-adv-x="686" unicode="&#8537;" /><glyph d="M548 -6Q495 -6 458 29.5Q421 65 421 116Q421 142 430.5 167.5Q440 193 461 225L548 352H618L529 227Q536 230 542.5 231Q549 232 556 232Q606 232 640.5 198.5Q675 165 675 116Q675 65 638 29.5Q601 -6 548 -6ZM482 116Q482 87 501 68Q520 49 548 49Q576 49 595 68.5Q614 88 614 116Q614 143 594.5 163Q575 183 548 183Q520 183 501 163.5Q482 144 482 116ZM607 703H676L140 0H70ZM80 703H268V648H130L122 565Q133 569 145.5 571.5Q158 574 170 574Q224 574 256.5 543Q289 512 289 462Q289 412 253.5 378.5Q218 345 165 345Q114 345 78 376Q42 407 38 455H100Q102 432 119.5 417Q137 402 163 402Q191 402 210 419.5Q229 437 229 462Q229 488 210 506.5Q191 525 163 525Q147 525 134 519Q121 513 112 502L62 509Z" glyph-name="uni215A" horiz-adv-x="719" unicode="&#8538;" /><glyph d="M569 703H638L102 0H32ZM197 351H137V645H63L77 703H197ZM655 100Q655 54 619.5 24Q584 -6 528 -6Q472 -6 436.5 24.5Q401 55 401 100Q401 129 416.5 152.5Q432 176 459 189Q438 203 427 223Q416 243 416 267Q416 305 447.5 331.5Q479 358 528 358Q577 358 608.5 332Q640 306 640 267Q640 243 628.5 223Q617 203 596 189Q624 176 639.5 152.5Q655 129 655 100ZM474 259Q474 239 489.5 225Q505 211 529 212Q554 213 569 227Q584 241 584 261Q584 282 568 295.5Q552 309 527 309Q504 309 489 294.5Q474 280 474 259ZM461 102Q461 78 479.5 61.5Q498 45 528 45Q558 45 576.5 61.5Q595 78 595 102Q595 128 576.5 145.5Q558 163 528 163Q498 163 479.5 145.5Q461 128 461 102Z" glyph-name="uni215B" horiz-adv-x="708" unicode="&#8539;" /><glyph d="M606 703H675L139 0H69ZM693 100Q693 54 657.5 24Q622 -6 566 -6Q510 -6 474.5 24.5Q439 55 439 100Q439 129 454.5 152.5Q470 176 497 189Q476 203 465 223Q454 243 454 267Q454 305 485.5 331.5Q517 358 566 358Q615 358 646.5 332Q678 306 678 267Q678 243 666.5 223Q655 203 634 189Q662 176 677.5 152.5Q693 129 693 100ZM512 259Q512 239 527.5 225Q543 211 567 212Q592 213 607 227Q622 241 622 261Q622 282 606 295.5Q590 309 565 309Q542 309 527 294.5Q512 280 512 259ZM499 102Q499 78 517.5 61.5Q536 45 566 45Q596 45 614.5 61.5Q633 78 633 102Q633 128 614.5 145.5Q596 163 566 163Q536 163 517.5 145.5Q499 128 499 102ZM44 451H103Q105 428 124 412Q143 396 170 396Q199 396 217 412.5Q235 429 235 454Q235 482 217 497.5Q199 513 167 513H136V558H166Q192 558 208 572Q224 586 224 609Q224 631 209.5 644.5Q195 658 170 658Q145 658 129 643.5Q113 629 112 607H51Q54 652 87 680.5Q120 709 173 709Q223 709 254 683Q285 657 285 618Q285 592 272 570.5Q259 549 235 538Q264 527 279.5 504Q295 481 295 450Q295 406 260.5 375.5Q226 345 170 345Q115 345 80.5 375Q46 405 44 451Z" glyph-name="uni215C" horiz-adv-x="739" unicode="&#8540;" /><glyph d="M607 703H676L140 0H70ZM80 703H268V648H130L122 565Q133 569 145.5 571.5Q158 574 170 574Q224 574 256.5 543Q289 512 289 462Q289 412 253.5 378.5Q218 345 165 345Q114 345 78 376Q42 407 38 455H100Q102 432 119.5 417Q137 402 163 402Q191 402 210 419.5Q229 437 229 462Q229 488 210 506.5Q191 525 163 525Q147 525 134 519Q121 513 112 502L62 509ZM693 100Q693 54 657.5 24Q622 -6 566 -6Q510 -6 474.5 24.5Q439 55 439 100Q439 129 454.5 152.5Q470 176 497 189Q476 203 465 223Q454 243 454 267Q454 305 485.5 331.5Q517 358 566 358Q615 358 646.5 332Q678 306 678 267Q678 243 666.5 223Q655 203 634 189Q662 176 677.5 152.5Q693 129 693 100ZM512 259Q512 239 527.5 225Q543 211 567 212Q592 213 607 227Q622 241 622 261Q622 282 606 295.5Q590 309 565 309Q542 309 527 294.5Q512 280 512 259ZM499 102Q499 78 517.5 61.5Q536 45 566 45Q596 45 614.5 61.5Q633 78 633 102Q633 128 614.5 145.5Q596 163 566 163Q536 163 517.5 145.5Q499 128 499 102Z" glyph-name="uni215D" horiz-adv-x="740" unicode="&#8541;" /><glyph d="M239 645H71V703H307V654L166 351H99ZM570 703H639L103 0H33ZM661 100Q661 54 625.5 24Q590 -6 534 -6Q478 -6 442.5 24.5Q407 55 407 100Q407 129 422.5 152.5Q438 176 465 189Q444 203 433 223Q422 243 422 267Q422 305 453.5 331.5Q485 358 534 358Q583 358 614.5 332Q646 306 646 267Q646 243 634.5 223Q623 203 602 189Q630 176 645.5 152.5Q661 129 661 100ZM480 259Q480 239 495.5 225Q511 211 535 212Q560 213 575 227Q590 241 590 261Q590 282 574 295.5Q558 309 533 309Q510 309 495 294.5Q480 280 480 259ZM467 102Q467 78 485.5 61.5Q504 45 534 45Q564 45 582.5 61.5Q601 78 601 102Q601 128 582.5 145.5Q564 163 534 163Q504 163 485.5 145.5Q467 128 467 102Z" glyph-name="uni215E" horiz-adv-x="712" unicode="&#8542;" /><glyph d="M211 351H151V645H77L91 703H211ZM581 703H650L114 0H44Z" glyph-name="uni215F" horiz-adv-x="672" unicode="&#8543;" /><glyph d="M306 703H375L-161 0H-231Z" glyph-name="uni2215" horiz-adv-x="145" unicode="&#8725;" /><glyph d="M309.9692 366.5839Q309.9692 323.5715 279.8604 293.4627Q249.7517 263.354 205.0188 263.354Q162.0063 263.354 131.8976 293.4627Q101.7889 323.5715 101.7889 366.5839Q101.7889 411.3169 131.0374 440.5653Q160.2858 469.8138 205.0188 469.8138Q249.7517 469.8138 279.8604 440.5653Q309.9692 411.3169 309.9692 366.5839ZM101.7889 368.3044Z" glyph-name="uni2219" horiz-adv-x="410" unicode="&#8729;" /><glyph d="M350 488H388Q394 488 396.5 485.5Q399 483 399 477V471Q415 483 428.5 487.5Q442 492 457 492Q473 492 486.5 485.5Q500 479 508 466Q524 480 539 486Q554 492 572 492Q598 492 613.5 477Q629 462 629 438V306Q629 300 626.5 297.5Q624 295 617 295H579Q572 295 569 297.5Q566 300 566 306V422Q566 432 563 435Q560 438 552 438Q543 438 533 434Q523 430 514 423V306Q514 300 511.5 297.5Q509 295 503 295H465Q458 295 455.5 297.5Q453 300 453 306V422Q453 432 450 435Q447 438 438 438Q429 438 419 433.5Q409 429 401 423V306Q401 300 399 297.5Q397 295 391 295H350Q344 295 341.5 297.5Q339 300 339 306V477Q339 483 341.5 485.5Q344 488 350 488ZM1017 488H1053Q1060 488 1062.5 485.5Q1065 483 1065 477L1066 470Q1081 482 1095 487Q1109 492 1126 492Q1154 492 1168.5 476.5Q1183 461 1183 432V352Q1183 322 1168.5 306Q1154 290 1126 290Q1110 290 1096 295Q1082 300 1068 311V228Q1068 222 1065.5 219.5Q1063 217 1057 217H1017Q1011 217 1008.5 219.5Q1006 222 1006 228V477Q1006 483 1008.5 485.5Q1011 488 1017 488ZM224 492Q265 492 285.5 477Q306 462 306 431V388Q306 382 303 379.5Q300 377 294 377H201V354Q201 345 206.5 340.5Q212 336 224 336Q236 336 242.5 340.5Q249 345 249 354V355Q249 361 251.5 363.5Q254 366 260 366H292Q298 366 301 363.5Q304 361 304 355V352Q304 321 284 305.5Q264 290 224 290Q183 290 161 306Q139 322 139 352V431Q139 461 160.5 476.5Q182 492 224 492ZM1298 492Q1339 492 1359.5 477Q1380 462 1380 431V388Q1380 382 1377.5 379.5Q1375 377 1369 377H1275V354Q1275 345 1280.5 340.5Q1286 336 1298 336Q1310 336 1316 340.5Q1322 345 1322 354V355Q1322 361 1325 363.5Q1328 366 1334 366H1366Q1372 366 1374.5 363.5Q1377 361 1377 355V352Q1377 321 1357.5 305.5Q1338 290 1298 290Q1257 290 1235.5 306Q1214 322 1214 352V431Q1214 461 1235 476.5Q1256 492 1298 492ZM860 477 882 407Q885 396 887 384.5Q889 373 889 370Q890 371 893 382.5Q896 394 899 405L923 477Q925 484 927.5 486Q930 488 935 488H972Q979 488 981.5 485Q984 482 983 477L899 228Q897 223 893.5 220Q890 217 885 217H857Q850 217 847.5 220Q845 223 846 228L862 287L797 477Q795 482 797.5 485Q800 488 808 488H848Q853 488 855.5 486Q858 484 860 477ZM741 523V487H772Q778 487 780.5 485Q783 483 783 477V450Q783 444 780.5 441.5Q778 439 772 439H741V362Q741 353 747 348.5Q753 344 765 344H775Q781 344 784 341.5Q787 339 787 333V306Q787 300 784 297.5Q781 295 775 295H756Q714 295 696 308.5Q678 322 678 355V439H661Q655 439 652.5 441.5Q650 444 650 450V475Q650 479 652 481.5Q654 484 661 486L677 487H678V523Q678 529 681 532Q684 535 690 535H729Q736 535 738.5 532.5Q741 530 741 523ZM414 195Q448 195 465 183Q482 171 482 147V98Q482 97 481 95.5Q480 94 478 94H364V46Q364 29 376.5 21Q389 13 414 13Q438 13 450 21Q462 29 462 46V54Q462 56 463 57Q464 58 468 58H477Q480 58 481 57Q482 56 482 54V45Q482 20 465 8.5Q448 -3 413 -3Q378 -3 361 9Q344 21 344 45V147Q344 171 361.5 183Q379 195 414 195ZM164 188V171Q181 183 197.5 189Q214 195 231 195Q257 195 271 182.5Q285 170 285 149V5Q285 3 284 1.5Q283 0 281 0H270Q268 0 267 0.5Q266 1 266 5V145Q266 160 256 168Q246 176 227 176Q209 176 192 169.5Q175 163 165 153V5Q165 3 164 1.5Q163 0 161 0H150Q147 0 146 1Q145 2 145 5V188Q145 190 146 191Q147 192 150 192H159Q162 192 163 191Q164 190 164 188ZM566 232V191H613Q616 191 616.5 190Q617 189 617 187V179Q617 176 616 175Q615 174 613 174H566V50Q566 34 578.5 25.5Q591 17 616 17H622Q624 17 625.5 15.5Q627 14 627 12V5Q627 3 625.5 1.5Q624 0 622 0H613Q578 0 562.5 11Q547 22 547 48V174H522Q520 174 519 175Q518 176 518 179V186Q518 188 519 189Q520 190 522 191H547V232Q547 235 547.5 236Q548 237 551 237H562Q563 236 564 234.5Q565 233 566 232ZM414 178Q389 178 376.5 170Q364 162 364 146V110H462V146Q462 162 450 170Q438 178 414 178ZM1105 344Q1114 344 1118 348Q1122 352 1122 361V423Q1122 431 1118 434.5Q1114 438 1105 438Q1098 438 1090.5 435Q1083 432 1068 423V360Q1086 349 1092.5 346.5Q1099 344 1105 344ZM224 446Q212 446 206.5 441.5Q201 437 201 428V417H249V428Q249 437 242.5 441.5Q236 446 224 446ZM1298 446Q1286 446 1280.5 441.5Q1275 437 1275 428V417H1322V428Q1322 437 1316 441.5Q1310 446 1298 446ZM80 35V5Q80 2 79 1Q78 0 75 0H64Q62 0 61 1Q60 2 60 5V35Q60 38 61 39Q62 40 64 40H75Q78 40 79 39Q80 38 80 35Z" glyph-name="uniF8FF" horiz-adv-x="1438" unicode="&#63743;" /><glyph d="M285 57Q348 57 388 102Q428 147 428 214V504H503V0H494Q444 -57 424 -89Q404 -121 404 -145Q404 -168 416.5 -179.5Q429 -191 452 -191Q463 -191 475 -188Q487 -185 498 -179V-232Q484 -241 469 -245.5Q454 -250 437 -250Q396 -250 368 -224.5Q340 -199 340 -161Q340 -127 357.5 -94.5Q375 -62 431 2V84Q405 39 362 13.5Q319 -12 268 -12Q183 -12 131 42.5Q79 97 79 186V504H154V203Q154 136 189 96.5Q224 57 285 57Z" glyph-name="uogonek" horiz-adv-x="588" unicode="&#371;" /><glyph d="M387 659Q387 620 359 593Q331 566 291 566Q251 566 223 593Q195 620 195 659Q195 697 223 724.5Q251 752 291 752Q330 752 358.5 724.5Q387 697 387 659ZM242 659Q242 639 256.5 624Q271 609 291 609Q311 609 326 624Q341 639 341 659Q341 679 326 694Q311 709 291 709Q271 709 256.5 694Q242 679 242 659ZM291 504ZM285 57Q348 57 388 102Q428 147 428 214V504H503V0H431V84Q405 39 362 13.5Q319 -12 268 -12Q183 -12 131 42.5Q79 97 79 186V504H154V203Q154 136 189 96.5Q224 57 285 57ZM291 504ZM450 0Z" glyph-name="uring" horiz-adv-x="588" unicode="&#367;" /><glyph d="M285 57Q348 57 388 102Q428 147 428 214V504H503V0H431V84Q405 39 362 13.5Q319 -12 268 -12Q183 -12 131 42.5Q79 97 79 186V504H154V203Q154 136 189 96.5Q224 57 285 57ZM291 504ZM450 0ZM315 662Q330 647 338 642.5Q346 638 354 638Q369 638 377 651Q385 664 390 697H441Q436 639 415 611.5Q394 584 354 584Q334 584 318.5 591.5Q303 599 282 621Q266 637 257 642Q248 647 238 647Q218 647 207 631.5Q196 616 192 584H141Q145 642 170 671.5Q195 701 239 701Q258 701 274.5 693.5Q291 686 315 662ZM291 504Z" glyph-name="utilde" horiz-adv-x="588" unicode="&#361;" /><glyph d="M303 0H219L23 504H102L262 87L421 504H499Z" glyph-name="v" horiz-adv-x="522" unicode="v" /><glyph d="M278 0H201L22 504H97L242 89L387 504H459L604 89L749 504H822L643 0H568L422 408ZM423 504Z" glyph-name="w" horiz-adv-x="844" unicode="w" /><glyph d="M460 573H388L468 717H541ZM423 504ZM278 0H201L22 504H97L242 89L387 504H459L604 89L749 504H822L643 0H568L422 408ZM423 504Z" glyph-name="wacute" horiz-adv-x="844" unicode="&#7811;" /><glyph d="M277 573 389 717H456L569 573H501L423 673L344 573ZM423 504ZM278 0H201L22 504H97L242 89L387 504H459L604 89L749 504H822L643 0H568L422 408ZM423 504Z" glyph-name="wcircumflex" horiz-adv-x="844" unicode="&#373;" /><glyph d="M401 639Q401 619 388 605.5Q375 592 355 592Q335 592 321.5 605.5Q308 619 308 639Q308 658 321.5 671.5Q335 685 355 685Q375 685 388 672Q401 659 401 639ZM539 639Q539 619 525 605.5Q511 592 492 592Q472 592 458.5 605.5Q445 619 445 639Q445 659 458.5 672Q472 685 492 685Q511 685 525 671.5Q539 658 539 639ZM423 504ZM278 0H201L22 504H97L242 89L387 504H459L604 89L749 504H822L643 0H568L422 408ZM423 504Z" glyph-name="wdieresis" horiz-adv-x="844" unicode="&#7813;" /><glyph d="M278 0H201L22 504H97L242 89L387 504H459L604 89L749 504H822L643 0H568L422 408ZM423 504ZM386 573H458L378 717H305ZM422 504Z" glyph-name="wgrave" horiz-adv-x="844" unicode="&#7809;" /><glyph d="M96 0H14L204 256L22 504H108L250 309L393 504H474L292 257L483 0H396L246 203Z" glyph-name="x" horiz-adv-x="496" unicode="x" /><glyph d="M420 504H498L221 -212H146L224 -6L22 504H101L261 88ZM261 504Z" glyph-name="y" horiz-adv-x="521" unicode="y" /><glyph d="M420 504H498L221 -212H146L224 -6L22 504H101L261 88ZM261 504ZM298 573H226L306 717H379ZM261 504Z" glyph-name="yacute" horiz-adv-x="521" unicode="&#253;" /><glyph d="M420 504H498L221 -212H146L224 -6L22 504H101L261 88ZM261 504ZM115 573 227 717H294L407 573H339L261 673L182 573ZM261 504Z" glyph-name="ycircumflex" horiz-adv-x="521" unicode="&#375;" /><glyph d="M420 504H498L221 -212H146L224 -6L22 504H101L261 88ZM261 504ZM239 639Q239 619 226 605.5Q213 592 193 592Q173 592 159.5 605.5Q146 619 146 639Q146 658 159.5 671.5Q173 685 193 685Q213 685 226 672Q239 659 239 639ZM377 639Q377 619 363 605.5Q349 592 330 592Q310 592 296.5 605.5Q283 619 283 639Q283 659 296.5 672Q310 685 330 685Q349 685 363 671.5Q377 658 377 639ZM261 504Z" glyph-name="ydieresis" horiz-adv-x="521" unicode="&#255;" /><glyph d="M353 0H275V149H99V211H275V262L269 273H99V336H234L29 703H117L315 342L515 703H598L392 336H528V273H357L353 266V211H528V149H353Z" glyph-name="yen" horiz-adv-x="627" unicode="&#165;" /><glyph d="M420 504H498L221 -212H146L224 -6L22 504H101L261 88ZM261 504ZM225 573H297L217 717H144ZM261 504Z" glyph-name="ygrave" horiz-adv-x="521" unicode="&#7923;" /><glyph d="M458 0H32V51L354 437H46V504H447V450L132 67H458ZM246 504Z" glyph-name="z" horiz-adv-x="490" unicode="z" /><glyph d="M283 573H211L291 717H364ZM246 504ZM458 0H32V51L354 437H46V504H447V450L132 67H458ZM246 504Z" glyph-name="zacute" horiz-adv-x="490" unicode="&#378;" /><glyph d="M100 717 212 573H279L392 717H324L246 617L167 717ZM246 786ZM246 504ZM458 0H32V51L354 437H46V504H447V450L132 67H458ZM246 504Z" glyph-name="zcaron" horiz-adv-x="490" unicode="&#382;" /><glyph d="M458 0H32V51L354 437H46V504H447V450L132 67H458ZM246 504ZM298 642Q298 621 282.5 606Q267 591 246 591Q224 591 209 606Q194 621 194 642Q194 664 209 679.5Q224 695 246 695Q267 695 282.5 679.5Q298 664 298 642ZM246 504Z" glyph-name="zdotaccent" horiz-adv-x="490" unicode="&#380;" /><glyph d="M562 243V461Q562 581 494 648Q426 715 315 715Q204 715 135.5 648Q67 581 67 461V243Q67 123 135 55.5Q203 -12 315 -12Q426 -12 494 55Q562 122 562 243ZM314 640Q393 640 438.5 593Q484 546 484 460V243Q484 157 438.5 110Q393 63 314 63Q236 63 191 110.5Q146 158 146 243V460Q146 545 191 592.5Q236 640 314 640Z" glyph-name="zero" horiz-adv-x="629" unicode="0" /><glyph d="M298 123V231Q298 291 262 324.5Q226 358 168 358Q110 358 74.5 324.5Q39 291 39 231V123Q39 62 74.5 28Q110 -6 168 -6Q227 -6 262.5 28Q298 62 298 123ZM168 301Q199 301 218 281.5Q237 262 237 228V124Q237 90 218 70.5Q199 51 168 51Q137 51 118.5 70.5Q100 90 100 124V228Q100 262 118.5 281.5Q137 301 168 301Z" glyph-name="zero.denominator" horiz-adv-x="337" unicode="&#63061;" /><glyph d="M298 -18V90Q298 150 262 183.5Q226 217 168 217Q110 217 74.5 183.5Q39 150 39 90V-18Q39 -79 74.5 -113Q110 -147 168 -147Q227 -147 262.5 -113Q298 -79 298 -18ZM168 160Q199 160 218 140.5Q237 121 237 87V-17Q237 -51 218 -70.5Q199 -90 168 -90Q137 -90 118.5 -70.5Q100 -51 100 -17V87Q100 121 118.5 140.5Q137 160 168 160Z" glyph-name="zero.inferior" horiz-adv-x="337" unicode="&#8320;" /><glyph d="M298 474V582Q298 642 262 675.5Q226 709 168 709Q110 709 74.5 675.5Q39 642 39 582V474Q39 413 74.5 379Q110 345 168 345Q227 345 262.5 379Q298 413 298 474ZM168 652Q199 652 218 632.5Q237 613 237 579V475Q237 441 218 421.5Q199 402 168 402Q137 402 118.5 421.5Q100 441 100 475V579Q100 613 118.5 632.5Q137 652 168 652Z" glyph-name="zero.numerator" horiz-adv-x="337" unicode="&#63073;" /><glyph d="M298 615V723Q298 783 262 816.5Q226 850 168 850Q110 850 74.5 816.5Q39 783 39 723V615Q39 554 74.5 520Q110 486 168 486Q227 486 262.5 520Q298 554 298 615ZM168 793Q199 793 218 773.5Q237 754 237 720V616Q237 582 218 562.5Q199 543 168 543Q137 543 118.5 562.5Q100 582 100 616V720Q100 754 118.5 773.5Q137 793 168 793Z" glyph-name="zero.superior" horiz-adv-x="337" unicode="&#8304;" /><glyph d="M547 243V461Q547 581 479 648Q411 715 300 715Q189 715 120.5 648Q52 581 52 461V243Q52 123 120 55.5Q188 -12 300 -12Q411 -12 479 55Q547 122 547 243ZM299 640Q378 640 423.5 593Q469 546 469 460V243Q469 157 423.5 110Q378 63 299 63Q221 63 176 110.5Q131 158 131 243V460Q131 545 176 592.5Q221 640 299 640Z" glyph-name="zero.tab" horiz-adv-x="600" unicode="&#65296;" /></font>
</defs>
</svg>
