<?xml version="1.0" standalone="no"?>
<!DOCTYPE svg PUBLIC "-//W3C//DTD SVG 20010904//EN"
 "http://www.w3.org/TR/2001/REC-SVG-20010904/DTD/svg10.dtd">
<svg version="1.0" xmlns="http://www.w3.org/2000/svg"
 width="700.000000pt" height="700.000000pt" viewBox="0 0 700.000000 700.000000"
 preserveAspectRatio="xMidYMid meet">
<metadata>
Created by potrace 1.11, written by Peter Selinger 2001-2013
</metadata>
<g transform="translate(0.000000,700.000000) scale(0.100000,-0.100000)"
fill="#000000" stroke="none">
<path d="M1918 4539 c-147 -20 -274 -85 -388 -200 -87 -88 -140 -172 -177
-284 -23 -70 -26 -97 -27 -215 0 -100 5 -152 18 -200 67 -246 263 -439 502
-496 98 -23 266 -21 367 5 135 35 257 111 342 213 41 48 97 142 114 191 l10
27 -123 0 c-122 0 -123 0 -134 -25 -18 -39 -101 -124 -150 -152 -191 -112
-464 -71 -596 91 -56 67 -84 130 -110 249 l-6 27 581 0 581 0 -7 103 c-4 56
-16 135 -26 175 -58 228 -257 425 -481 476 -86 20 -210 26 -290 15z m254 -230
c136 -45 248 -164 286 -301 l10 -38 -445 0 -445 0 6 28 c22 92 118 219 205
270 113 66 262 82 383 41z"/>
<path d="M4136 4509 c-77 -18 -169 -72 -233 -137 l-63 -63 0 90 0 91 -115 0
-115 0 0 -670 0 -670 120 0 120 0 0 398 c0 434 6 490 57 583 33 62 80 104 153
138 46 22 69 26 145 26 78 0 97 -4 147 -28 75 -37 123 -94 148 -175 19 -60 20
-94 20 -503 l0 -439 125 0 124 0 3 443 3 442 28 61 c34 74 104 145 172 176 71
33 208 32 280 0 104 -48 160 -132 175 -265 6 -45 10 -256 10 -469 l0 -388 120
0 120 0 0 463 c0 429 -1 470 -20 541 -27 105 -62 166 -136 235 -100 94 -197
131 -348 131 -106 0 -190 -20 -271 -65 -59 -33 -150 -118 -174 -163 -15 -28
-25 -28 -38 1 -21 45 -113 134 -171 165 -32 17 -85 38 -117 47 -64 16 -206 19
-269 4z"/>
<path d="M3055 3489 c-70 -26 -116 -94 -117 -173 -1 -94 50 -161 140 -186 154
-41 280 118 213 267 -36 79 -150 123 -236 92z"/>
<path d="M1320 2600 l0 -120 700 0 701 0 -3 118 -3 117 -697 3 -698 2 0 -120z"/>
</g>
</svg>
